  0
SECTION
  2
HEADER
  9
$ACADVER
  1
AC1009
  9
$LIMMIN
 10
25.91795000000001
 20
28.71858333333334
  9
$LIMMAX
 10
27.85691666666667
 20
29.87930000000001
  9
$GRIDMODE
 70
58
  9
$GRIDUNIT
 10
  0
 20
  0
  9
$SNAPMODE
 70
1
  9
$SNAPSTYLE
 70
0
  9
$SNAPUNIT
 10
0.07873333333333335
 20
0.07873333333333335
  9
$FILLMODE
 70
1
  0
ENDSEC
  0
SECTION
  2
TABLES
  0
TABLE
  2
LTYPE
 70
1
  0
LTYPE
  2
CONTINUOUS
 70
64
  3
Solid line
 72
65
 73
0
 40
  0
  0
ENDTAB
  0
TABLE
  2
LAYER
 70
224
  0
LAYER
  2
0
 70
64
  6
CONTINUOUS
 62
1
  0
LAYER
  2
PADSTACKS
 70
64
  6
CONTINUOUS
 62
1
  0
LAYER
  2
COMPONENTS_TOP
 70
64
  6
CONTINUOUS
 62
1
  0
LAYER
  2
COMPONENTS_BOTTOM
 70
64
  6
CONTINUOUS
 62
1
  0
LAYER
  2
GLOBAL_LAYER
 70
64
  6
CONTINUOUS
 62
1
  0
LAYER
  2
TOP
 70
64
  6
CONTINUOUS
 62
2
  0
LAYER
  2
BOTTOM
 70
64
  6
CONTINUOUS
 62
3
  0
LAYER
  2
GND
 70
64
  6
CONTINUOUS
 62
4
  0
LAYER
  2
INNER
 70
64
  6
CONTINUOUS
 62
5
  0
LAYER
  2
PLANE
 70
64
  6
CONTINUOUS
 62
6
  0
LAYER
  2
POWER
 70
64
  6
CONTINUOUS
 62
7
  0
LAYER
  2
INNER1
 70
64
  6
CONTINUOUS
 62
8
  0
LAYER
  2
INNER2
 70
64
  6
CONTINUOUS
 62
1
  0
LAYER
  2
INNER3
 70
64
  6
CONTINUOUS
 62
2
  0
LAYER
  2
INNER4
 70
64
  6
CONTINUOUS
 62
3
  0
LAYER
  2
INNER5
 70
64
  6
CONTINUOUS
 62
4
  0
LAYER
  2
INNER6
 70
64
  6
CONTINUOUS
 62
5
  0
LAYER
  2
INNER7
 70
64
  6
CONTINUOUS
 62
6
  0
LAYER
  2
INNER8
 70
64
  6
CONTINUOUS
 62
7
  0
LAYER
  2
INNER9
 70
64
  6
CONTINUOUS
 62
8
  0
LAYER
  2
INNER10
 70
64
  6
CONTINUOUS
 62
1
  0
LAYER
  2
INNER11
 70
64
  6
CONTINUOUS
 62
2
  0
LAYER
  2
INNER12
 70
64
  6
CONTINUOUS
 62
3
  0
LAYER
  2
INNER13
 70
64
  6
CONTINUOUS
 62
4
  0
LAYER
  2
INNER14
 70
64
  6
CONTINUOUS
 62
5
  0
LAYER
  2
INNER15
 70
64
  6
CONTINUOUS
 62
6
  0
LAYER
  2
INNER16
 70
64
  6
CONTINUOUS
 62
7
  0
LAYER
  2
SMTOP
 70
64
  6
CONTINUOUS
 62
8
  0
LAYER
  2
SMBOT
 70
64
  6
CONTINUOUS
 62
1
  0
LAYER
  2
SPTOP
 70
64
  6
CONTINUOUS
 62
2
  0
LAYER
  2
SPBOT
 70
64
  6
CONTINUOUS
 62
3
  0
LAYER
  2
SSTOP
 70
64
  6
CONTINUOUS
 62
4
  0
LAYER
  2
SSBOT
 70
64
  6
CONTINUOUS
 62
5
  0
LAYER
  2
ASYTOP
 70
64
  6
CONTINUOUS
 62
6
  0
LAYER
  2
ASYBOT
 70
64
  6
CONTINUOUS
 62
7
  0
LAYER
  2
DRLDWG
 70
64
  6
CONTINUOUS
 62
8
  0
LAYER
  2
DRILL
 70
64
  6
CONTINUOUS
 62
1
  0
LAYER
  2
FABDWG
 70
64
  6
CONTINUOUS
 62
2
  0
LAYER
  2
PHOTO
 70
64
  6
CONTINUOUS
 62
3
  0
LAYER
  2
HOLES
 70
64
  6
CONTINUOUS
 62
4
  0
LAYER
  2
TEXT_GLOBAL_LAYER
 70
64
  6
CONTINUOUS
 62
5
  0
LAYER
  2
TEXT_TOP
 70
64
  6
CONTINUOUS
 62
6
  0
LAYER
  2
TEXT_BOTTOM
 70
64
  6
CONTINUOUS
 62
7
  0
LAYER
  2
TEXT_GND
 70
64
  6
CONTINUOUS
 62
8
  0
LAYER
  2
TEXT_POWER
 70
64
  6
CONTINUOUS
 62
1
  0
LAYER
  2
TEXT_INNER
 70
64
  6
CONTINUOUS
 62
2
  0
LAYER
  2
TEXT_PLANE
 70
64
  6
CONTINUOUS
 62
3
  0
LAYER
  2
TEXT_INNER1
 70
64
  6
CONTINUOUS
 62
4
  0
LAYER
  2
TEXT_INNER2
 70
64
  6
CONTINUOUS
 62
5
  0
LAYER
  2
TEXT_INNER3
 70
64
  6
CONTINUOUS
 62
6
  0
LAYER
  2
TEXT_INNER4
 70
64
  6
CONTINUOUS
 62
7
  0
LAYER
  2
TEXT_INNER5
 70
64
  6
CONTINUOUS
 62
8
  0
LAYER
  2
TEXT_INNER6
 70
64
  6
CONTINUOUS
 62
1
  0
LAYER
  2
TEXT_INNER7
 70
64
  6
CONTINUOUS
 62
2
  0
LAYER
  2
TEXT_INNER8
 70
64
  6
CONTINUOUS
 62
3
  0
LAYER
  2
TEXT_INNER9
 70
64
  6
CONTINUOUS
 62
4
  0
LAYER
  2
TEXT_INNER10
 70
64
  6
CONTINUOUS
 62
5
  0
LAYER
  2
TEXT_INNER11
 70
64
  6
CONTINUOUS
 62
6
  0
LAYER
  2
TEXT_INNER12
 70
64
  6
CONTINUOUS
 62
7
  0
LAYER
  2
TEXT_INNER13
 70
64
  6
CONTINUOUS
 62
8
  0
LAYER
  2
TEXT_INNER14
 70
64
  6
CONTINUOUS
 62
1
  0
LAYER
  2
TEXT_INNER15
 70
64
  6
CONTINUOUS
 62
2
  0
LAYER
  2
TEXT_INNER16
 70
64
  6
CONTINUOUS
 62
3
  0
LAYER
  2
TEXT_SMTOP
 70
64
  6
CONTINUOUS
 62
4
  0
LAYER
  2
TEXT_SMBOT
 70
64
  6
CONTINUOUS
 62
5
  0
LAYER
  2
TEXT_SPTOP
 70
64
  6
CONTINUOUS
 62
6
  0
LAYER
  2
TEXT_SPBOT
 70
64
  6
CONTINUOUS
 62
7
  0
LAYER
  2
TEXT_SSTOP
 70
64
  6
CONTINUOUS
 62
8
  0
LAYER
  2
TEXT_SSBOT
 70
64
  6
CONTINUOUS
 62
1
  0
LAYER
  2
TEXT_ASYTOP
 70
64
  6
CONTINUOUS
 62
2
  0
LAYER
  2
TEXT_ASYBOT
 70
64
  6
CONTINUOUS
 62
3
  0
LAYER
  2
TEXT_DRLDWG
 70
64
  6
CONTINUOUS
 62
4
  0
LAYER
  2
TEXT_FABDWG
 70
64
  6
CONTINUOUS
 62
5
  0
LAYER
  2
TEXT_PHOTO
 70
64
  6
CONTINUOUS
 62
6
  0
LAYER
  2
TEXT_DRILL
 70
64
  6
CONTINUOUS
 62
7
  0
LAYER
  2
TEXT_HOLES
 70
64
  6
CONTINUOUS
 62
8
  0
LAYER
  2
OBS_GLOBAL_LAYER
 70
64
  6
CONTINUOUS
 62
1
  0
LAYER
  2
OBS_TOP
 70
64
  6
CONTINUOUS
 62
2
  0
LAYER
  2
OBS_BOTTOM
 70
64
  6
CONTINUOUS
 62
3
  0
LAYER
  2
OBS_GND
 70
64
  6
CONTINUOUS
 62
4
  0
LAYER
  2
OBS_POWER
 70
64
  6
CONTINUOUS
 62
5
  0
LAYER
  2
OBS_INNER
 70
64
  6
CONTINUOUS
 62
6
  0
LAYER
  2
OBS_PLANE
 70
64
  6
CONTINUOUS
 62
7
  0
LAYER
  2
OBS_INNER1
 70
64
  6
CONTINUOUS
 62
8
  0
LAYER
  2
OBS_INNER2
 70
64
  6
CONTINUOUS
 62
1
  0
LAYER
  2
OBS_INNER3
 70
64
  6
CONTINUOUS
 62
2
  0
LAYER
  2
OBS_INNER4
 70
64
  6
CONTINUOUS
 62
3
  0
LAYER
  2
OBS_INNER5
 70
64
  6
CONTINUOUS
 62
4
  0
LAYER
  2
OBS_INNER6
 70
64
  6
CONTINUOUS
 62
5
  0
LAYER
  2
OBS_INNER7
 70
64
  6
CONTINUOUS
 62
6
  0
LAYER
  2
OBS_INNER8
 70
64
  6
CONTINUOUS
 62
7
  0
LAYER
  2
OBS_INNER9
 70
64
  6
CONTINUOUS
 62
8
  0
LAYER
  2
OBS_INNER10
 70
64
  6
CONTINUOUS
 62
1
  0
LAYER
  2
OBS_INNER11
 70
64
  6
CONTINUOUS
 62
2
  0
LAYER
  2
OBS_INNER12
 70
64
  6
CONTINUOUS
 62
3
  0
LAYER
  2
OBS_INNER13
 70
64
  6
CONTINUOUS
 62
4
  0
LAYER
  2
OBS_INNER14
 70
64
  6
CONTINUOUS
 62
5
  0
LAYER
  2
OBS_INNER15
 70
64
  6
CONTINUOUS
 62
6
  0
LAYER
  2
OBS_INNER16
 70
64
  6
CONTINUOUS
 62
7
  0
LAYER
  2
OBS_SMTOP
 70
64
  6
CONTINUOUS
 62
8
  0
LAYER
  2
OBS_SMBOT
 70
64
  6
CONTINUOUS
 62
1
  0
LAYER
  2
OBS_SPTOP
 70
64
  6
CONTINUOUS
 62
2
  0
LAYER
  2
OBS_SPBOT
 70
64
  6
CONTINUOUS
 62
3
  0
LAYER
  2
OBS_SSTOP
 70
64
  6
CONTINUOUS
 62
4
  0
LAYER
  2
OBS_SSBOT
 70
64
  6
CONTINUOUS
 62
5
  0
LAYER
  2
OBS_ASYTOP
 70
64
  6
CONTINUOUS
 62
6
  0
LAYER
  2
OBS_ASYBOT
 70
64
  6
CONTINUOUS
 62
7
  0
LAYER
  2
OBS_DRLDWG
 70
64
  6
CONTINUOUS
 62
8
  0
LAYER
  2
OBS_DRILL
 70
64
  6
CONTINUOUS
 62
1
  0
LAYER
  2
OBS_FABDWG
 70
64
  6
CONTINUOUS
 62
2
  0
LAYER
  2
OBS_PHOTO
 70
64
  6
CONTINUOUS
 62
3
  0
LAYER
  2
OBS_HOLES
 70
64
  6
CONTINUOUS
 62
4
  0
LAYER
  2
COPPER_GLOBAL_LAYER
 70
64
  6
CONTINUOUS
 62
5
  0
LAYER
  2
COPPER_TOP
 70
64
  6
CONTINUOUS
 62
6
  0
LAYER
  2
COPPER_BOT
 70
64
  6
CONTINUOUS
 62
7
  0
LAYER
  2
COPPER_GND
 70
64
  6
CONTINUOUS
 62
8
  0
LAYER
  2
COPPER_POWER
 70
64
  6
CONTINUOUS
 62
1
  0
LAYER
  2
COPPER_INNER
 70
64
  6
CONTINUOUS
 62
2
  0
LAYER
  2
COPPER_PLANE
 70
64
  6
CONTINUOUS
 62
3
  0
LAYER
  2
COPPER_INNER1
 70
64
  6
CONTINUOUS
 62
4
  0
LAYER
  2
COPPER_INNER2
 70
64
  6
CONTINUOUS
 62
5
  0
LAYER
  2
COPPER_INNER3
 70
64
  6
CONTINUOUS
 62
6
  0
LAYER
  2
COPPER_INNER4
 70
64
  6
CONTINUOUS
 62
7
  0
LAYER
  2
COPPER_INNER5
 70
64
  6
CONTINUOUS
 62
8
  0
LAYER
  2
COPPER_INNER6
 70
64
  6
CONTINUOUS
 62
1
  0
LAYER
  2
COPPER_INNER7
 70
64
  6
CONTINUOUS
 62
2
  0
LAYER
  2
COPPER_INNER8
 70
64
  6
CONTINUOUS
 62
3
  0
LAYER
  2
COPPER_INNER9
 70
64
  6
CONTINUOUS
 62
4
  0
LAYER
  2
COPPER_INNER10
 70
64
  6
CONTINUOUS
 62
5
  0
LAYER
  2
COPPER_INNER11
 70
64
  6
CONTINUOUS
 62
6
  0
LAYER
  2
COPPER_INNER12
 70
64
  6
CONTINUOUS
 62
7
  0
LAYER
  2
COPPER_INNER13
 70
64
  6
CONTINUOUS
 62
8
  0
LAYER
  2
COPPER_INNER14
 70
64
  6
CONTINUOUS
 62
1
  0
LAYER
  2
COPPER_INNER15
 70
64
  6
CONTINUOUS
 62
2
  0
LAYER
  2
COPPER_INNER16
 70
64
  6
CONTINUOUS
 62
3
  0
LAYER
  2
COPPER_SMTOP
 70
64
  6
CONTINUOUS
 62
4
  0
LAYER
  2
COPPER_SMBOT
 70
64
  6
CONTINUOUS
 62
5
  0
LAYER
  2
COPPER_SPTOP
 70
64
  6
CONTINUOUS
 62
6
  0
LAYER
  2
COPPER_SPBOT
 70
64
  6
CONTINUOUS
 62
7
  0
LAYER
  2
COPPER_SSTOP
 70
64
  6
CONTINUOUS
 62
8
  0
LAYER
  2
COPPER_SSBOT
 70
64
  6
CONTINUOUS
 62
1
  0
LAYER
  2
COPPER_ASYTOP
 70
64
  6
CONTINUOUS
 62
2
  0
LAYER
  2
COPPER_ASYBOT
 70
64
  6
CONTINUOUS
 62
3
  0
LAYER
  2
COPPER_DRLDWG
 70
64
  6
CONTINUOUS
 62
4
  0
LAYER
  2
COPPER_DRILL
 70
64
  6
CONTINUOUS
 62
5
  0
LAYER
  2
COPPER_HOLES
 70
64
  6
CONTINUOUS
 62
6
  0
LAYER
  2
TRACKS_GLOBAL_LAYER
 70
64
  6
CONTINUOUS
 62
7
  0
LAYER
  2
TRACKS_TOP
 70
64
  6
CONTINUOUS
 62
8
  0
LAYER
  2
TRACKS_BOTTOM
 70
64
  6
CONTINUOUS
 62
1
  0
LAYER
  2
TRACKS_GND
 70
64
  6
CONTINUOUS
 62
2
  0
LAYER
  2
TRACKS_INNER
 70
64
  6
CONTINUOUS
 62
3
  0
LAYER
  2
TRACKS_PLANE
 70
64
  6
CONTINUOUS
 62
4
  0
LAYER
  2
TRACKS_POWER
 70
64
  6
CONTINUOUS
 62
5
  0
LAYER
  2
TRACKS_INNER1
 70
64
  6
CONTINUOUS
 62
6
  0
LAYER
  2
TRACKS_INNER2
 70
64
  6
CONTINUOUS
 62
7
  0
LAYER
  2
TRACKS_INNER3
 70
64
  6
CONTINUOUS
 62
8
  0
LAYER
  2
TRACKS_INNER4
 70
64
  6
CONTINUOUS
 62
1
  0
LAYER
  2
TRACKS_INNER5
 70
64
  6
CONTINUOUS
 62
2
  0
LAYER
  2
TRACKS_INNER6
 70
64
  6
CONTINUOUS
 62
3
  0
LAYER
  2
TRACKS_INNER7
 70
64
  6
CONTINUOUS
 62
4
  0
LAYER
  2
TRACKS_INNER8
 70
64
  6
CONTINUOUS
 62
5
  0
LAYER
  2
TRACKS_INNER9
 70
64
  6
CONTINUOUS
 62
6
  0
LAYER
  2
TRACKS_INNER10
 70
64
  6
CONTINUOUS
 62
7
  0
LAYER
  2
TRACKS_INNER11
 70
64
  6
CONTINUOUS
 62
8
  0
LAYER
  2
TRACKS_INNER12
 70
64
  6
CONTINUOUS
 62
1
  0
LAYER
  2
TRACKS_INNER13
 70
64
  6
CONTINUOUS
 62
2
  0
LAYER
  2
TRACKS_INNER14
 70
64
  6
CONTINUOUS
 62
3
  0
LAYER
  2
TRACKS_INNER15
 70
64
  6
CONTINUOUS
 62
4
  0
LAYER
  2
TRACKS_INNER16
 70
64
  6
CONTINUOUS
 62
5
  0
ENDTAB
  0
TABLE
  2
STYLE
 70
0
  0
ENDTAB
  0
ENDSEC
  0
SECTION
  2
BLOCKS
  0
BLOCK
  8
0
  2
viastack_VIA1
 10
0.0
 20
0.0
 30
0.0
 70
2
  0
POINT
  8
0
 10
  0
 20
  0
  0
POLYLINE
  8
TOP
 66
1
 70
1
 40
0.03000000000000001
 41
0.03000000000000001
  0
VERTEX
  8
TOP
 10
-0.015
 20
  0
 42
  1
  0
VERTEX
  8
TOP
 10
0.015
 20
  0
 42
  1
  0
SEQEND
  8
TOP
  0
POLYLINE
  8
BOTTOM
 66
1
 70
1
 40
0.03000000000000001
 41
0.03000000000000001
  0
VERTEX
  8
BOTTOM
 10
-0.015
 20
  0
 42
  1
  0
VERTEX
  8
BOTTOM
 10
0.015
 20
  0
 42
  1
  0
SEQEND
  8
BOTTOM
  0
POLYLINE
  8
GND
 66
1
 70
1
 40
0.03500000000000001
 41
0.03500000000000001
  0
VERTEX
  8
GND
 10
-0.01750000000000001
 20
  0
 42
  1
  0
VERTEX
  8
GND
 10
0.01750000000000001
 20
  0
 42
  1
  0
SEQEND
  8
GND
  0
POLYLINE
  8
POWER
 66
1
 70
1
 40
0.03500000000000001
 41
0.03500000000000001
  0
VERTEX
  8
POWER
 10
-0.01750000000000001
 20
  0
 42
  1
  0
VERTEX
  8
POWER
 10
0.01750000000000001
 20
  0
 42
  1
  0
SEQEND
  8
POWER
  0
POLYLINE
  8
INNER1
 66
1
 70
1
 40
0.03000000000000001
 41
0.03000000000000001
  0
VERTEX
  8
INNER1
 10
-0.015
 20
  0
 42
  1
  0
VERTEX
  8
INNER1
 10
0.015
 20
  0
 42
  1
  0
SEQEND
  8
INNER1
  0
POLYLINE
  8
INNER2
 66
1
 70
1
 40
0.03000000000000001
 41
0.03000000000000001
  0
VERTEX
  8
INNER2
 10
-0.015
 20
  0
 42
  1
  0
VERTEX
  8
INNER2
 10
0.015
 20
  0
 42
  1
  0
SEQEND
  8
INNER2
  0
POLYLINE
  8
INNER3
 66
1
 70
1
 40
0.03000000000000001
 41
0.03000000000000001
  0
VERTEX
  8
INNER3
 10
-0.015
 20
  0
 42
  1
  0
VERTEX
  8
INNER3
 10
0.015
 20
  0
 42
  1
  0
SEQEND
  8
INNER3
  0
POLYLINE
  8
INNER4
 66
1
 70
1
 40
0.03000000000000001
 41
0.03000000000000001
  0
VERTEX
  8
INNER4
 10
-0.015
 20
  0
 42
  1
  0
VERTEX
  8
INNER4
 10
0.015
 20
  0
 42
  1
  0
SEQEND
  8
INNER4
  0
POLYLINE
  8
INNER5
 66
1
 70
1
 40
0.03000000000000001
 41
0.03000000000000001
  0
VERTEX
  8
INNER5
 10
-0.015
 20
  0
 42
  1
  0
VERTEX
  8
INNER5
 10
0.015
 20
  0
 42
  1
  0
SEQEND
  8
INNER5
  0
POLYLINE
  8
INNER6
 66
1
 70
1
 40
0.03000000000000001
 41
0.03000000000000001
  0
VERTEX
  8
INNER6
 10
-0.015
 20
  0
 42
  1
  0
VERTEX
  8
INNER6
 10
0.015
 20
  0
 42
  1
  0
SEQEND
  8
INNER6
  0
POLYLINE
  8
INNER7
 66
1
 70
1
 40
0.03000000000000001
 41
0.03000000000000001
  0
VERTEX
  8
INNER7
 10
-0.015
 20
  0
 42
  1
  0
VERTEX
  8
INNER7
 10
0.015
 20
  0
 42
  1
  0
SEQEND
  8
INNER7
  0
POLYLINE
  8
INNER8
 66
1
 70
1
 40
0.03000000000000001
 41
0.03000000000000001
  0
VERTEX
  8
INNER8
 10
-0.015
 20
  0
 42
  1
  0
VERTEX
  8
INNER8
 10
0.015
 20
  0
 42
  1
  0
SEQEND
  8
INNER8
  0
POLYLINE
  8
INNER9
 66
1
 70
1
 40
0.03000000000000001
 41
0.03000000000000001
  0
VERTEX
  8
INNER9
 10
-0.015
 20
  0
 42
  1
  0
VERTEX
  8
INNER9
 10
0.015
 20
  0
 42
  1
  0
SEQEND
  8
INNER9
  0
POLYLINE
  8
INNER10
 66
1
 70
1
 40
0.03000000000000001
 41
0.03000000000000001
  0
VERTEX
  8
INNER10
 10
-0.015
 20
  0
 42
  1
  0
VERTEX
  8
INNER10
 10
0.015
 20
  0
 42
  1
  0
SEQEND
  8
INNER10
  0
POLYLINE
  8
INNER11
 66
1
 70
1
 40
0.03000000000000001
 41
0.03000000000000001
  0
VERTEX
  8
INNER11
 10
-0.015
 20
  0
 42
  1
  0
VERTEX
  8
INNER11
 10
0.015
 20
  0
 42
  1
  0
SEQEND
  8
INNER11
  0
POLYLINE
  8
INNER12
 66
1
 70
1
 40
0.03000000000000001
 41
0.03000000000000001
  0
VERTEX
  8
INNER12
 10
-0.015
 20
  0
 42
  1
  0
VERTEX
  8
INNER12
 10
0.015
 20
  0
 42
  1
  0
SEQEND
  8
INNER12
  0
POLYLINE
  8
SMTOP
 66
1
 70
1
 40
0.03250000000000001
 41
0.03250000000000001
  0
VERTEX
  8
SMTOP
 10
-0.01625
 20
  0
 42
  1
  0
VERTEX
  8
SMTOP
 10
0.01625
 20
  0
 42
  1
  0
SEQEND
  8
SMTOP
  0
POLYLINE
  8
SMBOT
 66
1
 70
1
 40
0.03250000000000001
 41
0.03250000000000001
  0
VERTEX
  8
SMBOT
 10
-0.01625
 20
  0
 42
  1
  0
VERTEX
  8
SMBOT
 10
0.01625
 20
  0
 42
  1
  0
SEQEND
  8
SMBOT
  0
POLYLINE
  8
DRLDWG
 66
1
 70
1
 40
0.01750000000000001
 41
0.01750000000000001
  0
VERTEX
  8
DRLDWG
 10
-0.008750000000000003
 20
  0
 42
  1
  0
VERTEX
  8
DRLDWG
 10
0.008750000000000003
 20
  0
 42
  1
  0
SEQEND
  8
DRLDWG
  0
POLYLINE
  8
DRILL
 66
1
 70
1
 40
0.01750000000000001
 41
0.01750000000000001
  0
VERTEX
  8
DRILL
 10
-0.008750000000000003
 20
  0
 42
  1
  0
VERTEX
  8
DRILL
 10
0.008750000000000003
 20
  0
 42
  1
  0
SEQEND
  8
DRILL
  0
POLYLINE
  8
FABDWG
 66
1
 70
1
 40
0.03000000000000001
 41
0.03000000000000001
  0
VERTEX
  8
FABDWG
 10
-0.015
 20
  0
 42
  1
  0
VERTEX
  8
FABDWG
 10
0.015
 20
  0
 42
  1
  0
SEQEND
  8
FABDWG
  0
POLYLINE
  8
NOTES
 66
1
 70
1
 40
0.03000000000000001
 41
0.03000000000000001
  0
VERTEX
  8
NOTES
 10
-0.015
 20
  0
 42
  1
  0
VERTEX
  8
NOTES
 10
0.015
 20
  0
 42
  1
  0
SEQEND
  8
NOTES
  0
ENDBLK
  0
BLOCK
  8
0
  2
viastack_VIA2
 10
0.0
 20
0.0
 30
0.0
 70
2
  0
POINT
  8
0
 10
  0
 20
  0
  0
ENDBLK
  0
BLOCK
  8
0
  2
viastack_VIA3
 10
0.0
 20
0.0
 30
0.0
 70
2
  0
POINT
  8
0
 10
  0
 20
  0
  0
ENDBLK
  0
BLOCK
  8
0
  2
viastack_VIA4
 10
0.0
 20
0.0
 30
0.0
 70
2
  0
POINT
  8
0
 10
  0
 20
  0
  0
ENDBLK
  0
BLOCK
  8
0
  2
viastack_VIA5
 10
0.0
 20
0.0
 30
0.0
 70
2
  0
POINT
  8
0
 10
  0
 20
  0
  0
ENDBLK
  0
BLOCK
  8
0
  2
viastack_VIA6
 10
0.0
 20
0.0
 30
0.0
 70
2
  0
POINT
  8
0
 10
  0
 20
  0
  0
ENDBLK
  0
BLOCK
  8
0
  2
viastack_VIA7
 10
0.0
 20
0.0
 30
0.0
 70
2
  0
POINT
  8
0
 10
  0
 20
  0
  0
ENDBLK
  0
BLOCK
  8
0
  2
viastack_VIA8
 10
0.0
 20
0.0
 30
0.0
 70
2
  0
POINT
  8
0
 10
  0
 20
  0
  0
ENDBLK
  0
BLOCK
  8
0
  2
viastack_VIA9
 10
0.0
 20
0.0
 30
0.0
 70
2
  0
POINT
  8
0
 10
  0
 20
  0
  0
ENDBLK
  0
BLOCK
  8
0
  2
viastack_VIA10
 10
0.0
 20
0.0
 30
0.0
 70
2
  0
POINT
  8
0
 10
  0
 20
  0
  0
ENDBLK
  0
BLOCK
  8
0
  2
viastack_VIA11
 10
0.0
 20
0.0
 30
0.0
 70
2
  0
POINT
  8
0
 10
  0
 20
  0
  0
ENDBLK
  0
BLOCK
  8
0
  2
viastack_VIA12
 10
0.0
 20
0.0
 30
0.0
 70
2
  0
POINT
  8
0
 10
  0
 20
  0
  0
ENDBLK
  0
BLOCK
  8
0
  2
viastack_VIA13
 10
0.0
 20
0.0
 30
0.0
 70
2
  0
POINT
  8
0
 10
  0
 20
  0
  0
ENDBLK
  0
BLOCK
  8
0
  2
viastack_VIA14
 10
0.0
 20
0.0
 30
0.0
 70
2
  0
POINT
  8
0
 10
  0
 20
  0
  0
ENDBLK
  0
BLOCK
  8
0
  2
viastack_VIA15
 10
0.0
 20
0.0
 30
0.0
 70
2
  0
POINT
  8
0
 10
  0
 20
  0
  0
ENDBLK
  0
BLOCK
  8
0
  2
viastack_VIA16
 10
0.0
 20
0.0
 30
0.0
 70
2
  0
POINT
  8
0
 10
  0
 20
  0
  0
ENDBLK
  0
BLOCK
  8
0
  2
padstack_T1
 10
0.0
 20
0.0
 30
0.0
 70
2
  0
POINT
  8
0
 10
  0
 20
  0
  0
POLYLINE
  8
TOP
 66
1
 70
1
 40
0.03100000000000001
 41
0.03100000000000001
  0
VERTEX
  8
TOP
 10
-0.0155
 20
  0
 42
  1
  0
VERTEX
  8
TOP
 10
0.0155
 20
  0
 42
  1
  0
SEQEND
  8
TOP
  0
POLYLINE
  8
BOTTOM
 66
1
 70
1
 40
0.03100000000000001
 41
0.03100000000000001
  0
VERTEX
  8
BOTTOM
 10
-0.0155
 20
  0
 42
  1
  0
VERTEX
  8
BOTTOM
 10
0.0155
 20
  0
 42
  1
  0
SEQEND
  8
BOTTOM
  0
POLYLINE
  8
GND
 66
1
 70
1
 40
0.03500000000000001
 41
0.03500000000000001
  0
VERTEX
  8
GND
 10
-0.01750000000000001
 20
  0
 42
  1
  0
VERTEX
  8
GND
 10
0.01750000000000001
 20
  0
 42
  1
  0
SEQEND
  8
GND
  0
POLYLINE
  8
POWER
 66
1
 70
1
 40
0.03500000000000001
 41
0.03500000000000001
  0
VERTEX
  8
POWER
 10
-0.01750000000000001
 20
  0
 42
  1
  0
VERTEX
  8
POWER
 10
0.01750000000000001
 20
  0
 42
  1
  0
SEQEND
  8
POWER
  0
POLYLINE
  8
INNER1
 66
1
 70
1
 40
0.03100000000000001
 41
0.03100000000000001
  0
VERTEX
  8
INNER1
 10
-0.0155
 20
  0
 42
  1
  0
VERTEX
  8
INNER1
 10
0.0155
 20
  0
 42
  1
  0
SEQEND
  8
INNER1
  0
POLYLINE
  8
INNER2
 66
1
 70
1
 40
0.03100000000000001
 41
0.03100000000000001
  0
VERTEX
  8
INNER2
 10
-0.0155
 20
  0
 42
  1
  0
VERTEX
  8
INNER2
 10
0.0155
 20
  0
 42
  1
  0
SEQEND
  8
INNER2
  0
POLYLINE
  8
INNER3
 66
1
 70
1
 40
0.03100000000000001
 41
0.03100000000000001
  0
VERTEX
  8
INNER3
 10
-0.0155
 20
  0
 42
  1
  0
VERTEX
  8
INNER3
 10
0.0155
 20
  0
 42
  1
  0
SEQEND
  8
INNER3
  0
POLYLINE
  8
INNER4
 66
1
 70
1
 40
0.03100000000000001
 41
0.03100000000000001
  0
VERTEX
  8
INNER4
 10
-0.0155
 20
  0
 42
  1
  0
VERTEX
  8
INNER4
 10
0.0155
 20
  0
 42
  1
  0
SEQEND
  8
INNER4
  0
POLYLINE
  8
INNER5
 66
1
 70
1
 40
0.03100000000000001
 41
0.03100000000000001
  0
VERTEX
  8
INNER5
 10
-0.0155
 20
  0
 42
  1
  0
VERTEX
  8
INNER5
 10
0.0155
 20
  0
 42
  1
  0
SEQEND
  8
INNER5
  0
POLYLINE
  8
INNER6
 66
1
 70
1
 40
0.03100000000000001
 41
0.03100000000000001
  0
VERTEX
  8
INNER6
 10
-0.0155
 20
  0
 42
  1
  0
VERTEX
  8
INNER6
 10
0.0155
 20
  0
 42
  1
  0
SEQEND
  8
INNER6
  0
POLYLINE
  8
INNER7
 66
1
 70
1
 40
0.03100000000000001
 41
0.03100000000000001
  0
VERTEX
  8
INNER7
 10
-0.0155
 20
  0
 42
  1
  0
VERTEX
  8
INNER7
 10
0.0155
 20
  0
 42
  1
  0
SEQEND
  8
INNER7
  0
POLYLINE
  8
INNER8
 66
1
 70
1
 40
0.03100000000000001
 41
0.03100000000000001
  0
VERTEX
  8
INNER8
 10
-0.0155
 20
  0
 42
  1
  0
VERTEX
  8
INNER8
 10
0.0155
 20
  0
 42
  1
  0
SEQEND
  8
INNER8
  0
POLYLINE
  8
INNER9
 66
1
 70
1
 40
0.03100000000000001
 41
0.03100000000000001
  0
VERTEX
  8
INNER9
 10
-0.0155
 20
  0
 42
  1
  0
VERTEX
  8
INNER9
 10
0.0155
 20
  0
 42
  1
  0
SEQEND
  8
INNER9
  0
POLYLINE
  8
INNER10
 66
1
 70
1
 40
0.03100000000000001
 41
0.03100000000000001
  0
VERTEX
  8
INNER10
 10
-0.0155
 20
  0
 42
  1
  0
VERTEX
  8
INNER10
 10
0.0155
 20
  0
 42
  1
  0
SEQEND
  8
INNER10
  0
POLYLINE
  8
INNER11
 66
1
 70
1
 40
0.03100000000000001
 41
0.03100000000000001
  0
VERTEX
  8
INNER11
 10
-0.0155
 20
  0
 42
  1
  0
VERTEX
  8
INNER11
 10
0.0155
 20
  0
 42
  1
  0
SEQEND
  8
INNER11
  0
POLYLINE
  8
INNER12
 66
1
 70
1
 40
0.03100000000000001
 41
0.03100000000000001
  0
VERTEX
  8
INNER12
 10
-0.0155
 20
  0
 42
  1
  0
VERTEX
  8
INNER12
 10
0.0155
 20
  0
 42
  1
  0
SEQEND
  8
INNER12
  0
POLYLINE
  8
SMTOP
 66
1
 70
1
 40
0.03350000000000001
 41
0.03350000000000001
  0
VERTEX
  8
SMTOP
 10
-0.01675
 20
  0
 42
  1
  0
VERTEX
  8
SMTOP
 10
0.01675
 20
  0
 42
  1
  0
SEQEND
  8
SMTOP
  0
POLYLINE
  8
SMBOT
 66
1
 70
1
 40
0.03350000000000001
 41
0.03350000000000001
  0
VERTEX
  8
SMBOT
 10
-0.01675
 20
  0
 42
  1
  0
VERTEX
  8
SMBOT
 10
0.01675
 20
  0
 42
  1
  0
SEQEND
  8
SMBOT
  0
POLYLINE
  8
DRLDWG
 66
1
 70
1
 40
0.01900000000000001
 41
0.01900000000000001
  0
VERTEX
  8
DRLDWG
 10
-0.009500000000000003
 20
  0
 42
  1
  0
VERTEX
  8
DRLDWG
 10
0.009500000000000003
 20
  0
 42
  1
  0
SEQEND
  8
DRLDWG
  0
POLYLINE
  8
DRILL
 66
1
 70
1
 40
0.01900000000000001
 41
0.01900000000000001
  0
VERTEX
  8
DRILL
 10
-0.009500000000000003
 20
  0
 42
  1
  0
VERTEX
  8
DRILL
 10
0.009500000000000003
 20
  0
 42
  1
  0
SEQEND
  8
DRILL
  0
POLYLINE
  8
FABDWG
 66
1
 70
1
 40
0.03100000000000001
 41
0.03100000000000001
  0
VERTEX
  8
FABDWG
 10
-0.0155
 20
  0
 42
  1
  0
VERTEX
  8
FABDWG
 10
0.0155
 20
  0
 42
  1
  0
SEQEND
  8
FABDWG
  0
POLYLINE
  8
NOTES
 66
1
 70
1
 40
0.03100000000000001
 41
0.03100000000000001
  0
VERTEX
  8
NOTES
 10
-0.0155
 20
  0
 42
  1
  0
VERTEX
  8
NOTES
 10
0.0155
 20
  0
 42
  1
  0
SEQEND
  8
NOTES
  0
ENDBLK
  0
BLOCK
  8
0
  2
padstack_T2
 10
0.0
 20
0.0
 30
0.0
 70
2
  0
POINT
  8
0
 10
  0
 20
  0
  0
POLYLINE
  8
TOP
 66
1
 70
0
 40
0.06200000000000001
 41
0.06200000000000001
  0
VERTEX
  8
TOP
 10
-0.03100000000000001
 20
  0
  0
VERTEX
  8
TOP
 10
0.03100000000000001
 20
  0
  0
SEQEND
  8
TOP
  0
POLYLINE
  8
BOTTOM
 66
1
 70
1
 40
0.03100000000000001
 41
0.03100000000000001
  0
VERTEX
  8
BOTTOM
 10
-0.0155
 20
  0
 42
  1
  0
VERTEX
  8
BOTTOM
 10
0.0155
 20
  0
 42
  1
  0
SEQEND
  8
BOTTOM
  0
POLYLINE
  8
GND
 66
1
 70
1
 40
0.03500000000000001
 41
0.03500000000000001
  0
VERTEX
  8
GND
 10
-0.01750000000000001
 20
  0
 42
  1
  0
VERTEX
  8
GND
 10
0.01750000000000001
 20
  0
 42
  1
  0
SEQEND
  8
GND
  0
POLYLINE
  8
POWER
 66
1
 70
1
 40
0.03500000000000001
 41
0.03500000000000001
  0
VERTEX
  8
POWER
 10
-0.01750000000000001
 20
  0
 42
  1
  0
VERTEX
  8
POWER
 10
0.01750000000000001
 20
  0
 42
  1
  0
SEQEND
  8
POWER
  0
POLYLINE
  8
INNER1
 66
1
 70
1
 40
0.03100000000000001
 41
0.03100000000000001
  0
VERTEX
  8
INNER1
 10
-0.0155
 20
  0
 42
  1
  0
VERTEX
  8
INNER1
 10
0.0155
 20
  0
 42
  1
  0
SEQEND
  8
INNER1
  0
POLYLINE
  8
INNER2
 66
1
 70
1
 40
0.03100000000000001
 41
0.03100000000000001
  0
VERTEX
  8
INNER2
 10
-0.0155
 20
  0
 42
  1
  0
VERTEX
  8
INNER2
 10
0.0155
 20
  0
 42
  1
  0
SEQEND
  8
INNER2
  0
POLYLINE
  8
INNER3
 66
1
 70
1
 40
0.03100000000000001
 41
0.03100000000000001
  0
VERTEX
  8
INNER3
 10
-0.0155
 20
  0
 42
  1
  0
VERTEX
  8
INNER3
 10
0.0155
 20
  0
 42
  1
  0
SEQEND
  8
INNER3
  0
POLYLINE
  8
INNER4
 66
1
 70
1
 40
0.03100000000000001
 41
0.03100000000000001
  0
VERTEX
  8
INNER4
 10
-0.0155
 20
  0
 42
  1
  0
VERTEX
  8
INNER4
 10
0.0155
 20
  0
 42
  1
  0
SEQEND
  8
INNER4
  0
POLYLINE
  8
INNER5
 66
1
 70
1
 40
0.03100000000000001
 41
0.03100000000000001
  0
VERTEX
  8
INNER5
 10
-0.0155
 20
  0
 42
  1
  0
VERTEX
  8
INNER5
 10
0.0155
 20
  0
 42
  1
  0
SEQEND
  8
INNER5
  0
POLYLINE
  8
INNER6
 66
1
 70
1
 40
0.03100000000000001
 41
0.03100000000000001
  0
VERTEX
  8
INNER6
 10
-0.0155
 20
  0
 42
  1
  0
VERTEX
  8
INNER6
 10
0.0155
 20
  0
 42
  1
  0
SEQEND
  8
INNER6
  0
POLYLINE
  8
INNER7
 66
1
 70
1
 40
0.03100000000000001
 41
0.03100000000000001
  0
VERTEX
  8
INNER7
 10
-0.0155
 20
  0
 42
  1
  0
VERTEX
  8
INNER7
 10
0.0155
 20
  0
 42
  1
  0
SEQEND
  8
INNER7
  0
POLYLINE
  8
INNER8
 66
1
 70
1
 40
0.03100000000000001
 41
0.03100000000000001
  0
VERTEX
  8
INNER8
 10
-0.0155
 20
  0
 42
  1
  0
VERTEX
  8
INNER8
 10
0.0155
 20
  0
 42
  1
  0
SEQEND
  8
INNER8
  0
POLYLINE
  8
INNER9
 66
1
 70
1
 40
0.03100000000000001
 41
0.03100000000000001
  0
VERTEX
  8
INNER9
 10
-0.0155
 20
  0
 42
  1
  0
VERTEX
  8
INNER9
 10
0.0155
 20
  0
 42
  1
  0
SEQEND
  8
INNER9
  0
POLYLINE
  8
INNER10
 66
1
 70
1
 40
0.03100000000000001
 41
0.03100000000000001
  0
VERTEX
  8
INNER10
 10
-0.0155
 20
  0
 42
  1
  0
VERTEX
  8
INNER10
 10
0.0155
 20
  0
 42
  1
  0
SEQEND
  8
INNER10
  0
POLYLINE
  8
INNER11
 66
1
 70
1
 40
0.03100000000000001
 41
0.03100000000000001
  0
VERTEX
  8
INNER11
 10
-0.0155
 20
  0
 42
  1
  0
VERTEX
  8
INNER11
 10
0.0155
 20
  0
 42
  1
  0
SEQEND
  8
INNER11
  0
POLYLINE
  8
INNER12
 66
1
 70
1
 40
0.03100000000000001
 41
0.03100000000000001
  0
VERTEX
  8
INNER12
 10
-0.0155
 20
  0
 42
  1
  0
VERTEX
  8
INNER12
 10
0.0155
 20
  0
 42
  1
  0
SEQEND
  8
INNER12
  0
POLYLINE
  8
SMTOP
 66
1
 70
0
 40
0.06700000000000002
 41
0.06700000000000002
  0
VERTEX
  8
SMTOP
 10
-0.03350000000000001
 20
  0
  0
VERTEX
  8
SMTOP
 10
0.03350000000000001
 20
  0
  0
SEQEND
  8
SMTOP
  0
POLYLINE
  8
SMBOT
 66
1
 70
1
 40
0.03350000000000001
 41
0.03350000000000001
  0
VERTEX
  8
SMBOT
 10
-0.01675
 20
  0
 42
  1
  0
VERTEX
  8
SMBOT
 10
0.01675
 20
  0
 42
  1
  0
SEQEND
  8
SMBOT
  0
POLYLINE
  8
DRLDWG
 66
1
 70
1
 40
0.01900000000000001
 41
0.01900000000000001
  0
VERTEX
  8
DRLDWG
 10
-0.009500000000000003
 20
  0
 42
  1
  0
VERTEX
  8
DRLDWG
 10
0.009500000000000003
 20
  0
 42
  1
  0
SEQEND
  8
DRLDWG
  0
POLYLINE
  8
DRILL
 66
1
 70
1
 40
0.01900000000000001
 41
0.01900000000000001
  0
VERTEX
  8
DRILL
 10
-0.009500000000000003
 20
  0
 42
  1
  0
VERTEX
  8
DRILL
 10
0.009500000000000003
 20
  0
 42
  1
  0
SEQEND
  8
DRILL
  0
POLYLINE
  8
FABDWG
 66
1
 70
1
 40
0.03100000000000001
 41
0.03100000000000001
  0
VERTEX
  8
FABDWG
 10
-0.0155
 20
  0
 42
  1
  0
VERTEX
  8
FABDWG
 10
0.0155
 20
  0
 42
  1
  0
SEQEND
  8
FABDWG
  0
POLYLINE
  8
NOTES
 66
1
 70
1
 40
0.03100000000000001
 41
0.03100000000000001
  0
VERTEX
  8
NOTES
 10
-0.0155
 20
  0
 42
  1
  0
VERTEX
  8
NOTES
 10
0.0155
 20
  0
 42
  1
  0
SEQEND
  8
NOTES
  0
ENDBLK
  0
BLOCK
  8
0
  2
padstack_T7
 10
0.0
 20
0.0
 30
0.0
 70
2
  0
POINT
  8
0
 10
  0
 20
  0
  0
POLYLINE
  8
TOP
 66
1
 70
1
 40
0.02
 41
0.02
  0
VERTEX
  8
TOP
 10
-0.01
 20
  0
 42
  1
  0
VERTEX
  8
TOP
 10
0.01
 20
  0
 42
  1
  0
SEQEND
  8
TOP
  0
POLYLINE
  8
BOTTOM
 66
1
 70
1
 40
0.02
 41
0.02
  0
VERTEX
  8
BOTTOM
 10
-0.01
 20
  0
 42
  1
  0
VERTEX
  8
BOTTOM
 10
0.01
 20
  0
 42
  1
  0
SEQEND
  8
BOTTOM
  0
POLYLINE
  8
GND
 66
1
 70
1
 40
0.02500000000000001
 41
0.02500000000000001
  0
VERTEX
  8
GND
 10
-0.0125
 20
  0
 42
  1
  0
VERTEX
  8
GND
 10
0.0125
 20
  0
 42
  1
  0
SEQEND
  8
GND
  0
POLYLINE
  8
POWER
 66
1
 70
1
 40
0.02500000000000001
 41
0.02500000000000001
  0
VERTEX
  8
POWER
 10
-0.0125
 20
  0
 42
  1
  0
VERTEX
  8
POWER
 10
0.0125
 20
  0
 42
  1
  0
SEQEND
  8
POWER
  0
POLYLINE
  8
INNER1
 66
1
 70
1
 40
0.02
 41
0.02
  0
VERTEX
  8
INNER1
 10
-0.01
 20
  0
 42
  1
  0
VERTEX
  8
INNER1
 10
0.01
 20
  0
 42
  1
  0
SEQEND
  8
INNER1
  0
POLYLINE
  8
INNER2
 66
1
 70
1
 40
0.02
 41
0.02
  0
VERTEX
  8
INNER2
 10
-0.01
 20
  0
 42
  1
  0
VERTEX
  8
INNER2
 10
0.01
 20
  0
 42
  1
  0
SEQEND
  8
INNER2
  0
POLYLINE
  8
INNER3
 66
1
 70
1
 40
0.02
 41
0.02
  0
VERTEX
  8
INNER3
 10
-0.01
 20
  0
 42
  1
  0
VERTEX
  8
INNER3
 10
0.01
 20
  0
 42
  1
  0
SEQEND
  8
INNER3
  0
POLYLINE
  8
INNER4
 66
1
 70
1
 40
0.02
 41
0.02
  0
VERTEX
  8
INNER4
 10
-0.01
 20
  0
 42
  1
  0
VERTEX
  8
INNER4
 10
0.01
 20
  0
 42
  1
  0
SEQEND
  8
INNER4
  0
POLYLINE
  8
INNER5
 66
1
 70
1
 40
0.02
 41
0.02
  0
VERTEX
  8
INNER5
 10
-0.01
 20
  0
 42
  1
  0
VERTEX
  8
INNER5
 10
0.01
 20
  0
 42
  1
  0
SEQEND
  8
INNER5
  0
POLYLINE
  8
INNER6
 66
1
 70
1
 40
0.02
 41
0.02
  0
VERTEX
  8
INNER6
 10
-0.01
 20
  0
 42
  1
  0
VERTEX
  8
INNER6
 10
0.01
 20
  0
 42
  1
  0
SEQEND
  8
INNER6
  0
POLYLINE
  8
INNER7
 66
1
 70
1
 40
0.02
 41
0.02
  0
VERTEX
  8
INNER7
 10
-0.01
 20
  0
 42
  1
  0
VERTEX
  8
INNER7
 10
0.01
 20
  0
 42
  1
  0
SEQEND
  8
INNER7
  0
POLYLINE
  8
INNER8
 66
1
 70
1
 40
0.02
 41
0.02
  0
VERTEX
  8
INNER8
 10
-0.01
 20
  0
 42
  1
  0
VERTEX
  8
INNER8
 10
0.01
 20
  0
 42
  1
  0
SEQEND
  8
INNER8
  0
POLYLINE
  8
INNER9
 66
1
 70
1
 40
0.02
 41
0.02
  0
VERTEX
  8
INNER9
 10
-0.01
 20
  0
 42
  1
  0
VERTEX
  8
INNER9
 10
0.01
 20
  0
 42
  1
  0
SEQEND
  8
INNER9
  0
POLYLINE
  8
INNER10
 66
1
 70
1
 40
0.02
 41
0.02
  0
VERTEX
  8
INNER10
 10
-0.01
 20
  0
 42
  1
  0
VERTEX
  8
INNER10
 10
0.01
 20
  0
 42
  1
  0
SEQEND
  8
INNER10
  0
POLYLINE
  8
INNER11
 66
1
 70
1
 40
0.02
 41
0.02
  0
VERTEX
  8
INNER11
 10
-0.01
 20
  0
 42
  1
  0
VERTEX
  8
INNER11
 10
0.01
 20
  0
 42
  1
  0
SEQEND
  8
INNER11
  0
POLYLINE
  8
INNER12
 66
1
 70
1
 40
0.02
 41
0.02
  0
VERTEX
  8
INNER12
 10
-0.01
 20
  0
 42
  1
  0
VERTEX
  8
INNER12
 10
0.01
 20
  0
 42
  1
  0
SEQEND
  8
INNER12
  0
POLYLINE
  8
SMTOP
 66
1
 70
1
 40
0.02350000000000001
 41
0.02350000000000001
  0
VERTEX
  8
SMTOP
 10
-0.01175
 20
  0
 42
  1
  0
VERTEX
  8
SMTOP
 10
0.01175
 20
  0
 42
  1
  0
SEQEND
  8
SMTOP
  0
POLYLINE
  8
SMBOT
 66
1
 70
1
 40
0.02350000000000001
 41
0.02350000000000001
  0
VERTEX
  8
SMBOT
 10
-0.01175
 20
  0
 42
  1
  0
VERTEX
  8
SMBOT
 10
0.01175
 20
  0
 42
  1
  0
SEQEND
  8
SMBOT
  0
POLYLINE
  8
DRLDWG
 66
1
 70
1
 40
0.011
 41
0.011
  0
VERTEX
  8
DRLDWG
 10
-0.005500000000000001
 20
  0
 42
  1
  0
VERTEX
  8
DRLDWG
 10
0.005500000000000001
 20
  0
 42
  1
  0
SEQEND
  8
DRLDWG
  0
POLYLINE
  8
DRILL
 66
1
 70
1
 40
0.011
 41
0.011
  0
VERTEX
  8
DRILL
 10
-0.005500000000000001
 20
  0
 42
  1
  0
VERTEX
  8
DRILL
 10
0.005500000000000001
 20
  0
 42
  1
  0
SEQEND
  8
DRILL
  0
POLYLINE
  8
FABDWG
 66
1
 70
1
 40
0.02
 41
0.02
  0
VERTEX
  8
FABDWG
 10
-0.01
 20
  0
 42
  1
  0
VERTEX
  8
FABDWG
 10
0.01
 20
  0
 42
  1
  0
SEQEND
  8
FABDWG
  0
POLYLINE
  8
NOTES
 66
1
 70
1
 40
0.02
 41
0.02
  0
VERTEX
  8
NOTES
 10
-0.01
 20
  0
 42
  1
  0
VERTEX
  8
NOTES
 10
0.01
 20
  0
 42
  1
  0
SEQEND
  8
NOTES
  0
ENDBLK
  0
BLOCK
  8
0
  2
padstack_J1
 10
0.0
 20
0.0
 30
0.0
 70
2
  0
POINT
  8
0
 10
  0
 20
  0
  0
POLYLINE
  8
TOP
 66
1
 70
1
 40
0.03000000000000001
 41
0.03000000000000001
  0
VERTEX
  8
TOP
 10
-0.015
 20
  0
 42
  1
  0
VERTEX
  8
TOP
 10
0.015
 20
  0
 42
  1
  0
SEQEND
  8
TOP
  0
POLYLINE
  8
BOTTOM
 66
1
 70
1
 40
0.03000000000000001
 41
0.03000000000000001
  0
VERTEX
  8
BOTTOM
 10
-0.015
 20
  0
 42
  1
  0
VERTEX
  8
BOTTOM
 10
0.015
 20
  0
 42
  1
  0
SEQEND
  8
BOTTOM
  0
POLYLINE
  8
GND
 66
1
 70
1
 40
0.03500000000000001
 41
0.03500000000000001
  0
VERTEX
  8
GND
 10
-0.01750000000000001
 20
  0
 42
  1
  0
VERTEX
  8
GND
 10
0.01750000000000001
 20
  0
 42
  1
  0
SEQEND
  8
GND
  0
POLYLINE
  8
POWER
 66
1
 70
1
 40
0.03500000000000001
 41
0.03500000000000001
  0
VERTEX
  8
POWER
 10
-0.01750000000000001
 20
  0
 42
  1
  0
VERTEX
  8
POWER
 10
0.01750000000000001
 20
  0
 42
  1
  0
SEQEND
  8
POWER
  0
POLYLINE
  8
INNER1
 66
1
 70
1
 40
0.03000000000000001
 41
0.03000000000000001
  0
VERTEX
  8
INNER1
 10
-0.015
 20
  0
 42
  1
  0
VERTEX
  8
INNER1
 10
0.015
 20
  0
 42
  1
  0
SEQEND
  8
INNER1
  0
POLYLINE
  8
INNER2
 66
1
 70
1
 40
0.03000000000000001
 41
0.03000000000000001
  0
VERTEX
  8
INNER2
 10
-0.015
 20
  0
 42
  1
  0
VERTEX
  8
INNER2
 10
0.015
 20
  0
 42
  1
  0
SEQEND
  8
INNER2
  0
POLYLINE
  8
INNER3
 66
1
 70
1
 40
0.03000000000000001
 41
0.03000000000000001
  0
VERTEX
  8
INNER3
 10
-0.015
 20
  0
 42
  1
  0
VERTEX
  8
INNER3
 10
0.015
 20
  0
 42
  1
  0
SEQEND
  8
INNER3
  0
POLYLINE
  8
INNER4
 66
1
 70
1
 40
0.03000000000000001
 41
0.03000000000000001
  0
VERTEX
  8
INNER4
 10
-0.015
 20
  0
 42
  1
  0
VERTEX
  8
INNER4
 10
0.015
 20
  0
 42
  1
  0
SEQEND
  8
INNER4
  0
POLYLINE
  8
INNER5
 66
1
 70
1
 40
0.03000000000000001
 41
0.03000000000000001
  0
VERTEX
  8
INNER5
 10
-0.015
 20
  0
 42
  1
  0
VERTEX
  8
INNER5
 10
0.015
 20
  0
 42
  1
  0
SEQEND
  8
INNER5
  0
POLYLINE
  8
INNER6
 66
1
 70
1
 40
0.03000000000000001
 41
0.03000000000000001
  0
VERTEX
  8
INNER6
 10
-0.015
 20
  0
 42
  1
  0
VERTEX
  8
INNER6
 10
0.015
 20
  0
 42
  1
  0
SEQEND
  8
INNER6
  0
POLYLINE
  8
INNER7
 66
1
 70
1
 40
0.03000000000000001
 41
0.03000000000000001
  0
VERTEX
  8
INNER7
 10
-0.015
 20
  0
 42
  1
  0
VERTEX
  8
INNER7
 10
0.015
 20
  0
 42
  1
  0
SEQEND
  8
INNER7
  0
POLYLINE
  8
INNER8
 66
1
 70
1
 40
0.03000000000000001
 41
0.03000000000000001
  0
VERTEX
  8
INNER8
 10
-0.015
 20
  0
 42
  1
  0
VERTEX
  8
INNER8
 10
0.015
 20
  0
 42
  1
  0
SEQEND
  8
INNER8
  0
POLYLINE
  8
INNER9
 66
1
 70
1
 40
0.03000000000000001
 41
0.03000000000000001
  0
VERTEX
  8
INNER9
 10
-0.015
 20
  0
 42
  1
  0
VERTEX
  8
INNER9
 10
0.015
 20
  0
 42
  1
  0
SEQEND
  8
INNER9
  0
POLYLINE
  8
INNER10
 66
1
 70
1
 40
0.03000000000000001
 41
0.03000000000000001
  0
VERTEX
  8
INNER10
 10
-0.015
 20
  0
 42
  1
  0
VERTEX
  8
INNER10
 10
0.015
 20
  0
 42
  1
  0
SEQEND
  8
INNER10
  0
POLYLINE
  8
INNER11
 66
1
 70
1
 40
0.03000000000000001
 41
0.03000000000000001
  0
VERTEX
  8
INNER11
 10
-0.015
 20
  0
 42
  1
  0
VERTEX
  8
INNER11
 10
0.015
 20
  0
 42
  1
  0
SEQEND
  8
INNER11
  0
POLYLINE
  8
INNER12
 66
1
 70
1
 40
0.03000000000000001
 41
0.03000000000000001
  0
VERTEX
  8
INNER12
 10
-0.015
 20
  0
 42
  1
  0
VERTEX
  8
INNER12
 10
0.015
 20
  0
 42
  1
  0
SEQEND
  8
INNER12
  0
POLYLINE
  8
SMTOP
 66
1
 70
1
 40
0.03250000000000001
 41
0.03250000000000001
  0
VERTEX
  8
SMTOP
 10
-0.01625
 20
  0
 42
  1
  0
VERTEX
  8
SMTOP
 10
0.01625
 20
  0
 42
  1
  0
SEQEND
  8
SMTOP
  0
POLYLINE
  8
SMBOT
 66
1
 70
1
 40
0.03250000000000001
 41
0.03250000000000001
  0
VERTEX
  8
SMBOT
 10
-0.01625
 20
  0
 42
  1
  0
VERTEX
  8
SMBOT
 10
0.01625
 20
  0
 42
  1
  0
SEQEND
  8
SMBOT
  0
POLYLINE
  8
DRLDWG
 66
1
 70
1
 40
0.01750000000000001
 41
0.01750000000000001
  0
VERTEX
  8
DRLDWG
 10
-0.008750000000000003
 20
  0
 42
  1
  0
VERTEX
  8
DRLDWG
 10
0.008750000000000003
 20
  0
 42
  1
  0
SEQEND
  8
DRLDWG
  0
POLYLINE
  8
DRILL
 66
1
 70
1
 40
0.01750000000000001
 41
0.01750000000000001
  0
VERTEX
  8
DRILL
 10
-0.008750000000000003
 20
  0
 42
  1
  0
VERTEX
  8
DRILL
 10
0.008750000000000003
 20
  0
 42
  1
  0
SEQEND
  8
DRILL
  0
POLYLINE
  8
FABDWG
 66
1
 70
1
 40
0.03000000000000001
 41
0.03000000000000001
  0
VERTEX
  8
FABDWG
 10
-0.015
 20
  0
 42
  1
  0
VERTEX
  8
FABDWG
 10
0.015
 20
  0
 42
  1
  0
SEQEND
  8
FABDWG
  0
POLYLINE
  8
NOTES
 66
1
 70
1
 40
0.03000000000000001
 41
0.03000000000000001
  0
VERTEX
  8
NOTES
 10
-0.015
 20
  0
 42
  1
  0
VERTEX
  8
NOTES
 10
0.015
 20
  0
 42
  1
  0
SEQEND
  8
NOTES
  0
ENDBLK
  0
BLOCK
  8
0
  2
padstack_BCON156T_llb_pad1
 10
0.0
 20
0.0
 30
0.0
 70
2
  0
POINT
  8
0
 10
  0
 20
  0
  0
POLYLINE
  8
TOP
 66
1
 70
0
 40
0.1
 41
0.1
  0
VERTEX
  8
TOP
 10
-0.05000000000000001
 20
  0
  0
VERTEX
  8
TOP
 10
0.05000000000000001
 20
  0
  0
SEQEND
  8
TOP
  0
POLYLINE
  8
BOTTOM
 66
1
 70
0
 40
0.1
 41
0.1
  0
VERTEX
  8
BOTTOM
 10
-0.05000000000000001
 20
  0
  0
VERTEX
  8
BOTTOM
 10
0.05000000000000001
 20
  0
  0
SEQEND
  8
BOTTOM
  0
POLYLINE
  8
GND
 66
1
 70
0
 40
0.12
 41
0.12
  0
VERTEX
  8
GND
 10
-0.06000000000000001
 20
  0
  0
VERTEX
  8
GND
 10
0.06000000000000001
 20
  0
  0
SEQEND
  8
GND
  0
POLYLINE
  8
POWER
 66
1
 70
0
 40
0.12
 41
0.12
  0
VERTEX
  8
POWER
 10
-0.06000000000000001
 20
  0
  0
VERTEX
  8
POWER
 10
0.06000000000000001
 20
  0
  0
SEQEND
  8
POWER
  0
POLYLINE
  8
INNER1
 66
1
 70
0
 40
0.1
 41
0.1
  0
VERTEX
  8
INNER1
 10
-0.05000000000000001
 20
  0
  0
VERTEX
  8
INNER1
 10
0.05000000000000001
 20
  0
  0
SEQEND
  8
INNER1
  0
POLYLINE
  8
INNER2
 66
1
 70
0
 40
0.1
 41
0.1
  0
VERTEX
  8
INNER2
 10
-0.05000000000000001
 20
  0
  0
VERTEX
  8
INNER2
 10
0.05000000000000001
 20
  0
  0
SEQEND
  8
INNER2
  0
POLYLINE
  8
INNER3
 66
1
 70
0
 40
0.1
 41
0.1
  0
VERTEX
  8
INNER3
 10
-0.05000000000000001
 20
  0
  0
VERTEX
  8
INNER3
 10
0.05000000000000001
 20
  0
  0
SEQEND
  8
INNER3
  0
POLYLINE
  8
INNER4
 66
1
 70
0
 40
0.1
 41
0.1
  0
VERTEX
  8
INNER4
 10
-0.05000000000000001
 20
  0
  0
VERTEX
  8
INNER4
 10
0.05000000000000001
 20
  0
  0
SEQEND
  8
INNER4
  0
POLYLINE
  8
INNER5
 66
1
 70
0
 40
0.1
 41
0.1
  0
VERTEX
  8
INNER5
 10
-0.05000000000000001
 20
  0
  0
VERTEX
  8
INNER5
 10
0.05000000000000001
 20
  0
  0
SEQEND
  8
INNER5
  0
POLYLINE
  8
INNER6
 66
1
 70
0
 40
0.1
 41
0.1
  0
VERTEX
  8
INNER6
 10
-0.05000000000000001
 20
  0
  0
VERTEX
  8
INNER6
 10
0.05000000000000001
 20
  0
  0
SEQEND
  8
INNER6
  0
POLYLINE
  8
INNER7
 66
1
 70
0
 40
0.1
 41
0.1
  0
VERTEX
  8
INNER7
 10
-0.05000000000000001
 20
  0
  0
VERTEX
  8
INNER7
 10
0.05000000000000001
 20
  0
  0
SEQEND
  8
INNER7
  0
POLYLINE
  8
INNER8
 66
1
 70
0
 40
0.1
 41
0.1
  0
VERTEX
  8
INNER8
 10
-0.05000000000000001
 20
  0
  0
VERTEX
  8
INNER8
 10
0.05000000000000001
 20
  0
  0
SEQEND
  8
INNER8
  0
POLYLINE
  8
INNER9
 66
1
 70
0
 40
0.1
 41
0.1
  0
VERTEX
  8
INNER9
 10
-0.05000000000000001
 20
  0
  0
VERTEX
  8
INNER9
 10
0.05000000000000001
 20
  0
  0
SEQEND
  8
INNER9
  0
POLYLINE
  8
INNER10
 66
1
 70
0
 40
0.1
 41
0.1
  0
VERTEX
  8
INNER10
 10
-0.05000000000000001
 20
  0
  0
VERTEX
  8
INNER10
 10
0.05000000000000001
 20
  0
  0
SEQEND
  8
INNER10
  0
POLYLINE
  8
INNER11
 66
1
 70
0
 40
0.1
 41
0.1
  0
VERTEX
  8
INNER11
 10
-0.05000000000000001
 20
  0
  0
VERTEX
  8
INNER11
 10
0.05000000000000001
 20
  0
  0
SEQEND
  8
INNER11
  0
POLYLINE
  8
INNER12
 66
1
 70
0
 40
0.1
 41
0.1
  0
VERTEX
  8
INNER12
 10
-0.05000000000000001
 20
  0
  0
VERTEX
  8
INNER12
 10
0.05000000000000001
 20
  0
  0
SEQEND
  8
INNER12
  0
POLYLINE
  8
SMTOP
 66
1
 70
0
 40
0.1
 41
0.1
  0
VERTEX
  8
SMTOP
 10
-0.05000000000000001
 20
  0
  0
VERTEX
  8
SMTOP
 10
0.05000000000000001
 20
  0
  0
SEQEND
  8
SMTOP
  0
POLYLINE
  8
SMBOT
 66
1
 70
0
 40
0.1
 41
0.1
  0
VERTEX
  8
SMBOT
 10
-0.05000000000000001
 20
  0
  0
VERTEX
  8
SMBOT
 10
0.05000000000000001
 20
  0
  0
SEQEND
  8
SMBOT
  0
POLYLINE
  8
ASYTOP
 66
1
 70
0
 40
0.1
 41
0.1
  0
VERTEX
  8
ASYTOP
 10
-0.05000000000000001
 20
  0
  0
VERTEX
  8
ASYTOP
 10
0.05000000000000001
 20
  0
  0
SEQEND
  8
ASYTOP
  0
POLYLINE
  8
ASYBOT
 66
1
 70
0
 40
0.1
 41
0.1
  0
VERTEX
  8
ASYBOT
 10
-0.05000000000000001
 20
  0
  0
VERTEX
  8
ASYBOT
 10
0.05000000000000001
 20
  0
  0
SEQEND
  8
ASYBOT
  0
POLYLINE
  8
DRLDWG
 66
1
 70
1
 40
0.03500000000000001
 41
0.03500000000000001
  0
VERTEX
  8
DRLDWG
 10
-0.01750000000000001
 20
  0
 42
  1
  0
VERTEX
  8
DRLDWG
 10
0.01750000000000001
 20
  0
 42
  1
  0
SEQEND
  8
DRLDWG
  0
POLYLINE
  8
DRILL
 66
1
 70
1
 40
0.03500000000000001
 41
0.03500000000000001
  0
VERTEX
  8
DRILL
 10
-0.01750000000000001
 20
  0
 42
  1
  0
VERTEX
  8
DRILL
 10
0.01750000000000001
 20
  0
 42
  1
  0
SEQEND
  8
DRILL
  0
ENDBLK
  0
BLOCK
  8
0
  2
padstack_BCON156T_llb_pad2
 10
0.0
 20
0.0
 30
0.0
 70
2
  0
POINT
  8
0
 10
  0
 20
  0
  0
POLYLINE
  8
TOP
 66
1
 70
1
 40
0.05000000000000001
 41
0.05000000000000001
  0
VERTEX
  8
TOP
 10
-0.02500000000000001
 20
  0
 42
  1
  0
VERTEX
  8
TOP
 10
0.02500000000000001
 20
  0
 42
  1
  0
SEQEND
  8
TOP
  0
POLYLINE
  8
BOTTOM
 66
1
 70
1
 40
0.05000000000000001
 41
0.05000000000000001
  0
VERTEX
  8
BOTTOM
 10
-0.02500000000000001
 20
  0
 42
  1
  0
VERTEX
  8
BOTTOM
 10
0.02500000000000001
 20
  0
 42
  1
  0
SEQEND
  8
BOTTOM
  0
POLYLINE
  8
GND
 66
1
 70
1
 40
0.06000000000000001
 41
0.06000000000000001
  0
VERTEX
  8
GND
 10
-0.03000000000000001
 20
  0
 42
  1
  0
VERTEX
  8
GND
 10
0.03000000000000001
 20
  0
 42
  1
  0
SEQEND
  8
GND
  0
POLYLINE
  8
POWER
 66
1
 70
1
 40
0.06000000000000001
 41
0.06000000000000001
  0
VERTEX
  8
POWER
 10
-0.03000000000000001
 20
  0
 42
  1
  0
VERTEX
  8
POWER
 10
0.03000000000000001
 20
  0
 42
  1
  0
SEQEND
  8
POWER
  0
POLYLINE
  8
INNER1
 66
1
 70
1
 40
0.05000000000000001
 41
0.05000000000000001
  0
VERTEX
  8
INNER1
 10
-0.02500000000000001
 20
  0
 42
  1
  0
VERTEX
  8
INNER1
 10
0.02500000000000001
 20
  0
 42
  1
  0
SEQEND
  8
INNER1
  0
POLYLINE
  8
INNER2
 66
1
 70
1
 40
0.05000000000000001
 41
0.05000000000000001
  0
VERTEX
  8
INNER2
 10
-0.02500000000000001
 20
  0
 42
  1
  0
VERTEX
  8
INNER2
 10
0.02500000000000001
 20
  0
 42
  1
  0
SEQEND
  8
INNER2
  0
POLYLINE
  8
INNER3
 66
1
 70
1
 40
0.05000000000000001
 41
0.05000000000000001
  0
VERTEX
  8
INNER3
 10
-0.02500000000000001
 20
  0
 42
  1
  0
VERTEX
  8
INNER3
 10
0.02500000000000001
 20
  0
 42
  1
  0
SEQEND
  8
INNER3
  0
POLYLINE
  8
INNER4
 66
1
 70
1
 40
0.05000000000000001
 41
0.05000000000000001
  0
VERTEX
  8
INNER4
 10
-0.02500000000000001
 20
  0
 42
  1
  0
VERTEX
  8
INNER4
 10
0.02500000000000001
 20
  0
 42
  1
  0
SEQEND
  8
INNER4
  0
POLYLINE
  8
INNER5
 66
1
 70
1
 40
0.05000000000000001
 41
0.05000000000000001
  0
VERTEX
  8
INNER5
 10
-0.02500000000000001
 20
  0
 42
  1
  0
VERTEX
  8
INNER5
 10
0.02500000000000001
 20
  0
 42
  1
  0
SEQEND
  8
INNER5
  0
POLYLINE
  8
INNER6
 66
1
 70
1
 40
0.05000000000000001
 41
0.05000000000000001
  0
VERTEX
  8
INNER6
 10
-0.02500000000000001
 20
  0
 42
  1
  0
VERTEX
  8
INNER6
 10
0.02500000000000001
 20
  0
 42
  1
  0
SEQEND
  8
INNER6
  0
POLYLINE
  8
INNER7
 66
1
 70
1
 40
0.05000000000000001
 41
0.05000000000000001
  0
VERTEX
  8
INNER7
 10
-0.02500000000000001
 20
  0
 42
  1
  0
VERTEX
  8
INNER7
 10
0.02500000000000001
 20
  0
 42
  1
  0
SEQEND
  8
INNER7
  0
POLYLINE
  8
INNER8
 66
1
 70
1
 40
0.05000000000000001
 41
0.05000000000000001
  0
VERTEX
  8
INNER8
 10
-0.02500000000000001
 20
  0
 42
  1
  0
VERTEX
  8
INNER8
 10
0.02500000000000001
 20
  0
 42
  1
  0
SEQEND
  8
INNER8
  0
POLYLINE
  8
INNER9
 66
1
 70
1
 40
0.05000000000000001
 41
0.05000000000000001
  0
VERTEX
  8
INNER9
 10
-0.02500000000000001
 20
  0
 42
  1
  0
VERTEX
  8
INNER9
 10
0.02500000000000001
 20
  0
 42
  1
  0
SEQEND
  8
INNER9
  0
POLYLINE
  8
INNER10
 66
1
 70
1
 40
0.05000000000000001
 41
0.05000000000000001
  0
VERTEX
  8
INNER10
 10
-0.02500000000000001
 20
  0
 42
  1
  0
VERTEX
  8
INNER10
 10
0.02500000000000001
 20
  0
 42
  1
  0
SEQEND
  8
INNER10
  0
POLYLINE
  8
INNER11
 66
1
 70
1
 40
0.05000000000000001
 41
0.05000000000000001
  0
VERTEX
  8
INNER11
 10
-0.02500000000000001
 20
  0
 42
  1
  0
VERTEX
  8
INNER11
 10
0.02500000000000001
 20
  0
 42
  1
  0
SEQEND
  8
INNER11
  0
POLYLINE
  8
INNER12
 66
1
 70
1
 40
0.05000000000000001
 41
0.05000000000000001
  0
VERTEX
  8
INNER12
 10
-0.02500000000000001
 20
  0
 42
  1
  0
VERTEX
  8
INNER12
 10
0.02500000000000001
 20
  0
 42
  1
  0
SEQEND
  8
INNER12
  0
POLYLINE
  8
SMTOP
 66
1
 70
1
 40
0.05000000000000001
 41
0.05000000000000001
  0
VERTEX
  8
SMTOP
 10
-0.02500000000000001
 20
  0
 42
  1
  0
VERTEX
  8
SMTOP
 10
0.02500000000000001
 20
  0
 42
  1
  0
SEQEND
  8
SMTOP
  0
POLYLINE
  8
SMBOT
 66
1
 70
1
 40
0.05000000000000001
 41
0.05000000000000001
  0
VERTEX
  8
SMBOT
 10
-0.02500000000000001
 20
  0
 42
  1
  0
VERTEX
  8
SMBOT
 10
0.02500000000000001
 20
  0
 42
  1
  0
SEQEND
  8
SMBOT
  0
POLYLINE
  8
ASYTOP
 66
1
 70
1
 40
0.05000000000000001
 41
0.05000000000000001
  0
VERTEX
  8
ASYTOP
 10
-0.02500000000000001
 20
  0
 42
  1
  0
VERTEX
  8
ASYTOP
 10
0.02500000000000001
 20
  0
 42
  1
  0
SEQEND
  8
ASYTOP
  0
POLYLINE
  8
ASYBOT
 66
1
 70
1
 40
0.05000000000000001
 41
0.05000000000000001
  0
VERTEX
  8
ASYBOT
 10
-0.02500000000000001
 20
  0
 42
  1
  0
VERTEX
  8
ASYBOT
 10
0.02500000000000001
 20
  0
 42
  1
  0
SEQEND
  8
ASYBOT
  0
POLYLINE
  8
DRLDWG
 66
1
 70
1
 40
0.03500000000000001
 41
0.03500000000000001
  0
VERTEX
  8
DRLDWG
 10
-0.01750000000000001
 20
  0
 42
  1
  0
VERTEX
  8
DRLDWG
 10
0.01750000000000001
 20
  0
 42
  1
  0
SEQEND
  8
DRLDWG
  0
POLYLINE
  8
DRILL
 66
1
 70
1
 40
0.03500000000000001
 41
0.03500000000000001
  0
VERTEX
  8
DRILL
 10
-0.01750000000000001
 20
  0
 42
  1
  0
VERTEX
  8
DRILL
 10
0.01750000000000001
 20
  0
 42
  1
  0
SEQEND
  8
DRILL
  0
ENDBLK
  0
BLOCK
  8
0
  2
padstack_BGA_llb_pad1_1
 10
0.0
 20
0.0
 30
0.0
 70
2
  0
POINT
  8
0
 10
  0
 20
  0
  0
POLYLINE
  8
TOP
 66
1
 70
0
 40
0.03000000000000001
 41
0.03000000000000001
  0
VERTEX
  8
TOP
 10
-0.015
 20
  0
  0
VERTEX
  8
TOP
 10
0.015
 20
  0
  0
SEQEND
  8
TOP
  0
POLYLINE
  8
SMTOP
 66
1
 70
0
 40
0.03000000000000001
 41
0.03000000000000001
  0
VERTEX
  8
SMTOP
 10
-0.015
 20
  0
  0
VERTEX
  8
SMTOP
 10
0.015
 20
  0
  0
SEQEND
  8
SMTOP
  0
POLYLINE
  8
SPTOP
 66
1
 70
0
 40
0.03000000000000001
 41
0.03000000000000001
  0
VERTEX
  8
SPTOP
 10
-0.015
 20
  0
  0
VERTEX
  8
SPTOP
 10
0.015
 20
  0
  0
SEQEND
  8
SPTOP
  0
POLYLINE
  8
ASYTOP
 66
1
 70
0
 40
0.03000000000000001
 41
0.03000000000000001
  0
VERTEX
  8
ASYTOP
 10
-0.015
 20
  0
  0
VERTEX
  8
ASYTOP
 10
0.015
 20
  0
  0
SEQEND
  8
ASYTOP
  0
ENDBLK
  0
BLOCK
  8
0
  2
padstack_BGA_llb_pad2_1
 10
0.0
 20
0.0
 30
0.0
 70
2
  0
POINT
  8
0
 10
  0
 20
  0
  0
POLYLINE
  8
TOP
 66
1
 70
1
 40
0.015
 41
0.015
  0
VERTEX
  8
TOP
 10
-0.007500000000000002
 20
  0
 42
  1
  0
VERTEX
  8
TOP
 10
0.007500000000000002
 20
  0
 42
  1
  0
SEQEND
  8
TOP
  0
POLYLINE
  8
SMTOP
 66
1
 70
1
 40
0.015
 41
0.015
  0
VERTEX
  8
SMTOP
 10
-0.007500000000000002
 20
  0
 42
  1
  0
VERTEX
  8
SMTOP
 10
0.007500000000000002
 20
  0
 42
  1
  0
SEQEND
  8
SMTOP
  0
POLYLINE
  8
SPTOP
 66
1
 70
1
 40
0.015
 41
0.015
  0
VERTEX
  8
SPTOP
 10
-0.007500000000000002
 20
  0
 42
  1
  0
VERTEX
  8
SPTOP
 10
0.007500000000000002
 20
  0
 42
  1
  0
SEQEND
  8
SPTOP
  0
POLYLINE
  8
ASYTOP
 66
1
 70
1
 40
0.015
 41
0.015
  0
VERTEX
  8
ASYTOP
 10
-0.007500000000000002
 20
  0
 42
  1
  0
VERTEX
  8
ASYTOP
 10
0.007500000000000002
 20
  0
 42
  1
  0
SEQEND
  8
ASYTOP
  0
ENDBLK
  0
BLOCK
  8
0
  2
padstack_82R66
 10
0.0
 20
0.0
 30
0.0
 70
2
  0
POINT
  8
0
 10
  0
 20
  0
  0
POLYLINE
  8
TOP
 66
1
 70
1
 40
0.04100000000000001
 41
0.04100000000000001
  0
VERTEX
  8
TOP
 10
-0.0205
 20
  0
 42
  1
  0
VERTEX
  8
TOP
 10
0.0205
 20
  0
 42
  1
  0
SEQEND
  8
TOP
  0
POLYLINE
  8
BOTTOM
 66
1
 70
1
 40
0.04100000000000001
 41
0.04100000000000001
  0
VERTEX
  8
BOTTOM
 10
-0.0205
 20
  0
 42
  1
  0
VERTEX
  8
BOTTOM
 10
0.0205
 20
  0
 42
  1
  0
SEQEND
  8
BOTTOM
  0
POLYLINE
  8
GND
 66
1
 70
1
 40
0.04400000000000001
 41
0.04400000000000001
  0
VERTEX
  8
GND
 10
-0.02200000000000001
 20
  0
 42
  1
  0
VERTEX
  8
GND
 10
0.02200000000000001
 20
  0
 42
  1
  0
SEQEND
  8
GND
  0
POLYLINE
  8
POWER
 66
1
 70
1
 40
0.04400000000000001
 41
0.04400000000000001
  0
VERTEX
  8
POWER
 10
-0.02200000000000001
 20
  0
 42
  1
  0
VERTEX
  8
POWER
 10
0.02200000000000001
 20
  0
 42
  1
  0
SEQEND
  8
POWER
  0
POLYLINE
  8
INNER1
 66
1
 70
1
 40
0.04100000000000001
 41
0.04100000000000001
  0
VERTEX
  8
INNER1
 10
-0.0205
 20
  0
 42
  1
  0
VERTEX
  8
INNER1
 10
0.0205
 20
  0
 42
  1
  0
SEQEND
  8
INNER1
  0
POLYLINE
  8
INNER2
 66
1
 70
1
 40
0.04100000000000001
 41
0.04100000000000001
  0
VERTEX
  8
INNER2
 10
-0.0205
 20
  0
 42
  1
  0
VERTEX
  8
INNER2
 10
0.0205
 20
  0
 42
  1
  0
SEQEND
  8
INNER2
  0
POLYLINE
  8
INNER3
 66
1
 70
1
 40
0.04100000000000001
 41
0.04100000000000001
  0
VERTEX
  8
INNER3
 10
-0.0205
 20
  0
 42
  1
  0
VERTEX
  8
INNER3
 10
0.0205
 20
  0
 42
  1
  0
SEQEND
  8
INNER3
  0
POLYLINE
  8
INNER4
 66
1
 70
1
 40
0.04100000000000001
 41
0.04100000000000001
  0
VERTEX
  8
INNER4
 10
-0.0205
 20
  0
 42
  1
  0
VERTEX
  8
INNER4
 10
0.0205
 20
  0
 42
  1
  0
SEQEND
  8
INNER4
  0
POLYLINE
  8
INNER5
 66
1
 70
1
 40
0.04100000000000001
 41
0.04100000000000001
  0
VERTEX
  8
INNER5
 10
-0.0205
 20
  0
 42
  1
  0
VERTEX
  8
INNER5
 10
0.0205
 20
  0
 42
  1
  0
SEQEND
  8
INNER5
  0
POLYLINE
  8
INNER6
 66
1
 70
1
 40
0.04100000000000001
 41
0.04100000000000001
  0
VERTEX
  8
INNER6
 10
-0.0205
 20
  0
 42
  1
  0
VERTEX
  8
INNER6
 10
0.0205
 20
  0
 42
  1
  0
SEQEND
  8
INNER6
  0
POLYLINE
  8
INNER7
 66
1
 70
1
 40
0.04100000000000001
 41
0.04100000000000001
  0
VERTEX
  8
INNER7
 10
-0.0205
 20
  0
 42
  1
  0
VERTEX
  8
INNER7
 10
0.0205
 20
  0
 42
  1
  0
SEQEND
  8
INNER7
  0
POLYLINE
  8
INNER8
 66
1
 70
1
 40
0.04100000000000001
 41
0.04100000000000001
  0
VERTEX
  8
INNER8
 10
-0.0205
 20
  0
 42
  1
  0
VERTEX
  8
INNER8
 10
0.0205
 20
  0
 42
  1
  0
SEQEND
  8
INNER8
  0
POLYLINE
  8
INNER9
 66
1
 70
1
 40
0.04100000000000001
 41
0.04100000000000001
  0
VERTEX
  8
INNER9
 10
-0.0205
 20
  0
 42
  1
  0
VERTEX
  8
INNER9
 10
0.0205
 20
  0
 42
  1
  0
SEQEND
  8
INNER9
  0
POLYLINE
  8
INNER10
 66
1
 70
1
 40
0.04100000000000001
 41
0.04100000000000001
  0
VERTEX
  8
INNER10
 10
-0.0205
 20
  0
 42
  1
  0
VERTEX
  8
INNER10
 10
0.0205
 20
  0
 42
  1
  0
SEQEND
  8
INNER10
  0
POLYLINE
  8
INNER11
 66
1
 70
1
 40
0.04100000000000001
 41
0.04100000000000001
  0
VERTEX
  8
INNER11
 10
-0.0205
 20
  0
 42
  1
  0
VERTEX
  8
INNER11
 10
0.0205
 20
  0
 42
  1
  0
SEQEND
  8
INNER11
  0
POLYLINE
  8
INNER12
 66
1
 70
1
 40
0.04100000000000001
 41
0.04100000000000001
  0
VERTEX
  8
INNER12
 10
-0.0205
 20
  0
 42
  1
  0
VERTEX
  8
INNER12
 10
0.0205
 20
  0
 42
  1
  0
SEQEND
  8
INNER12
  0
POLYLINE
  8
SMTOP
 66
1
 70
1
 40
0.04350000000000001
 41
0.04350000000000001
  0
VERTEX
  8
SMTOP
 10
-0.02175000000000001
 20
  0
 42
  1
  0
VERTEX
  8
SMTOP
 10
0.02175000000000001
 20
  0
 42
  1
  0
SEQEND
  8
SMTOP
  0
POLYLINE
  8
SMBOT
 66
1
 70
1
 40
0.04350000000000001
 41
0.04350000000000001
  0
VERTEX
  8
SMBOT
 10
-0.02175000000000001
 20
  0
 42
  1
  0
VERTEX
  8
SMBOT
 10
0.02175000000000001
 20
  0
 42
  1
  0
SEQEND
  8
SMBOT
  0
POLYLINE
  8
DRLDWG
 66
1
 70
1
 40
0.03300000000000001
 41
0.03300000000000001
  0
VERTEX
  8
DRLDWG
 10
-0.0165
 20
  0
 42
  1
  0
VERTEX
  8
DRLDWG
 10
0.0165
 20
  0
 42
  1
  0
SEQEND
  8
DRLDWG
  0
POLYLINE
  8
DRILL
 66
1
 70
1
 40
0.03300000000000001
 41
0.03300000000000001
  0
VERTEX
  8
DRILL
 10
-0.0165
 20
  0
 42
  1
  0
VERTEX
  8
DRILL
 10
0.0165
 20
  0
 42
  1
  0
SEQEND
  8
DRILL
  0
ENDBLK
  0
BLOCK
  8
0
  2
padstack_85R61
 10
0.0
 20
0.0
 30
0.0
 70
2
  0
POINT
  8
0
 10
  0
 20
  0
  0
POLYLINE
  8
TOP
 66
1
 70
1
 40
0.04250000000000001
 41
0.04250000000000001
  0
VERTEX
  8
TOP
 10
-0.02125000000000001
 20
  0
 42
  1
  0
VERTEX
  8
TOP
 10
0.02125000000000001
 20
  0
 42
  1
  0
SEQEND
  8
TOP
  0
POLYLINE
  8
BOTTOM
 66
1
 70
1
 40
0.04250000000000001
 41
0.04250000000000001
  0
VERTEX
  8
BOTTOM
 10
-0.02125000000000001
 20
  0
 42
  1
  0
VERTEX
  8
BOTTOM
 10
0.02125000000000001
 20
  0
 42
  1
  0
SEQEND
  8
BOTTOM
  0
POLYLINE
  8
GND
 66
1
 70
1
 40
0.04550000000000001
 41
0.04550000000000001
  0
VERTEX
  8
GND
 10
-0.02275000000000001
 20
  0
 42
  1
  0
VERTEX
  8
GND
 10
0.02275000000000001
 20
  0
 42
  1
  0
SEQEND
  8
GND
  0
POLYLINE
  8
POWER
 66
1
 70
1
 40
0.04550000000000001
 41
0.04550000000000001
  0
VERTEX
  8
POWER
 10
-0.02275000000000001
 20
  0
 42
  1
  0
VERTEX
  8
POWER
 10
0.02275000000000001
 20
  0
 42
  1
  0
SEQEND
  8
POWER
  0
POLYLINE
  8
INNER1
 66
1
 70
1
 40
0.04250000000000001
 41
0.04250000000000001
  0
VERTEX
  8
INNER1
 10
-0.02125000000000001
 20
  0
 42
  1
  0
VERTEX
  8
INNER1
 10
0.02125000000000001
 20
  0
 42
  1
  0
SEQEND
  8
INNER1
  0
POLYLINE
  8
INNER2
 66
1
 70
1
 40
0.04250000000000001
 41
0.04250000000000001
  0
VERTEX
  8
INNER2
 10
-0.02125000000000001
 20
  0
 42
  1
  0
VERTEX
  8
INNER2
 10
0.02125000000000001
 20
  0
 42
  1
  0
SEQEND
  8
INNER2
  0
POLYLINE
  8
INNER3
 66
1
 70
1
 40
0.04250000000000001
 41
0.04250000000000001
  0
VERTEX
  8
INNER3
 10
-0.02125000000000001
 20
  0
 42
  1
  0
VERTEX
  8
INNER3
 10
0.02125000000000001
 20
  0
 42
  1
  0
SEQEND
  8
INNER3
  0
POLYLINE
  8
INNER4
 66
1
 70
1
 40
0.04250000000000001
 41
0.04250000000000001
  0
VERTEX
  8
INNER4
 10
-0.02125000000000001
 20
  0
 42
  1
  0
VERTEX
  8
INNER4
 10
0.02125000000000001
 20
  0
 42
  1
  0
SEQEND
  8
INNER4
  0
POLYLINE
  8
INNER5
 66
1
 70
1
 40
0.04250000000000001
 41
0.04250000000000001
  0
VERTEX
  8
INNER5
 10
-0.02125000000000001
 20
  0
 42
  1
  0
VERTEX
  8
INNER5
 10
0.02125000000000001
 20
  0
 42
  1
  0
SEQEND
  8
INNER5
  0
POLYLINE
  8
INNER6
 66
1
 70
1
 40
0.04250000000000001
 41
0.04250000000000001
  0
VERTEX
  8
INNER6
 10
-0.02125000000000001
 20
  0
 42
  1
  0
VERTEX
  8
INNER6
 10
0.02125000000000001
 20
  0
 42
  1
  0
SEQEND
  8
INNER6
  0
POLYLINE
  8
INNER7
 66
1
 70
1
 40
0.04250000000000001
 41
0.04250000000000001
  0
VERTEX
  8
INNER7
 10
-0.02125000000000001
 20
  0
 42
  1
  0
VERTEX
  8
INNER7
 10
0.02125000000000001
 20
  0
 42
  1
  0
SEQEND
  8
INNER7
  0
POLYLINE
  8
INNER8
 66
1
 70
1
 40
0.04250000000000001
 41
0.04250000000000001
  0
VERTEX
  8
INNER8
 10
-0.02125000000000001
 20
  0
 42
  1
  0
VERTEX
  8
INNER8
 10
0.02125000000000001
 20
  0
 42
  1
  0
SEQEND
  8
INNER8
  0
POLYLINE
  8
INNER9
 66
1
 70
1
 40
0.04250000000000001
 41
0.04250000000000001
  0
VERTEX
  8
INNER9
 10
-0.02125000000000001
 20
  0
 42
  1
  0
VERTEX
  8
INNER9
 10
0.02125000000000001
 20
  0
 42
  1
  0
SEQEND
  8
INNER9
  0
POLYLINE
  8
INNER10
 66
1
 70
1
 40
0.04250000000000001
 41
0.04250000000000001
  0
VERTEX
  8
INNER10
 10
-0.02125000000000001
 20
  0
 42
  1
  0
VERTEX
  8
INNER10
 10
0.02125000000000001
 20
  0
 42
  1
  0
SEQEND
  8
INNER10
  0
POLYLINE
  8
INNER11
 66
1
 70
1
 40
0.04250000000000001
 41
0.04250000000000001
  0
VERTEX
  8
INNER11
 10
-0.02125000000000001
 20
  0
 42
  1
  0
VERTEX
  8
INNER11
 10
0.02125000000000001
 20
  0
 42
  1
  0
SEQEND
  8
INNER11
  0
POLYLINE
  8
INNER12
 66
1
 70
1
 40
0.04250000000000001
 41
0.04250000000000001
  0
VERTEX
  8
INNER12
 10
-0.02125000000000001
 20
  0
 42
  1
  0
VERTEX
  8
INNER12
 10
0.02125000000000001
 20
  0
 42
  1
  0
SEQEND
  8
INNER12
  0
POLYLINE
  8
SMTOP
 66
1
 70
1
 40
0.04500000000000001
 41
0.04500000000000001
  0
VERTEX
  8
SMTOP
 10
-0.02250000000000001
 20
  0
 42
  1
  0
VERTEX
  8
SMTOP
 10
0.02250000000000001
 20
  0
 42
  1
  0
SEQEND
  8
SMTOP
  0
POLYLINE
  8
SMBOT
 66
1
 70
1
 40
0.04500000000000001
 41
0.04500000000000001
  0
VERTEX
  8
SMBOT
 10
-0.02250000000000001
 20
  0
 42
  1
  0
VERTEX
  8
SMBOT
 10
0.02250000000000001
 20
  0
 42
  1
  0
SEQEND
  8
SMBOT
  0
POLYLINE
  8
DRLDWG
 66
1
 70
1
 40
0.03050000000000001
 41
0.03050000000000001
  0
VERTEX
  8
DRLDWG
 10
-0.01525
 20
  0
 42
  1
  0
VERTEX
  8
DRLDWG
 10
0.01525
 20
  0
 42
  1
  0
SEQEND
  8
DRLDWG
  0
POLYLINE
  8
DRILL
 66
1
 70
1
 40
0.03050000000000001
 41
0.03050000000000001
  0
VERTEX
  8
DRILL
 10
-0.01525
 20
  0
 42
  1
  0
VERTEX
  8
DRILL
 10
0.01525
 20
  0
 42
  1
  0
SEQEND
  8
DRILL
  0
ENDBLK
  0
BLOCK
  8
0
  2
padstack_BCON100T_llb_pad3
 10
0.0
 20
0.0
 30
0.0
 70
2
  0
POINT
  8
0
 10
  0
 20
  0
  0
POLYLINE
  8
TOP
 66
1
 70
0
 40
0.06200000000000001
 41
0.06200000000000001
  0
VERTEX
  8
TOP
 10
-0.03100000000000001
 20
  0
  0
VERTEX
  8
TOP
 10
0.03100000000000001
 20
  0
  0
SEQEND
  8
TOP
  0
POLYLINE
  8
BOTTOM
 66
1
 70
0
 40
0.06200000000000001
 41
0.06200000000000001
  0
VERTEX
  8
BOTTOM
 10
-0.03100000000000001
 20
  0
  0
VERTEX
  8
BOTTOM
 10
0.03100000000000001
 20
  0
  0
SEQEND
  8
BOTTOM
  0
POLYLINE
  8
GND
 66
1
 70
0
 40
0.08200000000000002
 41
0.08200000000000002
  0
VERTEX
  8
GND
 10
-0.04100000000000001
 20
  0
  0
VERTEX
  8
GND
 10
0.04100000000000001
 20
  0
  0
SEQEND
  8
GND
  0
POLYLINE
  8
POWER
 66
1
 70
0
 40
0.08200000000000002
 41
0.08200000000000002
  0
VERTEX
  8
POWER
 10
-0.04100000000000001
 20
  0
  0
VERTEX
  8
POWER
 10
0.04100000000000001
 20
  0
  0
SEQEND
  8
POWER
  0
POLYLINE
  8
INNER1
 66
1
 70
0
 40
0.06200000000000001
 41
0.06200000000000001
  0
VERTEX
  8
INNER1
 10
-0.03100000000000001
 20
  0
  0
VERTEX
  8
INNER1
 10
0.03100000000000001
 20
  0
  0
SEQEND
  8
INNER1
  0
POLYLINE
  8
INNER2
 66
1
 70
0
 40
0.06200000000000001
 41
0.06200000000000001
  0
VERTEX
  8
INNER2
 10
-0.03100000000000001
 20
  0
  0
VERTEX
  8
INNER2
 10
0.03100000000000001
 20
  0
  0
SEQEND
  8
INNER2
  0
POLYLINE
  8
INNER3
 66
1
 70
0
 40
0.06200000000000001
 41
0.06200000000000001
  0
VERTEX
  8
INNER3
 10
-0.03100000000000001
 20
  0
  0
VERTEX
  8
INNER3
 10
0.03100000000000001
 20
  0
  0
SEQEND
  8
INNER3
  0
POLYLINE
  8
INNER4
 66
1
 70
0
 40
0.06200000000000001
 41
0.06200000000000001
  0
VERTEX
  8
INNER4
 10
-0.03100000000000001
 20
  0
  0
VERTEX
  8
INNER4
 10
0.03100000000000001
 20
  0
  0
SEQEND
  8
INNER4
  0
POLYLINE
  8
INNER5
 66
1
 70
0
 40
0.06200000000000001
 41
0.06200000000000001
  0
VERTEX
  8
INNER5
 10
-0.03100000000000001
 20
  0
  0
VERTEX
  8
INNER5
 10
0.03100000000000001
 20
  0
  0
SEQEND
  8
INNER5
  0
POLYLINE
  8
INNER6
 66
1
 70
0
 40
0.06200000000000001
 41
0.06200000000000001
  0
VERTEX
  8
INNER6
 10
-0.03100000000000001
 20
  0
  0
VERTEX
  8
INNER6
 10
0.03100000000000001
 20
  0
  0
SEQEND
  8
INNER6
  0
POLYLINE
  8
INNER7
 66
1
 70
0
 40
0.06200000000000001
 41
0.06200000000000001
  0
VERTEX
  8
INNER7
 10
-0.03100000000000001
 20
  0
  0
VERTEX
  8
INNER7
 10
0.03100000000000001
 20
  0
  0
SEQEND
  8
INNER7
  0
POLYLINE
  8
INNER8
 66
1
 70
0
 40
0.06200000000000001
 41
0.06200000000000001
  0
VERTEX
  8
INNER8
 10
-0.03100000000000001
 20
  0
  0
VERTEX
  8
INNER8
 10
0.03100000000000001
 20
  0
  0
SEQEND
  8
INNER8
  0
POLYLINE
  8
INNER9
 66
1
 70
0
 40
0.06200000000000001
 41
0.06200000000000001
  0
VERTEX
  8
INNER9
 10
-0.03100000000000001
 20
  0
  0
VERTEX
  8
INNER9
 10
0.03100000000000001
 20
  0
  0
SEQEND
  8
INNER9
  0
POLYLINE
  8
INNER10
 66
1
 70
0
 40
0.06200000000000001
 41
0.06200000000000001
  0
VERTEX
  8
INNER10
 10
-0.03100000000000001
 20
  0
  0
VERTEX
  8
INNER10
 10
0.03100000000000001
 20
  0
  0
SEQEND
  8
INNER10
  0
POLYLINE
  8
INNER11
 66
1
 70
0
 40
0.06200000000000001
 41
0.06200000000000001
  0
VERTEX
  8
INNER11
 10
-0.03100000000000001
 20
  0
  0
VERTEX
  8
INNER11
 10
0.03100000000000001
 20
  0
  0
SEQEND
  8
INNER11
  0
POLYLINE
  8
INNER12
 66
1
 70
0
 40
0.06200000000000001
 41
0.06200000000000001
  0
VERTEX
  8
INNER12
 10
-0.03100000000000001
 20
  0
  0
VERTEX
  8
INNER12
 10
0.03100000000000001
 20
  0
  0
SEQEND
  8
INNER12
  0
POLYLINE
  8
SMTOP
 66
1
 70
0
 40
0.06200000000000001
 41
0.06200000000000001
  0
VERTEX
  8
SMTOP
 10
-0.03100000000000001
 20
  0
  0
VERTEX
  8
SMTOP
 10
0.03100000000000001
 20
  0
  0
SEQEND
  8
SMTOP
  0
POLYLINE
  8
SMBOT
 66
1
 70
0
 40
0.06200000000000001
 41
0.06200000000000001
  0
VERTEX
  8
SMBOT
 10
-0.03100000000000001
 20
  0
  0
VERTEX
  8
SMBOT
 10
0.03100000000000001
 20
  0
  0
SEQEND
  8
SMBOT
  0
POLYLINE
  8
ASYTOP
 66
1
 70
0
 40
0.06200000000000001
 41
0.06200000000000001
  0
VERTEX
  8
ASYTOP
 10
-0.03100000000000001
 20
  0
  0
VERTEX
  8
ASYTOP
 10
0.03100000000000001
 20
  0
  0
SEQEND
  8
ASYTOP
  0
POLYLINE
  8
ASYBOT
 66
1
 70
0
 40
0.06200000000000001
 41
0.06200000000000001
  0
VERTEX
  8
ASYBOT
 10
-0.03100000000000001
 20
  0
  0
VERTEX
  8
ASYBOT
 10
0.03100000000000001
 20
  0
  0
SEQEND
  8
ASYBOT
  0
POLYLINE
  8
DRLDWG
 66
1
 70
1
 40
0.02100000000000001
 41
0.02100000000000001
  0
VERTEX
  8
DRLDWG
 10
-0.0105
 20
  0
 42
  1
  0
VERTEX
  8
DRLDWG
 10
0.0105
 20
  0
 42
  1
  0
SEQEND
  8
DRLDWG
  0
POLYLINE
  8
DRILL
 66
1
 70
1
 40
0.02100000000000001
 41
0.02100000000000001
  0
VERTEX
  8
DRILL
 10
-0.0105
 20
  0
 42
  1
  0
VERTEX
  8
DRILL
 10
0.0105
 20
  0
 42
  1
  0
SEQEND
  8
DRILL
  0
ENDBLK
  0
BLOCK
  8
0
  2
padstack_BCON100T_llb_pad4
 10
0.0
 20
0.0
 30
0.0
 70
2
  0
POINT
  8
0
 10
  0
 20
  0
  0
POLYLINE
  8
TOP
 66
1
 70
1
 40
0.03100000000000001
 41
0.03100000000000001
  0
VERTEX
  8
TOP
 10
-0.0155
 20
  0
 42
  1
  0
VERTEX
  8
TOP
 10
0.0155
 20
  0
 42
  1
  0
SEQEND
  8
TOP
  0
POLYLINE
  8
BOTTOM
 66
1
 70
1
 40
0.03100000000000001
 41
0.03100000000000001
  0
VERTEX
  8
BOTTOM
 10
-0.0155
 20
  0
 42
  1
  0
VERTEX
  8
BOTTOM
 10
0.0155
 20
  0
 42
  1
  0
SEQEND
  8
BOTTOM
  0
POLYLINE
  8
GND
 66
1
 70
1
 40
0.04100000000000001
 41
0.04100000000000001
  0
VERTEX
  8
GND
 10
-0.0205
 20
  0
 42
  1
  0
VERTEX
  8
GND
 10
0.0205
 20
  0
 42
  1
  0
SEQEND
  8
GND
  0
POLYLINE
  8
POWER
 66
1
 70
1
 40
0.04100000000000001
 41
0.04100000000000001
  0
VERTEX
  8
POWER
 10
-0.0205
 20
  0
 42
  1
  0
VERTEX
  8
POWER
 10
0.0205
 20
  0
 42
  1
  0
SEQEND
  8
POWER
  0
POLYLINE
  8
INNER1
 66
1
 70
1
 40
0.03100000000000001
 41
0.03100000000000001
  0
VERTEX
  8
INNER1
 10
-0.0155
 20
  0
 42
  1
  0
VERTEX
  8
INNER1
 10
0.0155
 20
  0
 42
  1
  0
SEQEND
  8
INNER1
  0
POLYLINE
  8
INNER2
 66
1
 70
1
 40
0.03100000000000001
 41
0.03100000000000001
  0
VERTEX
  8
INNER2
 10
-0.0155
 20
  0
 42
  1
  0
VERTEX
  8
INNER2
 10
0.0155
 20
  0
 42
  1
  0
SEQEND
  8
INNER2
  0
POLYLINE
  8
INNER3
 66
1
 70
1
 40
0.03100000000000001
 41
0.03100000000000001
  0
VERTEX
  8
INNER3
 10
-0.0155
 20
  0
 42
  1
  0
VERTEX
  8
INNER3
 10
0.0155
 20
  0
 42
  1
  0
SEQEND
  8
INNER3
  0
POLYLINE
  8
INNER4
 66
1
 70
1
 40
0.03100000000000001
 41
0.03100000000000001
  0
VERTEX
  8
INNER4
 10
-0.0155
 20
  0
 42
  1
  0
VERTEX
  8
INNER4
 10
0.0155
 20
  0
 42
  1
  0
SEQEND
  8
INNER4
  0
POLYLINE
  8
INNER5
 66
1
 70
1
 40
0.03100000000000001
 41
0.03100000000000001
  0
VERTEX
  8
INNER5
 10
-0.0155
 20
  0
 42
  1
  0
VERTEX
  8
INNER5
 10
0.0155
 20
  0
 42
  1
  0
SEQEND
  8
INNER5
  0
POLYLINE
  8
INNER6
 66
1
 70
1
 40
0.03100000000000001
 41
0.03100000000000001
  0
VERTEX
  8
INNER6
 10
-0.0155
 20
  0
 42
  1
  0
VERTEX
  8
INNER6
 10
0.0155
 20
  0
 42
  1
  0
SEQEND
  8
INNER6
  0
POLYLINE
  8
INNER7
 66
1
 70
1
 40
0.03100000000000001
 41
0.03100000000000001
  0
VERTEX
  8
INNER7
 10
-0.0155
 20
  0
 42
  1
  0
VERTEX
  8
INNER7
 10
0.0155
 20
  0
 42
  1
  0
SEQEND
  8
INNER7
  0
POLYLINE
  8
INNER8
 66
1
 70
1
 40
0.03100000000000001
 41
0.03100000000000001
  0
VERTEX
  8
INNER8
 10
-0.0155
 20
  0
 42
  1
  0
VERTEX
  8
INNER8
 10
0.0155
 20
  0
 42
  1
  0
SEQEND
  8
INNER8
  0
POLYLINE
  8
INNER9
 66
1
 70
1
 40
0.03100000000000001
 41
0.03100000000000001
  0
VERTEX
  8
INNER9
 10
-0.0155
 20
  0
 42
  1
  0
VERTEX
  8
INNER9
 10
0.0155
 20
  0
 42
  1
  0
SEQEND
  8
INNER9
  0
POLYLINE
  8
INNER10
 66
1
 70
1
 40
0.03100000000000001
 41
0.03100000000000001
  0
VERTEX
  8
INNER10
 10
-0.0155
 20
  0
 42
  1
  0
VERTEX
  8
INNER10
 10
0.0155
 20
  0
 42
  1
  0
SEQEND
  8
INNER10
  0
POLYLINE
  8
INNER11
 66
1
 70
1
 40
0.03100000000000001
 41
0.03100000000000001
  0
VERTEX
  8
INNER11
 10
-0.0155
 20
  0
 42
  1
  0
VERTEX
  8
INNER11
 10
0.0155
 20
  0
 42
  1
  0
SEQEND
  8
INNER11
  0
POLYLINE
  8
INNER12
 66
1
 70
1
 40
0.03100000000000001
 41
0.03100000000000001
  0
VERTEX
  8
INNER12
 10
-0.0155
 20
  0
 42
  1
  0
VERTEX
  8
INNER12
 10
0.0155
 20
  0
 42
  1
  0
SEQEND
  8
INNER12
  0
POLYLINE
  8
SMTOP
 66
1
 70
1
 40
0.03100000000000001
 41
0.03100000000000001
  0
VERTEX
  8
SMTOP
 10
-0.0155
 20
  0
 42
  1
  0
VERTEX
  8
SMTOP
 10
0.0155
 20
  0
 42
  1
  0
SEQEND
  8
SMTOP
  0
POLYLINE
  8
SMBOT
 66
1
 70
1
 40
0.03100000000000001
 41
0.03100000000000001
  0
VERTEX
  8
SMBOT
 10
-0.0155
 20
  0
 42
  1
  0
VERTEX
  8
SMBOT
 10
0.0155
 20
  0
 42
  1
  0
SEQEND
  8
SMBOT
  0
POLYLINE
  8
ASYTOP
 66
1
 70
1
 40
0.03100000000000001
 41
0.03100000000000001
  0
VERTEX
  8
ASYTOP
 10
-0.0155
 20
  0
 42
  1
  0
VERTEX
  8
ASYTOP
 10
0.0155
 20
  0
 42
  1
  0
SEQEND
  8
ASYTOP
  0
POLYLINE
  8
ASYBOT
 66
1
 70
1
 40
0.03100000000000001
 41
0.03100000000000001
  0
VERTEX
  8
ASYBOT
 10
-0.0155
 20
  0
 42
  1
  0
VERTEX
  8
ASYBOT
 10
0.0155
 20
  0
 42
  1
  0
SEQEND
  8
ASYBOT
  0
POLYLINE
  8
DRLDWG
 66
1
 70
1
 40
0.02100000000000001
 41
0.02100000000000001
  0
VERTEX
  8
DRLDWG
 10
-0.0105
 20
  0
 42
  1
  0
VERTEX
  8
DRLDWG
 10
0.0105
 20
  0
 42
  1
  0
SEQEND
  8
DRLDWG
  0
POLYLINE
  8
DRILL
 66
1
 70
1
 40
0.02100000000000001
 41
0.02100000000000001
  0
VERTEX
  8
DRILL
 10
-0.0105
 20
  0
 42
  1
  0
VERTEX
  8
DRILL
 10
0.0105
 20
  0
 42
  1
  0
SEQEND
  8
DRILL
  0
ENDBLK
  0
BLOCK
  8
0
  2
padstack_T1_1
 10
0.0
 20
0.0
 30
0.0
 70
2
  0
POINT
  8
0
 10
  0
 20
  0
  0
POLYLINE
  8
TOP
 66
1
 70
1
 40
0.03100000000000001
 41
0.03100000000000001
  0
VERTEX
  8
TOP
 10
-0.0155
 20
  0
 42
  1
  0
VERTEX
  8
TOP
 10
0.0155
 20
  0
 42
  1
  0
SEQEND
  8
TOP
  0
POLYLINE
  8
BOTTOM
 66
1
 70
1
 40
0.03100000000000001
 41
0.03100000000000001
  0
VERTEX
  8
BOTTOM
 10
-0.0155
 20
  0
 42
  1
  0
VERTEX
  8
BOTTOM
 10
0.0155
 20
  0
 42
  1
  0
SEQEND
  8
BOTTOM
  0
POLYLINE
  8
GND
 66
1
 70
1
 40
0.03500000000000001
 41
0.03500000000000001
  0
VERTEX
  8
GND
 10
-0.01750000000000001
 20
  0
 42
  1
  0
VERTEX
  8
GND
 10
0.01750000000000001
 20
  0
 42
  1
  0
SEQEND
  8
GND
  0
POLYLINE
  8
POWER
 66
1
 70
1
 40
0.03500000000000001
 41
0.03500000000000001
  0
VERTEX
  8
POWER
 10
-0.01750000000000001
 20
  0
 42
  1
  0
VERTEX
  8
POWER
 10
0.01750000000000001
 20
  0
 42
  1
  0
SEQEND
  8
POWER
  0
POLYLINE
  8
INNER1
 66
1
 70
1
 40
0.03100000000000001
 41
0.03100000000000001
  0
VERTEX
  8
INNER1
 10
-0.0155
 20
  0
 42
  1
  0
VERTEX
  8
INNER1
 10
0.0155
 20
  0
 42
  1
  0
SEQEND
  8
INNER1
  0
POLYLINE
  8
INNER2
 66
1
 70
1
 40
0.03100000000000001
 41
0.03100000000000001
  0
VERTEX
  8
INNER2
 10
-0.0155
 20
  0
 42
  1
  0
VERTEX
  8
INNER2
 10
0.0155
 20
  0
 42
  1
  0
SEQEND
  8
INNER2
  0
POLYLINE
  8
INNER3
 66
1
 70
1
 40
0.03100000000000001
 41
0.03100000000000001
  0
VERTEX
  8
INNER3
 10
-0.0155
 20
  0
 42
  1
  0
VERTEX
  8
INNER3
 10
0.0155
 20
  0
 42
  1
  0
SEQEND
  8
INNER3
  0
POLYLINE
  8
INNER4
 66
1
 70
1
 40
0.03100000000000001
 41
0.03100000000000001
  0
VERTEX
  8
INNER4
 10
-0.0155
 20
  0
 42
  1
  0
VERTEX
  8
INNER4
 10
0.0155
 20
  0
 42
  1
  0
SEQEND
  8
INNER4
  0
POLYLINE
  8
INNER5
 66
1
 70
1
 40
0.03100000000000001
 41
0.03100000000000001
  0
VERTEX
  8
INNER5
 10
-0.0155
 20
  0
 42
  1
  0
VERTEX
  8
INNER5
 10
0.0155
 20
  0
 42
  1
  0
SEQEND
  8
INNER5
  0
POLYLINE
  8
INNER6
 66
1
 70
1
 40
0.03100000000000001
 41
0.03100000000000001
  0
VERTEX
  8
INNER6
 10
-0.0155
 20
  0
 42
  1
  0
VERTEX
  8
INNER6
 10
0.0155
 20
  0
 42
  1
  0
SEQEND
  8
INNER6
  0
POLYLINE
  8
INNER7
 66
1
 70
1
 40
0.03100000000000001
 41
0.03100000000000001
  0
VERTEX
  8
INNER7
 10
-0.0155
 20
  0
 42
  1
  0
VERTEX
  8
INNER7
 10
0.0155
 20
  0
 42
  1
  0
SEQEND
  8
INNER7
  0
POLYLINE
  8
INNER8
 66
1
 70
1
 40
0.03100000000000001
 41
0.03100000000000001
  0
VERTEX
  8
INNER8
 10
-0.0155
 20
  0
 42
  1
  0
VERTEX
  8
INNER8
 10
0.0155
 20
  0
 42
  1
  0
SEQEND
  8
INNER8
  0
POLYLINE
  8
INNER9
 66
1
 70
1
 40
0.03100000000000001
 41
0.03100000000000001
  0
VERTEX
  8
INNER9
 10
-0.0155
 20
  0
 42
  1
  0
VERTEX
  8
INNER9
 10
0.0155
 20
  0
 42
  1
  0
SEQEND
  8
INNER9
  0
POLYLINE
  8
INNER10
 66
1
 70
1
 40
0.03100000000000001
 41
0.03100000000000001
  0
VERTEX
  8
INNER10
 10
-0.0155
 20
  0
 42
  1
  0
VERTEX
  8
INNER10
 10
0.0155
 20
  0
 42
  1
  0
SEQEND
  8
INNER10
  0
POLYLINE
  8
INNER11
 66
1
 70
1
 40
0.03100000000000001
 41
0.03100000000000001
  0
VERTEX
  8
INNER11
 10
-0.0155
 20
  0
 42
  1
  0
VERTEX
  8
INNER11
 10
0.0155
 20
  0
 42
  1
  0
SEQEND
  8
INNER11
  0
POLYLINE
  8
INNER12
 66
1
 70
1
 40
0.03100000000000001
 41
0.03100000000000001
  0
VERTEX
  8
INNER12
 10
-0.0155
 20
  0
 42
  1
  0
VERTEX
  8
INNER12
 10
0.0155
 20
  0
 42
  1
  0
SEQEND
  8
INNER12
  0
POLYLINE
  8
SMTOP
 66
1
 70
1
 40
0.03350000000000001
 41
0.03350000000000001
  0
VERTEX
  8
SMTOP
 10
-0.01675
 20
  0
 42
  1
  0
VERTEX
  8
SMTOP
 10
0.01675
 20
  0
 42
  1
  0
SEQEND
  8
SMTOP
  0
POLYLINE
  8
SMBOT
 66
1
 70
1
 40
0.03350000000000001
 41
0.03350000000000001
  0
VERTEX
  8
SMBOT
 10
-0.01675
 20
  0
 42
  1
  0
VERTEX
  8
SMBOT
 10
0.01675
 20
  0
 42
  1
  0
SEQEND
  8
SMBOT
  0
POLYLINE
  8
DRLDWG
 66
1
 70
1
 40
0.01900000000000001
 41
0.01900000000000001
  0
VERTEX
  8
DRLDWG
 10
-0.009500000000000003
 20
  0
 42
  1
  0
VERTEX
  8
DRLDWG
 10
0.009500000000000003
 20
  0
 42
  1
  0
SEQEND
  8
DRLDWG
  0
POLYLINE
  8
DRILL
 66
1
 70
1
 40
0.01900000000000001
 41
0.01900000000000001
  0
VERTEX
  8
DRILL
 10
-0.009500000000000003
 20
  0
 42
  1
  0
VERTEX
  8
DRILL
 10
0.009500000000000003
 20
  0
 42
  1
  0
SEQEND
  8
DRILL
  0
ENDBLK
  0
BLOCK
  8
0
  2
padstack_TM_AXIAL_llb_pad3
 10
0.0
 20
0.0
 30
0.0
 70
2
  0
POINT
  8
0
 10
  0
 20
  0
  0
POLYLINE
  8
TOP
 66
1
 70
1
 40
0.02600000000000001
 41
0.02600000000000001
  0
VERTEX
  8
TOP
 10
-0.013
 20
  0
 42
  1
  0
VERTEX
  8
TOP
 10
0.013
 20
  0
 42
  1
  0
SEQEND
  8
TOP
  0
POLYLINE
  8
BOTTOM
 66
1
 70
1
 40
0.02600000000000001
 41
0.02600000000000001
  0
VERTEX
  8
BOTTOM
 10
-0.013
 20
  0
 42
  1
  0
VERTEX
  8
BOTTOM
 10
0.013
 20
  0
 42
  1
  0
SEQEND
  8
BOTTOM
  0
POLYLINE
  8
GND
 66
1
 70
1
 40
0.03600000000000001
 41
0.03600000000000001
  0
VERTEX
  8
GND
 10
-0.01800000000000001
 20
  0
 42
  1
  0
VERTEX
  8
GND
 10
0.01800000000000001
 20
  0
 42
  1
  0
SEQEND
  8
GND
  0
POLYLINE
  8
POWER
 66
1
 70
1
 40
0.03600000000000001
 41
0.03600000000000001
  0
VERTEX
  8
POWER
 10
-0.01800000000000001
 20
  0
 42
  1
  0
VERTEX
  8
POWER
 10
0.01800000000000001
 20
  0
 42
  1
  0
SEQEND
  8
POWER
  0
POLYLINE
  8
INNER1
 66
1
 70
1
 40
0.02600000000000001
 41
0.02600000000000001
  0
VERTEX
  8
INNER1
 10
-0.013
 20
  0
 42
  1
  0
VERTEX
  8
INNER1
 10
0.013
 20
  0
 42
  1
  0
SEQEND
  8
INNER1
  0
POLYLINE
  8
INNER2
 66
1
 70
1
 40
0.02600000000000001
 41
0.02600000000000001
  0
VERTEX
  8
INNER2
 10
-0.013
 20
  0
 42
  1
  0
VERTEX
  8
INNER2
 10
0.013
 20
  0
 42
  1
  0
SEQEND
  8
INNER2
  0
POLYLINE
  8
INNER3
 66
1
 70
1
 40
0.02600000000000001
 41
0.02600000000000001
  0
VERTEX
  8
INNER3
 10
-0.013
 20
  0
 42
  1
  0
VERTEX
  8
INNER3
 10
0.013
 20
  0
 42
  1
  0
SEQEND
  8
INNER3
  0
POLYLINE
  8
INNER4
 66
1
 70
1
 40
0.02600000000000001
 41
0.02600000000000001
  0
VERTEX
  8
INNER4
 10
-0.013
 20
  0
 42
  1
  0
VERTEX
  8
INNER4
 10
0.013
 20
  0
 42
  1
  0
SEQEND
  8
INNER4
  0
POLYLINE
  8
INNER5
 66
1
 70
1
 40
0.02600000000000001
 41
0.02600000000000001
  0
VERTEX
  8
INNER5
 10
-0.013
 20
  0
 42
  1
  0
VERTEX
  8
INNER5
 10
0.013
 20
  0
 42
  1
  0
SEQEND
  8
INNER5
  0
POLYLINE
  8
INNER6
 66
1
 70
1
 40
0.02600000000000001
 41
0.02600000000000001
  0
VERTEX
  8
INNER6
 10
-0.013
 20
  0
 42
  1
  0
VERTEX
  8
INNER6
 10
0.013
 20
  0
 42
  1
  0
SEQEND
  8
INNER6
  0
POLYLINE
  8
INNER7
 66
1
 70
1
 40
0.02600000000000001
 41
0.02600000000000001
  0
VERTEX
  8
INNER7
 10
-0.013
 20
  0
 42
  1
  0
VERTEX
  8
INNER7
 10
0.013
 20
  0
 42
  1
  0
SEQEND
  8
INNER7
  0
POLYLINE
  8
INNER8
 66
1
 70
1
 40
0.02600000000000001
 41
0.02600000000000001
  0
VERTEX
  8
INNER8
 10
-0.013
 20
  0
 42
  1
  0
VERTEX
  8
INNER8
 10
0.013
 20
  0
 42
  1
  0
SEQEND
  8
INNER8
  0
POLYLINE
  8
INNER9
 66
1
 70
1
 40
0.02600000000000001
 41
0.02600000000000001
  0
VERTEX
  8
INNER9
 10
-0.013
 20
  0
 42
  1
  0
VERTEX
  8
INNER9
 10
0.013
 20
  0
 42
  1
  0
SEQEND
  8
INNER9
  0
POLYLINE
  8
INNER10
 66
1
 70
1
 40
0.02600000000000001
 41
0.02600000000000001
  0
VERTEX
  8
INNER10
 10
-0.013
 20
  0
 42
  1
  0
VERTEX
  8
INNER10
 10
0.013
 20
  0
 42
  1
  0
SEQEND
  8
INNER10
  0
POLYLINE
  8
INNER11
 66
1
 70
1
 40
0.02600000000000001
 41
0.02600000000000001
  0
VERTEX
  8
INNER11
 10
-0.013
 20
  0
 42
  1
  0
VERTEX
  8
INNER11
 10
0.013
 20
  0
 42
  1
  0
SEQEND
  8
INNER11
  0
POLYLINE
  8
INNER12
 66
1
 70
1
 40
0.02600000000000001
 41
0.02600000000000001
  0
VERTEX
  8
INNER12
 10
-0.013
 20
  0
 42
  1
  0
VERTEX
  8
INNER12
 10
0.013
 20
  0
 42
  1
  0
SEQEND
  8
INNER12
  0
POLYLINE
  8
SMTOP
 66
1
 70
1
 40
0.02600000000000001
 41
0.02600000000000001
  0
VERTEX
  8
SMTOP
 10
-0.013
 20
  0
 42
  1
  0
VERTEX
  8
SMTOP
 10
0.013
 20
  0
 42
  1
  0
SEQEND
  8
SMTOP
  0
POLYLINE
  8
SMBOT
 66
1
 70
1
 40
0.02600000000000001
 41
0.02600000000000001
  0
VERTEX
  8
SMBOT
 10
-0.013
 20
  0
 42
  1
  0
VERTEX
  8
SMBOT
 10
0.013
 20
  0
 42
  1
  0
SEQEND
  8
SMBOT
  0
POLYLINE
  8
ASYTOP
 66
1
 70
1
 40
0.02600000000000001
 41
0.02600000000000001
  0
VERTEX
  8
ASYTOP
 10
-0.013
 20
  0
 42
  1
  0
VERTEX
  8
ASYTOP
 10
0.013
 20
  0
 42
  1
  0
SEQEND
  8
ASYTOP
  0
POLYLINE
  8
ASYBOT
 66
1
 70
1
 40
0.02600000000000001
 41
0.02600000000000001
  0
VERTEX
  8
ASYBOT
 10
-0.013
 20
  0
 42
  1
  0
VERTEX
  8
ASYBOT
 10
0.013
 20
  0
 42
  1
  0
SEQEND
  8
ASYBOT
  0
POLYLINE
  8
DRLDWG
 66
1
 70
1
 40
0.0155
 41
0.0155
  0
VERTEX
  8
DRLDWG
 10
-0.007750000000000002
 20
  0
 42
  1
  0
VERTEX
  8
DRLDWG
 10
0.007750000000000002
 20
  0
 42
  1
  0
SEQEND
  8
DRLDWG
  0
POLYLINE
  8
DRILL
 66
1
 70
1
 40
0.0155
 41
0.0155
  0
VERTEX
  8
DRILL
 10
-0.007750000000000002
 20
  0
 42
  1
  0
VERTEX
  8
DRILL
 10
0.007750000000000002
 20
  0
 42
  1
  0
SEQEND
  8
DRILL
  0
ENDBLK
  0
BLOCK
  8
0
  2
footprint_VIA1
 10
0.0
 20
0.0
 30
0.0
 70
2
  0
INSERT
  8
PADSTACKS
  2
viastack_VIA1
 10
  0
 20
  0
 30
  0
 50
  0
 41
  1
 42
  1
 43
  1
  0
ENDBLK
  0
BLOCK
  8
0
  2
footprint_VIA2
 10
0.0
 20
0.0
 30
0.0
 70
2
  0
INSERT
  8
PADSTACKS
  2
viastack_VIA2
 10
  0
 20
  0
 30
  0
 50
  0
 41
  1
 42
  1
 43
  1
  0
ENDBLK
  0
BLOCK
  8
0
  2
footprint_VIA3
 10
0.0
 20
0.0
 30
0.0
 70
2
  0
INSERT
  8
PADSTACKS
  2
viastack_VIA3
 10
  0
 20
  0
 30
  0
 50
  0
 41
  1
 42
  1
 43
  1
  0
ENDBLK
  0
BLOCK
  8
0
  2
footprint_VIA4
 10
0.0
 20
0.0
 30
0.0
 70
2
  0
INSERT
  8
PADSTACKS
  2
viastack_VIA4
 10
  0
 20
  0
 30
  0
 50
  0
 41
  1
 42
  1
 43
  1
  0
ENDBLK
  0
BLOCK
  8
0
  2
footprint_VIA5
 10
0.0
 20
0.0
 30
0.0
 70
2
  0
INSERT
  8
PADSTACKS
  2
viastack_VIA5
 10
  0
 20
  0
 30
  0
 50
  0
 41
  1
 42
  1
 43
  1
  0
ENDBLK
  0
BLOCK
  8
0
  2
footprint_VIA6
 10
0.0
 20
0.0
 30
0.0
 70
2
  0
INSERT
  8
PADSTACKS
  2
viastack_VIA6
 10
  0
 20
  0
 30
  0
 50
  0
 41
  1
 42
  1
 43
  1
  0
ENDBLK
  0
BLOCK
  8
0
  2
footprint_VIA7
 10
0.0
 20
0.0
 30
0.0
 70
2
  0
INSERT
  8
PADSTACKS
  2
viastack_VIA7
 10
  0
 20
  0
 30
  0
 50
  0
 41
  1
 42
  1
 43
  1
  0
ENDBLK
  0
BLOCK
  8
0
  2
footprint_VIA8
 10
0.0
 20
0.0
 30
0.0
 70
2
  0
INSERT
  8
PADSTACKS
  2
viastack_VIA8
 10
  0
 20
  0
 30
  0
 50
  0
 41
  1
 42
  1
 43
  1
  0
ENDBLK
  0
BLOCK
  8
0
  2
footprint_VIA9
 10
0.0
 20
0.0
 30
0.0
 70
2
  0
INSERT
  8
PADSTACKS
  2
viastack_VIA9
 10
  0
 20
  0
 30
  0
 50
  0
 41
  1
 42
  1
 43
  1
  0
ENDBLK
  0
BLOCK
  8
0
  2
footprint_VIA10
 10
0.0
 20
0.0
 30
0.0
 70
2
  0
INSERT
  8
PADSTACKS
  2
viastack_VIA10
 10
  0
 20
  0
 30
  0
 50
  0
 41
  1
 42
  1
 43
  1
  0
ENDBLK
  0
BLOCK
  8
0
  2
footprint_VIA11
 10
0.0
 20
0.0
 30
0.0
 70
2
  0
INSERT
  8
PADSTACKS
  2
viastack_VIA11
 10
  0
 20
  0
 30
  0
 50
  0
 41
  1
 42
  1
 43
  1
  0
ENDBLK
  0
BLOCK
  8
0
  2
footprint_VIA12
 10
0.0
 20
0.0
 30
0.0
 70
2
  0
INSERT
  8
PADSTACKS
  2
viastack_VIA12
 10
  0
 20
  0
 30
  0
 50
  0
 41
  1
 42
  1
 43
  1
  0
ENDBLK
  0
BLOCK
  8
0
  2
footprint_VIA13
 10
0.0
 20
0.0
 30
0.0
 70
2
  0
INSERT
  8
PADSTACKS
  2
viastack_VIA13
 10
  0
 20
  0
 30
  0
 50
  0
 41
  1
 42
  1
 43
  1
  0
ENDBLK
  0
BLOCK
  8
0
  2
footprint_VIA14
 10
0.0
 20
0.0
 30
0.0
 70
2
  0
INSERT
  8
PADSTACKS
  2
viastack_VIA14
 10
  0
 20
  0
 30
  0
 50
  0
 41
  1
 42
  1
 43
  1
  0
ENDBLK
  0
BLOCK
  8
0
  2
footprint_VIA15
 10
0.0
 20
0.0
 30
0.0
 70
2
  0
INSERT
  8
PADSTACKS
  2
viastack_VIA15
 10
  0
 20
  0
 30
  0
 50
  0
 41
  1
 42
  1
 43
  1
  0
ENDBLK
  0
BLOCK
  8
0
  2
footprint_VIA16
 10
0.0
 20
0.0
 30
0.0
 70
2
  0
INSERT
  8
PADSTACKS
  2
viastack_VIA16
 10
  0
 20
  0
 30
  0
 50
  0
 41
  1
 42
  1
 43
  1
  0
ENDBLK
  0
BLOCK
  8
0
  2
footprint_BLKCON_156_RH_TM1SQS_
 10
0.0
 20
0.0
 30
0.0
 70
2
  0
POLYLINE
  8
OBS_SSTOP
 66
1
 70
0
 40
0.008000000000000002
 41
0.008000000000000002
  0
VERTEX
  8
OBS_SSTOP
 10
0.9360000000000003
 20
0.07800000000000001
  0
VERTEX
  8
OBS_SSTOP
 10
0.9360000000000003
 20
0.5460000000000002
  0
SEQEND
  8
OBS_SSTOP
  0
POLYLINE
  8
OBS_ASYTOP
 66
1
 70
0
 40
0.008000000000000002
 41
0.008000000000000002
  0
VERTEX
  8
OBS_ASYTOP
 10
0.9360000000000003
 20
0.07800000000000001
  0
VERTEX
  8
OBS_ASYTOP
 10
0.9360000000000003
 20
0.5460000000000002
  0
SEQEND
  8
OBS_ASYTOP
  0
POLYLINE
  8
OBS_SSTOP
 66
1
 70
0
 40
0.008000000000000002
 41
0.008000000000000002
  0
VERTEX
  8
OBS_SSTOP
 10
0.6240000000000001
 20
0.5460000000000002
  0
VERTEX
  8
OBS_SSTOP
 10
0.6240000000000001
 20
0.07800000000000001
  0
SEQEND
  8
OBS_SSTOP
  0
POLYLINE
  8
OBS_ASYTOP
 66
1
 70
0
 40
0.008000000000000002
 41
0.008000000000000002
  0
VERTEX
  8
OBS_ASYTOP
 10
0.6240000000000001
 20
0.5460000000000002
  0
VERTEX
  8
OBS_ASYTOP
 10
0.6240000000000001
 20
0.07800000000000001
  0
SEQEND
  8
OBS_ASYTOP
  0
POLYLINE
  8
OBS_SSTOP
 66
1
 70
0
 40
0.008000000000000002
 41
0.008000000000000002
  0
VERTEX
  8
OBS_SSTOP
 10
0.3120000000000001
 20
0.07800000000000001
  0
VERTEX
  8
OBS_SSTOP
 10
0.3120000000000001
 20
0.5460000000000002
  0
SEQEND
  8
OBS_SSTOP
  0
POLYLINE
  8
OBS_ASYTOP
 66
1
 70
0
 40
0.008000000000000002
 41
0.008000000000000002
  0
VERTEX
  8
OBS_ASYTOP
 10
0.3120000000000001
 20
0.07800000000000001
  0
VERTEX
  8
OBS_ASYTOP
 10
0.3120000000000001
 20
0.5460000000000002
  0
SEQEND
  8
OBS_ASYTOP
  0
POLYLINE
  8
OBS_SSTOP
 66
1
 70
0
 40
0.008000000000000002
 41
0.008000000000000002
  0
VERTEX
  8
OBS_SSTOP
 10
  0
 20
0.5460000000000002
  0
VERTEX
  8
OBS_SSTOP
 10
  0
 20
0.07800000000000001
  0
SEQEND
  8
OBS_SSTOP
  0
POLYLINE
  8
OBS_ASYTOP
 66
1
 70
0
 40
0.008000000000000002
 41
0.008000000000000002
  0
VERTEX
  8
OBS_ASYTOP
 10
  0
 20
0.5460000000000002
  0
VERTEX
  8
OBS_ASYTOP
 10
  0
 20
0.07800000000000001
  0
SEQEND
  8
OBS_ASYTOP
  0
POLYLINE
  8
OBS_SSTOP
 66
1
 70
0
 40
0.008000000000000002
 41
0.008000000000000002
  0
VERTEX
  8
OBS_SSTOP
 10
1.95
 20
0.07800000000000001
  0
VERTEX
  8
OBS_SSTOP
 10
-0.08580000000000002
 20
0.07800000000000001
  0
VERTEX
  8
OBS_SSTOP
 10
-0.08580000000000002
 20
-0.07800000000000001
  0
VERTEX
  8
OBS_SSTOP
 10
  0
 20
-0.07800000000000001
  0
VERTEX
  8
OBS_SSTOP
 10
0.3120000000000001
 20
-0.07800000000000001
  0
VERTEX
  8
OBS_SSTOP
 10
0.6240000000000001
 20
-0.07800000000000001
  0
VERTEX
  8
OBS_SSTOP
 10
0.9360000000000003
 20
-0.07800000000000001
  0
VERTEX
  8
OBS_SSTOP
 10
1.248
 20
-0.07800000000000001
  0
VERTEX
  8
OBS_SSTOP
 10
1.560000000000001
 20
-0.07800000000000001
  0
VERTEX
  8
OBS_SSTOP
 10
1.872000000000001
 20
-0.07800000000000001
  0
VERTEX
  8
OBS_SSTOP
 10
1.872000000000001
 20
-0.07800000000000001
  0
VERTEX
  8
OBS_SSTOP
 10
1.95
 20
-0.07800000000000001
  0
VERTEX
  8
OBS_SSTOP
 10
1.9578
 20
-0.07800000000000001
  0
VERTEX
  8
OBS_SSTOP
 10
1.9578
 20
0.07800000000000001
  0
VERTEX
  8
OBS_SSTOP
 10
1.95
 20
0.07800000000000001
  0
SEQEND
  8
OBS_SSTOP
  0
POLYLINE
  8
OBS_ASYTOP
 66
1
 70
0
 40
0.008000000000000002
 41
0.008000000000000002
  0
VERTEX
  8
OBS_ASYTOP
 10
1.95
 20
0.07800000000000001
  0
VERTEX
  8
OBS_ASYTOP
 10
-0.08580000000000002
 20
0.07800000000000001
  0
VERTEX
  8
OBS_ASYTOP
 10
-0.08580000000000002
 20
-0.07800000000000001
  0
VERTEX
  8
OBS_ASYTOP
 10
  0
 20
-0.07800000000000001
  0
VERTEX
  8
OBS_ASYTOP
 10
0.3120000000000001
 20
-0.07800000000000001
  0
VERTEX
  8
OBS_ASYTOP
 10
0.6240000000000001
 20
-0.07800000000000001
  0
VERTEX
  8
OBS_ASYTOP
 10
0.9360000000000003
 20
-0.07800000000000001
  0
VERTEX
  8
OBS_ASYTOP
 10
1.248
 20
-0.07800000000000001
  0
VERTEX
  8
OBS_ASYTOP
 10
1.560000000000001
 20
-0.07800000000000001
  0
VERTEX
  8
OBS_ASYTOP
 10
1.872000000000001
 20
-0.07800000000000001
  0
VERTEX
  8
OBS_ASYTOP
 10
1.872000000000001
 20
-0.07800000000000001
  0
VERTEX
  8
OBS_ASYTOP
 10
1.95
 20
-0.07800000000000001
  0
VERTEX
  8
OBS_ASYTOP
 10
1.9578
 20
-0.07800000000000001
  0
VERTEX
  8
OBS_ASYTOP
 10
1.9578
 20
0.07800000000000001
  0
VERTEX
  8
OBS_ASYTOP
 10
1.95
 20
0.07800000000000001
  0
SEQEND
  8
OBS_ASYTOP
  0
POLYLINE
  8
OBS_GLOBAL_LAYER
 66
1
 39
0.001
 70
1
 40
8.333333333333335e-006
 41
8.333333333333335e-006
  0
VERTEX
  8
OBS_GLOBAL_LAYER
 10
-0.08980000000000002
 20
-0.08200000000000002
  0
VERTEX
  8
OBS_GLOBAL_LAYER
 10
1.9618
 20
-0.08200000000000002
  0
VERTEX
  8
OBS_GLOBAL_LAYER
 10
1.9618
 20
0.5500000000000002
  0
VERTEX
  8
OBS_GLOBAL_LAYER
 10
-0.08980000000000002
 20
0.5500000000000002
  0
VERTEX
  8
OBS_GLOBAL_LAYER
 10
-0.08980000000000002
 20
-0.08200000000000002
  0
SEQEND
  8
OBS_GLOBAL_LAYER
  0
POLYLINE
  8
OBS_SSTOP
 66
1
 70
0
 40
0.008000000000000002
 41
0.008000000000000002
  0
VERTEX
  8
OBS_SSTOP
 10
1.872000000000001
 20
0.5460000000000002
  0
VERTEX
  8
OBS_SSTOP
 10
1.872000000000001
 20
0.07800000000000001
  0
SEQEND
  8
OBS_SSTOP
  0
POLYLINE
  8
OBS_ASYTOP
 66
1
 70
0
 40
0.008000000000000002
 41
0.008000000000000002
  0
VERTEX
  8
OBS_ASYTOP
 10
1.872000000000001
 20
0.5460000000000002
  0
VERTEX
  8
OBS_ASYTOP
 10
1.872000000000001
 20
0.07800000000000001
  0
SEQEND
  8
OBS_ASYTOP
  0
POLYLINE
  8
OBS_SSTOP
 66
1
 70
0
 40
0.008000000000000002
 41
0.008000000000000002
  0
VERTEX
  8
OBS_SSTOP
 10
1.560000000000001
 20
0.07800000000000001
  0
VERTEX
  8
OBS_SSTOP
 10
1.560000000000001
 20
0.5460000000000002
  0
SEQEND
  8
OBS_SSTOP
  0
POLYLINE
  8
OBS_ASYTOP
 66
1
 70
0
 40
0.008000000000000002
 41
0.008000000000000002
  0
VERTEX
  8
OBS_ASYTOP
 10
1.560000000000001
 20
0.07800000000000001
  0
VERTEX
  8
OBS_ASYTOP
 10
1.560000000000001
 20
0.5460000000000002
  0
SEQEND
  8
OBS_ASYTOP
  0
POLYLINE
  8
OBS_SSTOP
 66
1
 70
0
 40
0.008000000000000002
 41
0.008000000000000002
  0
VERTEX
  8
OBS_SSTOP
 10
1.248
 20
0.5460000000000002
  0
VERTEX
  8
OBS_SSTOP
 10
1.248
 20
0.07800000000000001
  0
SEQEND
  8
OBS_SSTOP
  0
POLYLINE
  8
OBS_ASYTOP
 66
1
 70
0
 40
0.008000000000000002
 41
0.008000000000000002
  0
VERTEX
  8
OBS_ASYTOP
 10
1.248
 20
0.5460000000000002
  0
VERTEX
  8
OBS_ASYTOP
 10
1.248
 20
0.07800000000000001
  0
SEQEND
  8
OBS_ASYTOP
  0
INSERT
  8
PADSTACKS
  2
padstack_BCON156T_llb_pad1
 10
  0
 20
  0
 30
  0
 50
  0
 41
  1
 42
  1
 43
  1
  0
INSERT
  8
PADSTACKS
  2
padstack_BCON156T_llb_pad2
 10
0.156
 20
  0
 30
  0
 50
  0
 41
  1
 42
  1
 43
  1
  0
INSERT
  8
PADSTACKS
  2
padstack_BCON156T_llb_pad2
 10
0.3120000000000001
 20
  0
 30
  0
 50
  0
 41
  1
 42
  1
 43
  1
  0
INSERT
  8
PADSTACKS
  2
padstack_BCON156T_llb_pad2
 10
0.4680000000000001
 20
  0
 30
  0
 50
  0
 41
  1
 42
  1
 43
  1
  0
INSERT
  8
PADSTACKS
  2
padstack_BCON156T_llb_pad2
 10
0.6240000000000001
 20
  0
 30
  0
 50
  0
 41
  1
 42
  1
 43
  1
  0
INSERT
  8
PADSTACKS
  2
padstack_BCON156T_llb_pad2
 10
0.7800000000000003
 20
  0
 30
  0
 50
  0
 41
  1
 42
  1
 43
  1
  0
INSERT
  8
PADSTACKS
  2
padstack_BCON156T_llb_pad2
 10
0.9360000000000003
 20
  0
 30
  0
 50
  0
 41
  1
 42
  1
 43
  1
  0
INSERT
  8
PADSTACKS
  2
padstack_BCON156T_llb_pad2
 10
1.092
 20
  0
 30
  0
 50
  0
 41
  1
 42
  1
 43
  1
  0
INSERT
  8
PADSTACKS
  2
padstack_BCON156T_llb_pad2
 10
1.248
 20
  0
 30
  0
 50
  0
 41
  1
 42
  1
 43
  1
  0
INSERT
  8
PADSTACKS
  2
padstack_BCON156T_llb_pad1
 10
1.404
 20
  0
 30
  0
 50
  0
 41
  1
 42
  1
 43
  1
  0
INSERT
  8
PADSTACKS
  2
padstack_BCON156T_llb_pad2
 10
1.560000000000001
 20
  0
 30
  0
 50
  0
 41
  1
 42
  1
 43
  1
  0
INSERT
  8
PADSTACKS
  2
padstack_BCON156T_llb_pad2
 10
1.716
 20
  0
 30
  0
 50
  0
 41
  1
 42
  1
 43
  1
  0
INSERT
  8
PADSTACKS
  2
padstack_BCON156T_llb_pad2
 10
1.872000000000001
 20
  0
 30
  0
 50
  0
 41
  1
 42
  1
 43
  1
  0
TEXT
  8
SSTOP
 72
0
 10
2.000216666666667
 20
-0.03063333333333334
 30
  0
 40
0.03750000000000001
 50
  0
  1
13
  0
TEXT
  8
ASYTOP
 72
0
 10
2.000216666666667
 20
-0.03063333333333334
 30
  0
 40
0.03750000000000001
 50
  0
  1
13
  0
TEXT
  8
SSTOP
 72
0
 10
-0.1308833333333334
 20
-0.03063333333333334
 30
  0
 40
0.03750000000000001
 50
  0
  1
1
  0
TEXT
  8
ASYTOP
 72
0
 10
-0.1308833333333334
 20
-0.03063333333333334
 30
  0
 40
0.03750000000000001
 50
  0
  1
1
  0
ATTDEF
  8
ASYTOP
 70
0
 72
0
  1
BLKCON.156/RH/TM1SQS/W.545/13
  2
SYM_NAME
  3

 10
-27.88395000000001
 20
-28.10075000000001
 30
  0
 40
0.02250000000000001
 50
  0
  0
ENDBLK
  0
BLOCK
  8
0
  2
footprint_BLKCON_156_RH_TM1SQ_2
 10
0.0
 20
0.0
 30
0.0
 70
2
  0
INSERT
  8
PADSTACKS
  2
padstack_BCON156T_llb_pad1
 10
  0
 20
  0
 30
  0
 50
  0
 41
  1
 42
  1
 43
  1
  0
INSERT
  8
PADSTACKS
  2
padstack_BCON156T_llb_pad2
 10
0.156
 20
  0
 30
  0
 50
  0
 41
  1
 42
  1
 43
  1
  0
INSERT
  8
PADSTACKS
  2
padstack_BCON156T_llb_pad2
 10
0.3120000000000001
 20
  0
 30
  0
 50
  0
 41
  1
 42
  1
 43
  1
  0
INSERT
  8
PADSTACKS
  2
padstack_BCON156T_llb_pad2
 10
0.4680000000000001
 20
  0
 30
  0
 50
  0
 41
  1
 42
  1
 43
  1
  0
INSERT
  8
PADSTACKS
  2
padstack_BCON156T_llb_pad2
 10
0.6240000000000001
 20
  0
 30
  0
 50
  0
 41
  1
 42
  1
 43
  1
  0
INSERT
  8
PADSTACKS
  2
padstack_BCON156T_llb_pad2
 10
0.7800000000000003
 20
  0
 30
  0
 50
  0
 41
  1
 42
  1
 43
  1
  0
INSERT
  8
PADSTACKS
  2
padstack_BCON156T_llb_pad2
 10
0.9360000000000003
 20
  0
 30
  0
 50
  0
 41
  1
 42
  1
 43
  1
  0
INSERT
  8
PADSTACKS
  2
padstack_BCON156T_llb_pad2
 10
1.092
 20
  0
 30
  0
 50
  0
 41
  1
 42
  1
 43
  1
  0
INSERT
  8
PADSTACKS
  2
padstack_BCON156T_llb_pad2
 10
1.248
 20
  0
 30
  0
 50
  0
 41
  1
 42
  1
 43
  1
  0
INSERT
  8
PADSTACKS
  2
padstack_BCON156T_llb_pad1
 10
1.404
 20
  0
 30
  0
 50
  0
 41
  1
 42
  1
 43
  1
  0
INSERT
  8
PADSTACKS
  2
padstack_BCON156T_llb_pad2
 10
1.560000000000001
 20
  0
 30
  0
 50
  0
 41
  1
 42
  1
 43
  1
  0
INSERT
  8
PADSTACKS
  2
padstack_BCON156T_llb_pad2
 10
1.716
 20
  0
 30
  0
 50
  0
 41
  1
 42
  1
 43
  1
  0
INSERT
  8
PADSTACKS
  2
padstack_BCON156T_llb_pad2
 10
1.872000000000001
 20
  0
 30
  0
 50
  0
 41
  1
 42
  1
 43
  1
  0
ENDBLK
  0
BLOCK
  8
0
  2
footprint_BGA10M_1_27_64_B_76_W
 10
0.0
 20
0.0
 30
0.0
 70
2
  0
POLYLINE
  8
OBS_TOP
 66
1
 39
0.001
 70
1
 40
8.333333333333335e-006
 41
8.333333333333335e-006
  0
VERTEX
  8
OBS_TOP
 10
-0.05900000000000002
 20
-0.05900000000000002
  0
VERTEX
  8
OBS_TOP
 10
0.4840000000000001
 20
-0.05900000000000002
  0
VERTEX
  8
OBS_TOP
 10
0.4840000000000001
 20
0.4840000000000001
  0
VERTEX
  8
OBS_TOP
 10
-0.05900000000000002
 20
0.4840000000000001
  0
VERTEX
  8
OBS_TOP
 10
-0.05900000000000002
 20
-0.05900000000000002
  0
SEQEND
  8
OBS_TOP
  0
POLYLINE
  8
OBS_SSTOP
 66
1
 70
0
 40
0.008000000000000002
 41
0.008000000000000002
  0
VERTEX
  8
OBS_SSTOP
 10
-0.03000000000000001
 20
0.4800000000000001
  0
VERTEX
  8
OBS_SSTOP
 10
-0.03000000000000001
 20
-0.05500000000000001
  0
VERTEX
  8
OBS_SSTOP
 10
-0.05500000000000001
 20
-0.05500000000000001
  0
VERTEX
  8
OBS_SSTOP
 10
-0.05500000000000001
 20
-0.03000000000000001
  0
VERTEX
  8
OBS_SSTOP
 10
0.4800000000000001
 20
-0.03000000000000001
  0
VERTEX
  8
OBS_SSTOP
 10
0.4800000000000001
 20
0.4800000000000001
  0
VERTEX
  8
OBS_SSTOP
 10
-0.03000000000000001
 20
0.4800000000000001
  0
SEQEND
  8
OBS_SSTOP
  0
POLYLINE
  8
OBS_ASYTOP
 66
1
 70
0
 40
0.008000000000000002
 41
0.008000000000000002
  0
VERTEX
  8
OBS_ASYTOP
 10
-0.03000000000000001
 20
0.4800000000000001
  0
VERTEX
  8
OBS_ASYTOP
 10
-0.03000000000000001
 20
-0.05500000000000001
  0
VERTEX
  8
OBS_ASYTOP
 10
-0.05500000000000001
 20
-0.05500000000000001
  0
VERTEX
  8
OBS_ASYTOP
 10
-0.05500000000000001
 20
-0.03000000000000001
  0
VERTEX
  8
OBS_ASYTOP
 10
0.4800000000000001
 20
-0.03000000000000001
  0
VERTEX
  8
OBS_ASYTOP
 10
0.4800000000000001
 20
0.4800000000000001
  0
VERTEX
  8
OBS_ASYTOP
 10
-0.03000000000000001
 20
0.4800000000000001
  0
SEQEND
  8
OBS_ASYTOP
  0
INSERT
  8
PADSTACKS
  2
padstack_BGA_llb_pad1_1
 10
  0
 20
  0
 30
  0
 50
 90
 41
  1
 42
  1
 43
  1
  0
INSERT
  8
PADSTACKS
  2
padstack_BGA_llb_pad2_1
 10
  0
 20
0.05000000000000001
 30
  0
 50
  0
 41
  1
 42
  1
 43
  1
  0
INSERT
  8
PADSTACKS
  2
padstack_BGA_llb_pad2_1
 10
  0
 20
0.1
 30
  0
 50
  0
 41
  1
 42
  1
 43
  1
  0
INSERT
  8
PADSTACKS
  2
padstack_BGA_llb_pad2_1
 10
  0
 20
0.1500000000000001
 30
  0
 50
  0
 41
  1
 42
  1
 43
  1
  0
INSERT
  8
PADSTACKS
  2
padstack_BGA_llb_pad2_1
 10
  0
 20
0.2
 30
  0
 50
  0
 41
  1
 42
  1
 43
  1
  0
INSERT
  8
PADSTACKS
  2
padstack_BGA_llb_pad2_1
 10
  0
 20
0.2500000000000001
 30
  0
 50
  0
 41
  1
 42
  1
 43
  1
  0
INSERT
  8
PADSTACKS
  2
padstack_BGA_llb_pad2_1
 10
  0
 20
0.3000000000000001
 30
  0
 50
  0
 41
  1
 42
  1
 43
  1
  0
INSERT
  8
PADSTACKS
  2
padstack_BGA_llb_pad2_1
 10
  0
 20
0.3500000000000001
 30
  0
 50
  0
 41
  1
 42
  1
 43
  1
  0
INSERT
  8
PADSTACKS
  2
padstack_BGA_llb_pad2_1
 10
  0
 20
0.4000000000000001
 30
  0
 50
  0
 41
  1
 42
  1
 43
  1
  0
INSERT
  8
PADSTACKS
  2
padstack_BGA_llb_pad2_1
 10
  0
 20
0.4500000000000001
 30
  0
 50
  0
 41
  1
 42
  1
 43
  1
  0
INSERT
  8
PADSTACKS
  2
padstack_BGA_llb_pad2_1
 10
0.05000000000000001
 20
  0
 30
  0
 50
  0
 41
  1
 42
  1
 43
  1
  0
INSERT
  8
PADSTACKS
  2
padstack_BGA_llb_pad2_1
 10
0.05000000000000001
 20
0.05000000000000001
 30
  0
 50
  0
 41
  1
 42
  1
 43
  1
  0
INSERT
  8
PADSTACKS
  2
padstack_BGA_llb_pad2_1
 10
0.05000000000000001
 20
0.1
 30
  0
 50
  0
 41
  1
 42
  1
 43
  1
  0
INSERT
  8
PADSTACKS
  2
padstack_BGA_llb_pad2_1
 10
0.05000000000000001
 20
0.1500000000000001
 30
  0
 50
  0
 41
  1
 42
  1
 43
  1
  0
INSERT
  8
PADSTACKS
  2
padstack_BGA_llb_pad2_1
 10
0.05000000000000001
 20
0.2
 30
  0
 50
  0
 41
  1
 42
  1
 43
  1
  0
INSERT
  8
PADSTACKS
  2
padstack_BGA_llb_pad2_1
 10
0.05000000000000001
 20
0.2500000000000001
 30
  0
 50
  0
 41
  1
 42
  1
 43
  1
  0
INSERT
  8
PADSTACKS
  2
padstack_BGA_llb_pad2_1
 10
0.05000000000000001
 20
0.3000000000000001
 30
  0
 50
  0
 41
  1
 42
  1
 43
  1
  0
INSERT
  8
PADSTACKS
  2
padstack_BGA_llb_pad2_1
 10
0.05000000000000001
 20
0.3500000000000001
 30
  0
 50
  0
 41
  1
 42
  1
 43
  1
  0
INSERT
  8
PADSTACKS
  2
padstack_BGA_llb_pad2_1
 10
0.05000000000000001
 20
0.4000000000000001
 30
  0
 50
  0
 41
  1
 42
  1
 43
  1
  0
INSERT
  8
PADSTACKS
  2
padstack_BGA_llb_pad2_1
 10
0.05000000000000001
 20
0.4500000000000001
 30
  0
 50
  0
 41
  1
 42
  1
 43
  1
  0
INSERT
  8
PADSTACKS
  2
padstack_BGA_llb_pad2_1
 10
0.1
 20
  0
 30
  0
 50
  0
 41
  1
 42
  1
 43
  1
  0
INSERT
  8
PADSTACKS
  2
padstack_BGA_llb_pad2_1
 10
0.1
 20
0.05000000000000001
 30
  0
 50
  0
 41
  1
 42
  1
 43
  1
  0
INSERT
  8
PADSTACKS
  2
padstack_BGA_llb_pad2_1
 10
0.1
 20
0.4000000000000001
 30
  0
 50
  0
 41
  1
 42
  1
 43
  1
  0
INSERT
  8
PADSTACKS
  2
padstack_BGA_llb_pad2_1
 10
0.1
 20
0.4500000000000001
 30
  0
 50
  0
 41
  1
 42
  1
 43
  1
  0
INSERT
  8
PADSTACKS
  2
padstack_BGA_llb_pad2_1
 10
0.1500000000000001
 20
  0
 30
  0
 50
  0
 41
  1
 42
  1
 43
  1
  0
INSERT
  8
PADSTACKS
  2
padstack_BGA_llb_pad2_1
 10
0.1500000000000001
 20
0.05000000000000001
 30
  0
 50
  0
 41
  1
 42
  1
 43
  1
  0
INSERT
  8
PADSTACKS
  2
padstack_BGA_llb_pad2_1
 10
0.1500000000000001
 20
0.4000000000000001
 30
  0
 50
  0
 41
  1
 42
  1
 43
  1
  0
INSERT
  8
PADSTACKS
  2
padstack_BGA_llb_pad2_1
 10
0.1500000000000001
 20
0.4500000000000001
 30
  0
 50
  0
 41
  1
 42
  1
 43
  1
  0
INSERT
  8
PADSTACKS
  2
padstack_BGA_llb_pad2_1
 10
0.2
 20
  0
 30
  0
 50
  0
 41
  1
 42
  1
 43
  1
  0
INSERT
  8
PADSTACKS
  2
padstack_BGA_llb_pad2_1
 10
0.2
 20
0.05000000000000001
 30
  0
 50
  0
 41
  1
 42
  1
 43
  1
  0
INSERT
  8
PADSTACKS
  2
padstack_BGA_llb_pad2_1
 10
0.2
 20
0.4000000000000001
 30
  0
 50
  0
 41
  1
 42
  1
 43
  1
  0
INSERT
  8
PADSTACKS
  2
padstack_BGA_llb_pad2_1
 10
0.2
 20
0.4500000000000001
 30
  0
 50
  0
 41
  1
 42
  1
 43
  1
  0
INSERT
  8
PADSTACKS
  2
padstack_BGA_llb_pad2_1
 10
0.2500000000000001
 20
  0
 30
  0
 50
  0
 41
  1
 42
  1
 43
  1
  0
INSERT
  8
PADSTACKS
  2
padstack_BGA_llb_pad2_1
 10
0.2500000000000001
 20
0.05000000000000001
 30
  0
 50
  0
 41
  1
 42
  1
 43
  1
  0
INSERT
  8
PADSTACKS
  2
padstack_BGA_llb_pad2_1
 10
0.2500000000000001
 20
0.4000000000000001
 30
  0
 50
  0
 41
  1
 42
  1
 43
  1
  0
INSERT
  8
PADSTACKS
  2
padstack_BGA_llb_pad2_1
 10
0.2500000000000001
 20
0.4500000000000001
 30
  0
 50
  0
 41
  1
 42
  1
 43
  1
  0
INSERT
  8
PADSTACKS
  2
padstack_BGA_llb_pad2_1
 10
0.3000000000000001
 20
  0
 30
  0
 50
  0
 41
  1
 42
  1
 43
  1
  0
INSERT
  8
PADSTACKS
  2
padstack_BGA_llb_pad2_1
 10
0.3000000000000001
 20
0.05000000000000001
 30
  0
 50
  0
 41
  1
 42
  1
 43
  1
  0
INSERT
  8
PADSTACKS
  2
padstack_BGA_llb_pad2_1
 10
0.3000000000000001
 20
0.4000000000000001
 30
  0
 50
  0
 41
  1
 42
  1
 43
  1
  0
INSERT
  8
PADSTACKS
  2
padstack_BGA_llb_pad2_1
 10
0.3000000000000001
 20
0.4500000000000001
 30
  0
 50
  0
 41
  1
 42
  1
 43
  1
  0
INSERT
  8
PADSTACKS
  2
padstack_BGA_llb_pad2_1
 10
0.3500000000000001
 20
  0
 30
  0
 50
  0
 41
  1
 42
  1
 43
  1
  0
INSERT
  8
PADSTACKS
  2
padstack_BGA_llb_pad2_1
 10
0.3500000000000001
 20
0.05000000000000001
 30
  0
 50
  0
 41
  1
 42
  1
 43
  1
  0
INSERT
  8
PADSTACKS
  2
padstack_BGA_llb_pad2_1
 10
0.3500000000000001
 20
0.4000000000000001
 30
  0
 50
  0
 41
  1
 42
  1
 43
  1
  0
INSERT
  8
PADSTACKS
  2
padstack_BGA_llb_pad2_1
 10
0.3500000000000001
 20
0.4500000000000001
 30
  0
 50
  0
 41
  1
 42
  1
 43
  1
  0
INSERT
  8
PADSTACKS
  2
padstack_BGA_llb_pad2_1
 10
0.4000000000000001
 20
  0
 30
  0
 50
  0
 41
  1
 42
  1
 43
  1
  0
INSERT
  8
PADSTACKS
  2
padstack_BGA_llb_pad2_1
 10
0.4000000000000001
 20
0.05000000000000001
 30
  0
 50
  0
 41
  1
 42
  1
 43
  1
  0
INSERT
  8
PADSTACKS
  2
padstack_BGA_llb_pad2_1
 10
0.4000000000000001
 20
0.1
 30
  0
 50
  0
 41
  1
 42
  1
 43
  1
  0
INSERT
  8
PADSTACKS
  2
padstack_BGA_llb_pad2_1
 10
0.4000000000000001
 20
0.1500000000000001
 30
  0
 50
  0
 41
  1
 42
  1
 43
  1
  0
INSERT
  8
PADSTACKS
  2
padstack_BGA_llb_pad2_1
 10
0.4000000000000001
 20
0.2
 30
  0
 50
  0
 41
  1
 42
  1
 43
  1
  0
INSERT
  8
PADSTACKS
  2
padstack_BGA_llb_pad2_1
 10
0.4000000000000001
 20
0.2500000000000001
 30
  0
 50
  0
 41
  1
 42
  1
 43
  1
  0
INSERT
  8
PADSTACKS
  2
padstack_BGA_llb_pad2_1
 10
0.4000000000000001
 20
0.3000000000000001
 30
  0
 50
  0
 41
  1
 42
  1
 43
  1
  0
INSERT
  8
PADSTACKS
  2
padstack_BGA_llb_pad2_1
 10
0.4000000000000001
 20
0.3500000000000001
 30
  0
 50
  0
 41
  1
 42
  1
 43
  1
  0
INSERT
  8
PADSTACKS
  2
padstack_BGA_llb_pad2_1
 10
0.4000000000000001
 20
0.4000000000000001
 30
  0
 50
  0
 41
  1
 42
  1
 43
  1
  0
INSERT
  8
PADSTACKS
  2
padstack_BGA_llb_pad2_1
 10
0.4000000000000001
 20
0.4500000000000001
 30
  0
 50
  0
 41
  1
 42
  1
 43
  1
  0
INSERT
  8
PADSTACKS
  2
padstack_BGA_llb_pad2_1
 10
0.4500000000000001
 20
  0
 30
  0
 50
  0
 41
  1
 42
  1
 43
  1
  0
INSERT
  8
PADSTACKS
  2
padstack_BGA_llb_pad2_1
 10
0.4500000000000001
 20
0.05000000000000001
 30
  0
 50
  0
 41
  1
 42
  1
 43
  1
  0
INSERT
  8
PADSTACKS
  2
padstack_BGA_llb_pad2_1
 10
0.4500000000000001
 20
0.1
 30
  0
 50
  0
 41
  1
 42
  1
 43
  1
  0
INSERT
  8
PADSTACKS
  2
padstack_BGA_llb_pad2_1
 10
0.4500000000000001
 20
0.1500000000000001
 30
  0
 50
  0
 41
  1
 42
  1
 43
  1
  0
INSERT
  8
PADSTACKS
  2
padstack_BGA_llb_pad2_1
 10
0.4500000000000001
 20
0.2
 30
  0
 50
  0
 41
  1
 42
  1
 43
  1
  0
INSERT
  8
PADSTACKS
  2
padstack_BGA_llb_pad2_1
 10
0.4500000000000001
 20
0.2500000000000001
 30
  0
 50
  0
 41
  1
 42
  1
 43
  1
  0
INSERT
  8
PADSTACKS
  2
padstack_BGA_llb_pad2_1
 10
0.4500000000000001
 20
0.3000000000000001
 30
  0
 50
  0
 41
  1
 42
  1
 43
  1
  0
INSERT
  8
PADSTACKS
  2
padstack_BGA_llb_pad2_1
 10
0.4500000000000001
 20
0.3500000000000001
 30
  0
 50
  0
 41
  1
 42
  1
 43
  1
  0
INSERT
  8
PADSTACKS
  2
padstack_BGA_llb_pad2_1
 10
0.4500000000000001
 20
0.4000000000000001
 30
  0
 50
  0
 41
  1
 42
  1
 43
  1
  0
INSERT
  8
PADSTACKS
  2
padstack_BGA_llb_pad2_1
 10
0.4500000000000001
 20
0.4500000000000001
 30
  0
 50
  0
 41
  1
 42
  1
 43
  1
  0
ATTDEF
  8
ASYTOP
 70
0
 72
0
  1
BGA10M_1.27/64/B.76/W13.00
  2
SYM_NAME
  3

 10
-28.67185000000001
 20
-27.87243333333334
 30
  0
 40
0.02250000000000001
 50
  0
  0
ENDBLK
  0
BLOCK
  8
0
  2
footprint_BGA10M_1_27_64_B_76_2
 10
0.0
 20
0.0
 30
0.0
 70
2
  0
INSERT
  8
PADSTACKS
  2
padstack_BGA_llb_pad1_1
 10
  0
 20
  0
 30
  0
 50
 90
 41
  1
 42
  1
 43
  1
  0
INSERT
  8
PADSTACKS
  2
padstack_BGA_llb_pad2_1
 10
  0
 20
0.05000000000000001
 30
  0
 50
  0
 41
  1
 42
  1
 43
  1
  0
INSERT
  8
PADSTACKS
  2
padstack_BGA_llb_pad2_1
 10
  0
 20
0.1
 30
  0
 50
  0
 41
  1
 42
  1
 43
  1
  0
INSERT
  8
PADSTACKS
  2
padstack_BGA_llb_pad2_1
 10
  0
 20
0.1500000000000001
 30
  0
 50
  0
 41
  1
 42
  1
 43
  1
  0
INSERT
  8
PADSTACKS
  2
padstack_BGA_llb_pad2_1
 10
  0
 20
0.2
 30
  0
 50
  0
 41
  1
 42
  1
 43
  1
  0
INSERT
  8
PADSTACKS
  2
padstack_BGA_llb_pad2_1
 10
  0
 20
0.2500000000000001
 30
  0
 50
  0
 41
  1
 42
  1
 43
  1
  0
INSERT
  8
PADSTACKS
  2
padstack_BGA_llb_pad2_1
 10
  0
 20
0.3000000000000001
 30
  0
 50
  0
 41
  1
 42
  1
 43
  1
  0
INSERT
  8
PADSTACKS
  2
padstack_BGA_llb_pad2_1
 10
  0
 20
0.3500000000000001
 30
  0
 50
  0
 41
  1
 42
  1
 43
  1
  0
INSERT
  8
PADSTACKS
  2
padstack_BGA_llb_pad2_1
 10
  0
 20
0.4000000000000001
 30
  0
 50
  0
 41
  1
 42
  1
 43
  1
  0
INSERT
  8
PADSTACKS
  2
padstack_BGA_llb_pad2_1
 10
  0
 20
0.4500000000000001
 30
  0
 50
  0
 41
  1
 42
  1
 43
  1
  0
INSERT
  8
PADSTACKS
  2
padstack_BGA_llb_pad2_1
 10
0.05000000000000001
 20
  0
 30
  0
 50
  0
 41
  1
 42
  1
 43
  1
  0
INSERT
  8
PADSTACKS
  2
padstack_BGA_llb_pad2_1
 10
0.05000000000000001
 20
0.05000000000000001
 30
  0
 50
  0
 41
  1
 42
  1
 43
  1
  0
INSERT
  8
PADSTACKS
  2
padstack_BGA_llb_pad2_1
 10
0.05000000000000001
 20
0.1
 30
  0
 50
  0
 41
  1
 42
  1
 43
  1
  0
INSERT
  8
PADSTACKS
  2
padstack_BGA_llb_pad2_1
 10
0.05000000000000001
 20
0.1500000000000001
 30
  0
 50
  0
 41
  1
 42
  1
 43
  1
  0
INSERT
  8
PADSTACKS
  2
padstack_BGA_llb_pad2_1
 10
0.05000000000000001
 20
0.2
 30
  0
 50
  0
 41
  1
 42
  1
 43
  1
  0
INSERT
  8
PADSTACKS
  2
padstack_BGA_llb_pad2_1
 10
0.05000000000000001
 20
0.2500000000000001
 30
  0
 50
  0
 41
  1
 42
  1
 43
  1
  0
INSERT
  8
PADSTACKS
  2
padstack_BGA_llb_pad2_1
 10
0.05000000000000001
 20
0.3000000000000001
 30
  0
 50
  0
 41
  1
 42
  1
 43
  1
  0
INSERT
  8
PADSTACKS
  2
padstack_BGA_llb_pad2_1
 10
0.05000000000000001
 20
0.3500000000000001
 30
  0
 50
  0
 41
  1
 42
  1
 43
  1
  0
INSERT
  8
PADSTACKS
  2
padstack_BGA_llb_pad2_1
 10
0.05000000000000001
 20
0.4000000000000001
 30
  0
 50
  0
 41
  1
 42
  1
 43
  1
  0
INSERT
  8
PADSTACKS
  2
padstack_BGA_llb_pad2_1
 10
0.05000000000000001
 20
0.4500000000000001
 30
  0
 50
  0
 41
  1
 42
  1
 43
  1
  0
INSERT
  8
PADSTACKS
  2
padstack_BGA_llb_pad2_1
 10
0.1
 20
  0
 30
  0
 50
  0
 41
  1
 42
  1
 43
  1
  0
INSERT
  8
PADSTACKS
  2
padstack_BGA_llb_pad2_1
 10
0.1
 20
0.05000000000000001
 30
  0
 50
  0
 41
  1
 42
  1
 43
  1
  0
INSERT
  8
PADSTACKS
  2
padstack_BGA_llb_pad2_1
 10
0.1
 20
0.4000000000000001
 30
  0
 50
  0
 41
  1
 42
  1
 43
  1
  0
INSERT
  8
PADSTACKS
  2
padstack_BGA_llb_pad2_1
 10
0.1
 20
0.4500000000000001
 30
  0
 50
  0
 41
  1
 42
  1
 43
  1
  0
INSERT
  8
PADSTACKS
  2
padstack_BGA_llb_pad2_1
 10
0.1500000000000001
 20
  0
 30
  0
 50
  0
 41
  1
 42
  1
 43
  1
  0
INSERT
  8
PADSTACKS
  2
padstack_BGA_llb_pad2_1
 10
0.1500000000000001
 20
0.05000000000000001
 30
  0
 50
  0
 41
  1
 42
  1
 43
  1
  0
INSERT
  8
PADSTACKS
  2
padstack_BGA_llb_pad2_1
 10
0.1500000000000001
 20
0.4000000000000001
 30
  0
 50
  0
 41
  1
 42
  1
 43
  1
  0
INSERT
  8
PADSTACKS
  2
padstack_BGA_llb_pad2_1
 10
0.1500000000000001
 20
0.4500000000000001
 30
  0
 50
  0
 41
  1
 42
  1
 43
  1
  0
INSERT
  8
PADSTACKS
  2
padstack_BGA_llb_pad2_1
 10
0.2
 20
  0
 30
  0
 50
  0
 41
  1
 42
  1
 43
  1
  0
INSERT
  8
PADSTACKS
  2
padstack_BGA_llb_pad2_1
 10
0.2
 20
0.05000000000000001
 30
  0
 50
  0
 41
  1
 42
  1
 43
  1
  0
INSERT
  8
PADSTACKS
  2
padstack_BGA_llb_pad2_1
 10
0.2
 20
0.4000000000000001
 30
  0
 50
  0
 41
  1
 42
  1
 43
  1
  0
INSERT
  8
PADSTACKS
  2
padstack_BGA_llb_pad2_1
 10
0.2
 20
0.4500000000000001
 30
  0
 50
  0
 41
  1
 42
  1
 43
  1
  0
INSERT
  8
PADSTACKS
  2
padstack_BGA_llb_pad2_1
 10
0.2500000000000001
 20
  0
 30
  0
 50
  0
 41
  1
 42
  1
 43
  1
  0
INSERT
  8
PADSTACKS
  2
padstack_BGA_llb_pad2_1
 10
0.2500000000000001
 20
0.05000000000000001
 30
  0
 50
  0
 41
  1
 42
  1
 43
  1
  0
INSERT
  8
PADSTACKS
  2
padstack_BGA_llb_pad2_1
 10
0.2500000000000001
 20
0.4000000000000001
 30
  0
 50
  0
 41
  1
 42
  1
 43
  1
  0
INSERT
  8
PADSTACKS
  2
padstack_BGA_llb_pad2_1
 10
0.2500000000000001
 20
0.4500000000000001
 30
  0
 50
  0
 41
  1
 42
  1
 43
  1
  0
INSERT
  8
PADSTACKS
  2
padstack_BGA_llb_pad2_1
 10
0.3000000000000001
 20
  0
 30
  0
 50
  0
 41
  1
 42
  1
 43
  1
  0
INSERT
  8
PADSTACKS
  2
padstack_BGA_llb_pad2_1
 10
0.3000000000000001
 20
0.05000000000000001
 30
  0
 50
  0
 41
  1
 42
  1
 43
  1
  0
INSERT
  8
PADSTACKS
  2
padstack_BGA_llb_pad2_1
 10
0.3000000000000001
 20
0.4000000000000001
 30
  0
 50
  0
 41
  1
 42
  1
 43
  1
  0
INSERT
  8
PADSTACKS
  2
padstack_BGA_llb_pad2_1
 10
0.3000000000000001
 20
0.4500000000000001
 30
  0
 50
  0
 41
  1
 42
  1
 43
  1
  0
INSERT
  8
PADSTACKS
  2
padstack_BGA_llb_pad2_1
 10
0.3500000000000001
 20
  0
 30
  0
 50
  0
 41
  1
 42
  1
 43
  1
  0
INSERT
  8
PADSTACKS
  2
padstack_BGA_llb_pad2_1
 10
0.3500000000000001
 20
0.05000000000000001
 30
  0
 50
  0
 41
  1
 42
  1
 43
  1
  0
INSERT
  8
PADSTACKS
  2
padstack_BGA_llb_pad2_1
 10
0.3500000000000001
 20
0.4000000000000001
 30
  0
 50
  0
 41
  1
 42
  1
 43
  1
  0
INSERT
  8
PADSTACKS
  2
padstack_BGA_llb_pad2_1
 10
0.3500000000000001
 20
0.4500000000000001
 30
  0
 50
  0
 41
  1
 42
  1
 43
  1
  0
INSERT
  8
PADSTACKS
  2
padstack_BGA_llb_pad2_1
 10
0.4000000000000001
 20
  0
 30
  0
 50
  0
 41
  1
 42
  1
 43
  1
  0
INSERT
  8
PADSTACKS
  2
padstack_BGA_llb_pad2_1
 10
0.4000000000000001
 20
0.05000000000000001
 30
  0
 50
  0
 41
  1
 42
  1
 43
  1
  0
INSERT
  8
PADSTACKS
  2
padstack_BGA_llb_pad2_1
 10
0.4000000000000001
 20
0.1
 30
  0
 50
  0
 41
  1
 42
  1
 43
  1
  0
INSERT
  8
PADSTACKS
  2
padstack_BGA_llb_pad2_1
 10
0.4000000000000001
 20
0.1500000000000001
 30
  0
 50
  0
 41
  1
 42
  1
 43
  1
  0
INSERT
  8
PADSTACKS
  2
padstack_BGA_llb_pad2_1
 10
0.4000000000000001
 20
0.2
 30
  0
 50
  0
 41
  1
 42
  1
 43
  1
  0
INSERT
  8
PADSTACKS
  2
padstack_BGA_llb_pad2_1
 10
0.4000000000000001
 20
0.2500000000000001
 30
  0
 50
  0
 41
  1
 42
  1
 43
  1
  0
INSERT
  8
PADSTACKS
  2
padstack_BGA_llb_pad2_1
 10
0.4000000000000001
 20
0.3000000000000001
 30
  0
 50
  0
 41
  1
 42
  1
 43
  1
  0
INSERT
  8
PADSTACKS
  2
padstack_BGA_llb_pad2_1
 10
0.4000000000000001
 20
0.3500000000000001
 30
  0
 50
  0
 41
  1
 42
  1
 43
  1
  0
INSERT
  8
PADSTACKS
  2
padstack_BGA_llb_pad2_1
 10
0.4000000000000001
 20
0.4000000000000001
 30
  0
 50
  0
 41
  1
 42
  1
 43
  1
  0
INSERT
  8
PADSTACKS
  2
padstack_BGA_llb_pad2_1
 10
0.4000000000000001
 20
0.4500000000000001
 30
  0
 50
  0
 41
  1
 42
  1
 43
  1
  0
INSERT
  8
PADSTACKS
  2
padstack_BGA_llb_pad2_1
 10
0.4500000000000001
 20
  0
 30
  0
 50
  0
 41
  1
 42
  1
 43
  1
  0
INSERT
  8
PADSTACKS
  2
padstack_BGA_llb_pad2_1
 10
0.4500000000000001
 20
0.05000000000000001
 30
  0
 50
  0
 41
  1
 42
  1
 43
  1
  0
INSERT
  8
PADSTACKS
  2
padstack_BGA_llb_pad2_1
 10
0.4500000000000001
 20
0.1
 30
  0
 50
  0
 41
  1
 42
  1
 43
  1
  0
INSERT
  8
PADSTACKS
  2
padstack_BGA_llb_pad2_1
 10
0.4500000000000001
 20
0.1500000000000001
 30
  0
 50
  0
 41
  1
 42
  1
 43
  1
  0
INSERT
  8
PADSTACKS
  2
padstack_BGA_llb_pad2_1
 10
0.4500000000000001
 20
0.2
 30
  0
 50
  0
 41
  1
 42
  1
 43
  1
  0
INSERT
  8
PADSTACKS
  2
padstack_BGA_llb_pad2_1
 10
0.4500000000000001
 20
0.2500000000000001
 30
  0
 50
  0
 41
  1
 42
  1
 43
  1
  0
INSERT
  8
PADSTACKS
  2
padstack_BGA_llb_pad2_1
 10
0.4500000000000001
 20
0.3000000000000001
 30
  0
 50
  0
 41
  1
 42
  1
 43
  1
  0
INSERT
  8
PADSTACKS
  2
padstack_BGA_llb_pad2_1
 10
0.4500000000000001
 20
0.3500000000000001
 30
  0
 50
  0
 41
  1
 42
  1
 43
  1
  0
INSERT
  8
PADSTACKS
  2
padstack_BGA_llb_pad2_1
 10
0.4500000000000001
 20
0.4000000000000001
 30
  0
 50
  0
 41
  1
 42
  1
 43
  1
  0
INSERT
  8
PADSTACKS
  2
padstack_BGA_llb_pad2_1
 10
0.4500000000000001
 20
0.4500000000000001
 30
  0
 50
  0
 41
  1
 42
  1
 43
  1
  0
ENDBLK
  0
BLOCK
  8
0
  2
footprint_RESISTOR_VAL
 10
0.0
 20
0.0
 30
0.0
 70
2
  0
POLYLINE
  8
OBS_GLOBAL_LAYER
 66
1
 39
0.001
 70
1
 40
8.333333333333335e-006
 41
8.333333333333335e-006
  0
VERTEX
  8
OBS_GLOBAL_LAYER
 10
-0.04150000000000001
 20
-0.05400000000000001
  0
VERTEX
  8
OBS_GLOBAL_LAYER
 10
0.2415000000000001
 20
-0.05400000000000001
  0
VERTEX
  8
OBS_GLOBAL_LAYER
 10
0.2415000000000001
 20
0.154
  0
VERTEX
  8
OBS_GLOBAL_LAYER
 10
-0.04150000000000001
 20
0.154
  0
VERTEX
  8
OBS_GLOBAL_LAYER
 10
-0.04150000000000001
 20
-0.05400000000000001
  0
SEQEND
  8
OBS_GLOBAL_LAYER
  0
POLYLINE
  8
OBS_SSTOP
 66
1
 70
0
 40
0.008000000000000002
 41
0.008000000000000002
  0
VERTEX
  8
OBS_SSTOP
 10
0.02500000000000001
 20
0.1
  0
VERTEX
  8
OBS_SSTOP
 10
-0.02500000000000001
 20
0.1
  0
SEQEND
  8
OBS_SSTOP
  0
POLYLINE
  8
OBS_ASYTOP
 66
1
 70
0
 40
0.008000000000000002
 41
0.008000000000000002
  0
VERTEX
  8
OBS_ASYTOP
 10
0.02500000000000001
 20
0.1
  0
VERTEX
  8
OBS_ASYTOP
 10
-0.02500000000000001
 20
0.1
  0
SEQEND
  8
OBS_ASYTOP
  0
POLYLINE
  8
OBS_SSTOP
 66
1
 70
0
 40
0.008000000000000002
 41
0.008000000000000002
  0
VERTEX
  8
OBS_SSTOP
 10
-0.03750000000000001
 20
-0.05000000000000001
  0
VERTEX
  8
OBS_SSTOP
 10
0.2375000000000001
 20
-0.05000000000000001
  0
SEQEND
  8
OBS_SSTOP
  0
POLYLINE
  8
OBS_ASYTOP
 66
1
 70
0
 40
0.008000000000000002
 41
0.008000000000000002
  0
VERTEX
  8
OBS_ASYTOP
 10
-0.03750000000000001
 20
-0.05000000000000001
  0
VERTEX
  8
OBS_ASYTOP
 10
0.2375000000000001
 20
-0.05000000000000001
  0
SEQEND
  8
OBS_ASYTOP
  0
POLYLINE
  8
OBS_SSTOP
 66
1
 70
0
 40
0.008000000000000002
 41
0.008000000000000002
  0
VERTEX
  8
OBS_SSTOP
 10
0.2375000000000001
 20
0.03750000000000001
  0
VERTEX
  8
OBS_SSTOP
 10
0.2375000000000001
 20
0.1500000000000001
  0
VERTEX
  8
OBS_SSTOP
 10
-0.03750000000000001
 20
0.1500000000000001
  0
VERTEX
  8
OBS_SSTOP
 10
-0.03750000000000001
 20
0.05000000000000001
  0
SEQEND
  8
OBS_SSTOP
  0
POLYLINE
  8
OBS_ASYTOP
 66
1
 70
0
 40
0.008000000000000002
 41
0.008000000000000002
  0
VERTEX
  8
OBS_ASYTOP
 10
0.2375000000000001
 20
0.03750000000000001
  0
VERTEX
  8
OBS_ASYTOP
 10
0.2375000000000001
 20
0.1500000000000001
  0
VERTEX
  8
OBS_ASYTOP
 10
-0.03750000000000001
 20
0.1500000000000001
  0
VERTEX
  8
OBS_ASYTOP
 10
-0.03750000000000001
 20
0.05000000000000001
  0
SEQEND
  8
OBS_ASYTOP
  0
INSERT
  8
PADSTACKS
  2
padstack_82R66
 10
  0
 20
  0
 30
  0
 50
  0
 41
  1
 42
  1
 43
  1
  0
INSERT
  8
PADSTACKS
  2
padstack_85R61
 10
0.1
 20
0.1
 30
  0
 50
  0
 41
  1
 42
  1
 43
  1
  0
INSERT
  8
PADSTACKS
  2
padstack_82R66
 10
0.2
 20
  0
 30
  0
 50
  0
 41
  1
 42
  1
 43
  1
  0
ATTDEF
  8
ASYTOP
 70
0
 72
0
  1
RESISTOR VAL
  2
SYM_NAME
  3

 10
-28.52686666666667
 20
-27.99993333333334
 30
  0
 40
0.02250000000000001
 50
  0
  0
ENDBLK
  0
BLOCK
  8
0
  2
footprint_RESISTOR_VAL_3
 10
0.0
 20
0.0
 30
0.0
 70
2
  0
INSERT
  8
PADSTACKS
  2
padstack_82R66
 10
  0
 20
  0
 30
  0
 50
  0
 41
  1
 42
  1
 43
  1
  0
INSERT
  8
PADSTACKS
  2
padstack_85R61
 10
0.1
 20
0.1
 30
  0
 50
  0
 41
  1
 42
  1
 43
  1
  0
INSERT
  8
PADSTACKS
  2
padstack_82R66
 10
0.2
 20
  0
 30
  0
 50
  0
 41
  1
 42
  1
 43
  1
  0
ENDBLK
  0
BLOCK
  8
0
  2
footprint_CON2
 10
0.0
 20
0.0
 30
0.0
 70
2
  0
POLYLINE
  8
OBS_GLOBAL_LAYER
 66
1
 39
0.001
 70
1
 40
8.333333333333335e-006
 41
8.333333333333335e-006
  0
VERTEX
  8
OBS_GLOBAL_LAYER
 10
-0.05900000000000002
 20
-0.05400000000000001
  0
VERTEX
  8
OBS_GLOBAL_LAYER
 10
0.159
 20
-0.05400000000000001
  0
VERTEX
  8
OBS_GLOBAL_LAYER
 10
0.159
 20
0.05400000000000001
  0
VERTEX
  8
OBS_GLOBAL_LAYER
 10
-0.05900000000000002
 20
0.05400000000000001
  0
VERTEX
  8
OBS_GLOBAL_LAYER
 10
-0.05900000000000002
 20
-0.05400000000000001
  0
SEQEND
  8
OBS_GLOBAL_LAYER
  0
POLYLINE
  8
OBS_SSTOP
 66
1
 70
0
 40
0.008000000000000002
 41
0.008000000000000002
  0
VERTEX
  8
OBS_SSTOP
 10
0.155
 20
-0.05000000000000001
  0
VERTEX
  8
OBS_SSTOP
 10
0.1
 20
-0.05000000000000001
  0
VERTEX
  8
OBS_SSTOP
 10
  0
 20
-0.05000000000000001
  0
VERTEX
  8
OBS_SSTOP
 10
-0.05500000000000001
 20
-0.05000000000000001
  0
VERTEX
  8
OBS_SSTOP
 10
-0.05500000000000001
 20
0.05000000000000001
  0
VERTEX
  8
OBS_SSTOP
 10
0.155
 20
0.05000000000000001
  0
VERTEX
  8
OBS_SSTOP
 10
0.155
 20
-0.05000000000000001
  0
SEQEND
  8
OBS_SSTOP
  0
POLYLINE
  8
OBS_ASYTOP
 66
1
 70
0
 40
0.008000000000000002
 41
0.008000000000000002
  0
VERTEX
  8
OBS_ASYTOP
 10
0.155
 20
-0.05000000000000001
  0
VERTEX
  8
OBS_ASYTOP
 10
0.1
 20
-0.05000000000000001
  0
VERTEX
  8
OBS_ASYTOP
 10
  0
 20
-0.05000000000000001
  0
VERTEX
  8
OBS_ASYTOP
 10
-0.05500000000000001
 20
-0.05000000000000001
  0
VERTEX
  8
OBS_ASYTOP
 10
-0.05500000000000001
 20
0.05000000000000001
  0
VERTEX
  8
OBS_ASYTOP
 10
0.155
 20
0.05000000000000001
  0
VERTEX
  8
OBS_ASYTOP
 10
0.155
 20
-0.05000000000000001
  0
SEQEND
  8
OBS_ASYTOP
  0
INSERT
  8
PADSTACKS
  2
padstack_BCON100T_llb_pad3
 10
  0
 20
  0
 30
  0
 50
  0
 41
  1
 42
  1
 43
  1
  0
INSERT
  8
PADSTACKS
  2
padstack_BCON100T_llb_pad4
 10
0.1
 20
  0
 30
  0
 50
  0
 41
  1
 42
  1
 43
  1
  0
TEXT
  8
SSTOP
 72
0
 10
-0.1138833333333334
 20
-0.03063333333333334
 30
  0
 40
0.03750000000000001
 50
  0
  1
1
  0
ENDBLK
  0
BLOCK
  8
0
  2
footprint_SW
 10
0.0
 20
0.0
 30
0.0
 70
2
  0
POLYLINE
  8
OBS_SSTOP
 66
1
 70
0
 40
0.008000000000000002
 41
0.008000000000000002
  0
VERTEX
  8
OBS_SSTOP
 10
0.1574666666666667
 20
0.3346333333333334
  0
VERTEX
  8
OBS_SSTOP
 10
0.4133833333333334
 20
0.3346333333333334
  0
VERTEX
  8
OBS_SSTOP
 10
0.4133833333333334
 20
0.07873333333333335
  0
VERTEX
  8
OBS_SSTOP
 10
0.1574666666666667
 20
0.07873333333333335
  0
VERTEX
  8
OBS_SSTOP
 10
0.1574666666666667
 20
0.3346333333333334
  0
SEQEND
  8
OBS_SSTOP
  0
POLYLINE
  8
OBS_SSTOP
 66
1
 70
1
 40
0.008000000000000002
 41
0.008000000000000002
  0
VERTEX
  8
OBS_SSTOP
 10
0.2283333333333334
 20
0.1456666666666667
 42
  1
  0
VERTEX
  8
OBS_SSTOP
 10
0.3464666666666668
 20
0.2637666666666668
 42
  1
  0
SEQEND
  8
OBS_SSTOP
  0
INSERT
  8
PADSTACKS
  2
padstack_T1_1
 10
0.1811
 20
0.2007833333333334
 30
  0
 50
  0
 41
  1
 42
  1
 43
  1
  0
INSERT
  8
PADSTACKS
  2
padstack_T1_1
 10
0.3937000000000001
 20
0.2047166666666667
 30
  0
 50
  0
 41
  1
 42
  1
 43
  1
  0
ATTDEF
  8
ASYTOP
 70
0
 72
0
  1
SW
  2
SYM_NAME
  3

 10
-28.58020000000001
 20
-28.02906666666667
 30
  0
 40
0.05905000000000001
 50
  0
  0
ENDBLK
  0
BLOCK
  8
0
  2
footprint_AX__375X_100__031
 10
0.0
 20
0.0
 30
0.0
 70
2
  0
POLYLINE
  8
OBS_GLOBAL_LAYER
 66
1
 39
0.001
 70
1
 40
8.333333333333335e-006
 41
8.333333333333335e-006
  0
VERTEX
  8
OBS_GLOBAL_LAYER
 10
-0.04100000000000001
 20
-0.05400000000000001
  0
VERTEX
  8
OBS_GLOBAL_LAYER
 10
0.4160000000000001
 20
-0.05400000000000001
  0
VERTEX
  8
OBS_GLOBAL_LAYER
 10
0.4160000000000001
 20
0.05400000000000001
  0
VERTEX
  8
OBS_GLOBAL_LAYER
 10
-0.04100000000000001
 20
0.05400000000000001
  0
VERTEX
  8
OBS_GLOBAL_LAYER
 10
-0.04100000000000001
 20
-0.05400000000000001
  0
SEQEND
  8
OBS_GLOBAL_LAYER
  0
POLYLINE
  8
OBS_SSTOP
 66
1
 70
0
 40
0.008000000000000002
 41
0.008000000000000002
  0
VERTEX
  8
OBS_SSTOP
 10
0.3000000000000001
 20
  0
  0
VERTEX
  8
OBS_SSTOP
 10
0.3250000000000001
 20
  0
  0
SEQEND
  8
OBS_SSTOP
  0
POLYLINE
  8
OBS_ASYTOP
 66
1
 70
0
 40
0.008000000000000002
 41
0.008000000000000002
  0
VERTEX
  8
OBS_ASYTOP
 10
0.3000000000000001
 20
  0
  0
VERTEX
  8
OBS_ASYTOP
 10
0.3250000000000001
 20
  0
  0
SEQEND
  8
OBS_ASYTOP
  0
POLYLINE
  8
OBS_SSTOP
 66
1
 70
0
 40
0.008000000000000002
 41
0.008000000000000002
  0
VERTEX
  8
OBS_SSTOP
 10
0.07500000000000003
 20
  0
  0
VERTEX
  8
OBS_SSTOP
 10
0.05000000000000001
 20
  0
  0
SEQEND
  8
OBS_SSTOP
  0
POLYLINE
  8
OBS_ASYTOP
 66
1
 70
0
 40
0.008000000000000002
 41
0.008000000000000002
  0
VERTEX
  8
OBS_ASYTOP
 10
0.07500000000000003
 20
  0
  0
VERTEX
  8
OBS_ASYTOP
 10
0.05000000000000001
 20
  0
  0
SEQEND
  8
OBS_ASYTOP
  0
POLYLINE
  8
OBS_SSTOP
 66
1
 70
0
 40
0.008000000000000002
 41
0.008000000000000002
  0
VERTEX
  8
OBS_SSTOP
 10
0.07500000000000003
 20
-0.05000000000000001
  0
VERTEX
  8
OBS_SSTOP
 10
0.07500000000000003
 20
  0
  0
VERTEX
  8
OBS_SSTOP
 10
0.07500000000000003
 20
0.05000000000000001
  0
VERTEX
  8
OBS_SSTOP
 10
0.07500000000000003
 20
0.05000000000000001
  0
VERTEX
  8
OBS_SSTOP
 10
0.3000000000000001
 20
0.05000000000000001
  0
VERTEX
  8
OBS_SSTOP
 10
0.3000000000000001
 20
  0
  0
VERTEX
  8
OBS_SSTOP
 10
0.3000000000000001
 20
-0.05000000000000001
  0
VERTEX
  8
OBS_SSTOP
 10
0.07500000000000003
 20
-0.05000000000000001
  0
SEQEND
  8
OBS_SSTOP
  0
POLYLINE
  8
OBS_ASYTOP
 66
1
 70
0
 40
0.008000000000000002
 41
0.008000000000000002
  0
VERTEX
  8
OBS_ASYTOP
 10
0.07500000000000003
 20
-0.05000000000000001
  0
VERTEX
  8
OBS_ASYTOP
 10
0.07500000000000003
 20
  0
  0
VERTEX
  8
OBS_ASYTOP
 10
0.07500000000000003
 20
0.05000000000000001
  0
VERTEX
  8
OBS_ASYTOP
 10
0.07500000000000003
 20
0.05000000000000001
  0
VERTEX
  8
OBS_ASYTOP
 10
0.3000000000000001
 20
0.05000000000000001
  0
VERTEX
  8
OBS_ASYTOP
 10
0.3000000000000001
 20
  0
  0
VERTEX
  8
OBS_ASYTOP
 10
0.3000000000000001
 20
-0.05000000000000001
  0
VERTEX
  8
OBS_ASYTOP
 10
0.07500000000000003
 20
-0.05000000000000001
  0
SEQEND
  8
OBS_ASYTOP
  0
INSERT
  8
PADSTACKS
  2
padstack_TM_AXIAL_llb_pad3
 10
  0
 20
  0
 30
  0
 50
  0
 41
  1
 42
  1
 43
  1
  0
INSERT
  8
PADSTACKS
  2
padstack_TM_AXIAL_llb_pad3
 10
0.3750000000000001
 20
  0
 30
  0
 50
  0
 41
  1
 42
  1
 43
  1
  0
ATTDEF
  8
ASYTOP
 70
0
 72
0
  1
AX/.375X.100/.031
  2
SYM_NAME
  3

 10
-28.53246666666668
 20
-28.04745000000001
 30
  0
 40
0.02250000000000001
 50
  0
  0
ENDBLK
  0
BLOCK
  8
0
  2
footprint_CON2_J2
 10
0.0
 20
0.0
 30
0.0
 70
2
  0
INSERT
  8
PADSTACKS
  2
padstack_BCON100T_llb_pad3
 10
  0
 20
  0
 30
  0
 50
  0
 41
  1
 42
  1
 43
  1
  0
INSERT
  8
PADSTACKS
  2
padstack_BCON100T_llb_pad4
 10
0.1
 20
  0
 30
  0
 50
  0
 41
  1
 42
  1
 43
  1
  0
ENDBLK
  0
BLOCK
  8
0
  2
footprint_RESISTOR_VAL_R1
 10
0.0
 20
0.0
 30
0.0
 70
2
  0
INSERT
  8
PADSTACKS
  2
padstack_82R66
 10
  0
 20
  0
 30
  0
 50
  0
 41
  1
 42
  1
 43
  1
  0
INSERT
  8
PADSTACKS
  2
padstack_85R61
 10
0.1
 20
0.1
 30
  0
 50
  0
 41
  1
 42
  1
 43
  1
  0
INSERT
  8
PADSTACKS
  2
padstack_82R66
 10
0.2
 20
  0
 30
  0
 50
  0
 41
  1
 42
  1
 43
  1
  0
ENDBLK
  0
BLOCK
  8
0
  2
footprint_RESISTOR_VAL_R2
 10
0.0
 20
0.0
 30
0.0
 70
2
  0
INSERT
  8
PADSTACKS
  2
padstack_82R66
 10
  0
 20
  0
 30
  0
 50
  0
 41
  1
 42
  1
 43
  1
  0
INSERT
  8
PADSTACKS
  2
padstack_85R61
 10
0.1
 20
0.1
 30
  0
 50
  0
 41
  1
 42
  1
 43
  1
  0
INSERT
  8
PADSTACKS
  2
padstack_82R66
 10
0.2
 20
  0
 30
  0
 50
  0
 41
  1
 42
  1
 43
  1
  0
ENDBLK
  0
BLOCK
  8
0
  2
footprint_RESISTOR_VAL_R3
 10
0.0
 20
0.0
 30
0.0
 70
2
  0
INSERT
  8
PADSTACKS
  2
padstack_82R66
 10
  0
 20
  0
 30
  0
 50
  0
 41
  1
 42
  1
 43
  1
  0
INSERT
  8
PADSTACKS
  2
padstack_85R61
 10
0.1
 20
0.1
 30
  0
 50
  0
 41
  1
 42
  1
 43
  1
  0
INSERT
  8
PADSTACKS
  2
padstack_82R66
 10
0.2
 20
  0
 30
  0
 50
  0
 41
  1
 42
  1
 43
  1
  0
ENDBLK
  0
BLOCK
  8
0
  2
footprint_RESISTOR_VAL_R4
 10
0.0
 20
0.0
 30
0.0
 70
2
  0
INSERT
  8
PADSTACKS
  2
padstack_82R66
 10
  0
 20
  0
 30
  0
 50
  0
 41
  1
 42
  1
 43
  1
  0
INSERT
  8
PADSTACKS
  2
padstack_85R61
 10
0.1
 20
0.1
 30
  0
 50
  0
 41
  1
 42
  1
 43
  1
  0
INSERT
  8
PADSTACKS
  2
padstack_82R66
 10
0.2
 20
  0
 30
  0
 50
  0
 41
  1
 42
  1
 43
  1
  0
ENDBLK
  0
BLOCK
  8
0
  2
footprint_SW_SW1
 10
0.0
 20
0.0
 30
0.0
 70
2
  0
INSERT
  8
PADSTACKS
  2
padstack_T1_1
 10
0.1811
 20
0.2007833333333334
 30
  0
 50
  0
 41
  1
 42
  1
 43
  1
  0
INSERT
  8
PADSTACKS
  2
padstack_T1_1
 10
0.3937000000000001
 20
0.2047166666666667
 30
  0
 50
  0
 41
  1
 42
  1
 43
  1
  0
ENDBLK
  0
BLOCK
  8
0
  2
footprint_SW_SW2
 10
0.0
 20
0.0
 30
0.0
 70
2
  0
INSERT
  8
PADSTACKS
  2
padstack_T1_1
 10
0.1811
 20
0.2007833333333334
 30
  0
 50
  0
 41
  1
 42
  1
 43
  1
  0
INSERT
  8
PADSTACKS
  2
padstack_T1_1
 10
0.3937000000000001
 20
0.2047166666666667
 30
  0
 50
  0
 41
  1
 42
  1
 43
  1
  0
ENDBLK
  0
BLOCK
  8
0
  2
footprint_SW_SW3
 10
0.0
 20
0.0
 30
0.0
 70
2
  0
INSERT
  8
PADSTACKS
  2
padstack_T1_1
 10
0.1811
 20
0.2007833333333334
 30
  0
 50
  0
 41
  1
 42
  1
 43
  1
  0
INSERT
  8
PADSTACKS
  2
padstack_T1_1
 10
0.3937000000000001
 20
0.2047166666666667
 30
  0
 50
  0
 41
  1
 42
  1
 43
  1
  0
ENDBLK
  0
BLOCK
  8
0
  2
footprint_SW_SW4
 10
0.0
 20
0.0
 30
0.0
 70
2
  0
INSERT
  8
PADSTACKS
  2
padstack_T1_1
 10
0.1811
 20
0.2007833333333334
 30
  0
 50
  0
 41
  1
 42
  1
 43
  1
  0
INSERT
  8
PADSTACKS
  2
padstack_T1_1
 10
0.3937000000000001
 20
0.2047166666666667
 30
  0
 50
  0
 41
  1
 42
  1
 43
  1
  0
ENDBLK
  0
BLOCK
  8
0
  2
footprint_RESISTOR_VAL_R5
 10
0.0
 20
0.0
 30
0.0
 70
2
  0
INSERT
  8
PADSTACKS
  2
padstack_82R66
 10
  0
 20
  0
 30
  0
 50
  0
 41
  1
 42
  1
 43
  1
  0
INSERT
  8
PADSTACKS
  2
padstack_85R61
 10
0.1
 20
0.1
 30
  0
 50
  0
 41
  1
 42
  1
 43
  1
  0
INSERT
  8
PADSTACKS
  2
padstack_82R66
 10
0.2
 20
  0
 30
  0
 50
  0
 41
  1
 42
  1
 43
  1
  0
ENDBLK
  0
BLOCK
  8
0
  2
footprint_AX__375X_100__031_R6
 10
0.0
 20
0.0
 30
0.0
 70
2
  0
INSERT
  8
PADSTACKS
  2
padstack_TM_AXIAL_llb_pad3
 10
  0
 20
  0
 30
  0
 50
  0
 41
  1
 42
  1
 43
  1
  0
INSERT
  8
PADSTACKS
  2
padstack_TM_AXIAL_llb_pad3
 10
0.3750000000000001
 20
  0
 30
  0
 50
  0
 41
  1
 42
  1
 43
  1
  0
ENDBLK
  0
BLOCK
  8
0
  2
footprint_SW_SW5
 10
0.0
 20
0.0
 30
0.0
 70
2
  0
INSERT
  8
PADSTACKS
  2
padstack_T1_1
 10
0.1811
 20
0.2007833333333334
 30
  0
 50
  0
 41
  1
 42
  1
 43
  1
  0
INSERT
  8
PADSTACKS
  2
padstack_T1_1
 10
0.3937000000000001
 20
0.2047166666666667
 30
  0
 50
  0
 41
  1
 42
  1
 43
  1
  0
ENDBLK
  0
ENDSEC
  0
SECTION
  2
ENTITIES
  0
INSERT
  8
COMPONENTS_TOP
  66
1
  2
footprint_CON2_J2
 10
-0.8660666666666669
 20
1.495933333333334
 30
  0
 50
270
 41
  1
 42
  1
 43
  1
  0
ATTRIB
  8
ASYTOP
 70
0
 72
0
  1
J2
  2
COMP_NAME
 10
-1.031683333333334
 20
1.560383333333334
 30
  0
 40
0.03750000000000001
 50
270
  0
SEQEND
  8
0
  0
INSERT
  8
COMPONENTS_TOP
  66
1
  2
footprint_RESISTOR_VAL_R1
 10
-1.338466666666667
 20
1.102266666666667
 30
  0
 50
 90
 41
  1
 42
  1
 43
  1
  0
ATTRIB
  8
SSTOP
 70
0
 72
0
  1
R1
  2
COMP_NAME
 10
-1.49785
 20
1.112816666666667
 30
  0
 40
0.03750000000000001
 50
 90
  0
ATTRIB
  8
ASYTOP
 70
0
 72
0
  1
RESISTOR VAL_R1
  2
SYM_NAME
 10
-1.3676
 20
1.1556
 30
  0
 40
0.02250000000000001
 50
 90
  0
SEQEND
  8
0
  0
INSERT
  8
COMPONENTS_TOP
  66
1
  2
footprint_RESISTOR_VAL_R2
 10
-1.6534
 20
1.102266666666667
 30
  0
 50
 90
 41
  1
 42
  1
 43
  1
  0
ATTRIB
  8
SSTOP
 70
0
 72
0
  1
R2
  2
COMP_NAME
 10
-1.812783333333334
 20
1.112816666666667
 30
  0
 40
0.03750000000000001
 50
 90
  0
ATTRIB
  8
ASYTOP
 70
0
 72
0
  1
RESISTOR VAL_R2
  2
SYM_NAME
 10
-1.682533333333334
 20
1.1556
 30
  0
 40
0.02250000000000001
 50
 90
  0
SEQEND
  8
0
  0
INSERT
  8
COMPONENTS_TOP
  66
1
  2
footprint_RESISTOR_VAL_R3
 10
-1.968333333333334
 20
1.102266666666667
 30
  0
 50
 90
 41
  1
 42
  1
 43
  1
  0
ATTRIB
  8
SSTOP
 70
0
 72
0
  1
R3
  2
COMP_NAME
 10
-2.127716666666667
 20
1.112816666666667
 30
  0
 40
0.03750000000000001
 50
 90
  0
ATTRIB
  8
ASYTOP
 70
0
 72
0
  1
RESISTOR VAL_R3
  2
SYM_NAME
 10
-1.997466666666667
 20
1.1556
 30
  0
 40
0.02250000000000001
 50
 90
  0
SEQEND
  8
0
  0
INSERT
  8
COMPONENTS_TOP
  66
1
  2
footprint_RESISTOR_VAL_R4
 10
-2.283266666666667
 20
1.102266666666667
 30
  0
 50
 90
 41
  1
 42
  1
 43
  1
  0
ATTRIB
  8
SSTOP
 70
0
 72
0
  1
R4
  2
COMP_NAME
 10
-2.44265
 20
1.112816666666667
 30
  0
 40
0.03750000000000001
 50
 90
  0
ATTRIB
  8
ASYTOP
 70
0
 72
0
  1
RESISTOR VAL_R4
  2
SYM_NAME
 10
-2.312400000000001
 20
1.1556
 30
  0
 40
0.02250000000000001
 50
 90
  0
SEQEND
  8
0
  0
INSERT
  8
COMPONENTS_TOP
  66
1
  2
footprint_RESISTOR_VAL_R5
 10
-1.023533333333334
 20
1.102266666666667
 30
  0
 50
 90
 41
  1
 42
  1
 43
  1
  0
ATTRIB
  8
SSTOP
 70
0
 72
0
  1
R5
  2
COMP_NAME
 10
-1.182916666666667
 20
1.112816666666667
 30
  0
 40
0.03750000000000001
 50
 90
  0
ATTRIB
  8
ASYTOP
 70
0
 72
0
  1
RESISTOR VAL_R5
  2
SYM_NAME
 10
-1.052666666666667
 20
1.1556
 30
  0
 40
0.02250000000000001
 50
 90
  0
SEQEND
  8
0
  0
INSERT
  8
COMPONENTS_TOP
  66
1
  2
footprint_AX__375X_100__031_R6
 10
-2.519466666666667
 20
1.023533333333334
 30
  0
 50
 90
 41
  1
 42
  1
 43
  1
  0
ATTRIB
  8
ASYTOP
 70
0
 72
0
  1
R6
  2
COMP_NAME
 10
-2.548850000000001
 20
1.146483333333334
 30
  0
 40
0.03750000000000001
 50
 90
  0
ATTRIB
  8
ASYTOP
 70
0
 72
0
  1
AX/.375X.100/.031_R6
  2
SYM_NAME
 10
-2.501083333333334
 20
1.071266666666667
 30
  0
 40
0.02250000000000001
 50
 90
  0
SEQEND
  8
0
  0
INSERT
  8
COMPONENTS_TOP
  66
1
  2
footprint_SW_SW1
 10
-0.9448000000000002
 20
1.338466666666667
 30
  0
 50
 90
 41
  1
 42
  1
 43
  1
  0
ATTRIB
  8
ASYTOP
 70
0
 72
0
  1
SW_SW1
  2
SYM_NAME
 10
-0.9448000000000002
 20
1.338466666666667
 30
  0
 40
0.05905000000000001
 50
 90
  0
ATTRIB
  8
SSTOP
 70
0
 72
0
  1
SW1
  2
COMP_NAME
 10
-1.299116666666667
 20
1.338466666666667
 30
  0
 40
0.05905000000000001
 50
 90
  0
SEQEND
  8
0
  0
INSERT
  8
COMPONENTS_TOP
  66
1
  2
footprint_SW_SW2
 10
-1.259733333333334
 20
1.338466666666667
 30
  0
 50
 90
 41
  1
 42
  1
 43
  1
  0
ATTRIB
  8
ASYTOP
 70
0
 72
0
  1
SW_SW2
  2
SYM_NAME
 10
-1.259733333333334
 20
1.338466666666667
 30
  0
 40
0.05905000000000001
 50
 90
  0
ATTRIB
  8
SSTOP
 70
0
 72
0
  1
SW2
  2
COMP_NAME
 10
-1.61405
 20
1.338466666666667
 30
  0
 40
0.05905000000000001
 50
 90
  0
SEQEND
  8
0
  0
INSERT
  8
COMPONENTS_TOP
  66
1
  2
footprint_SW_SW3
 10
-1.574666666666667
 20
1.338466666666667
 30
  0
 50
 90
 41
  1
 42
  1
 43
  1
  0
ATTRIB
  8
ASYTOP
 70
0
 72
0
  1
SW_SW3
  2
SYM_NAME
 10
-1.574666666666667
 20
1.338466666666667
 30
  0
 40
0.05905000000000001
 50
 90
  0
ATTRIB
  8
SSTOP
 70
0
 72
0
  1
SW3
  2
COMP_NAME
 10
-1.928983333333334
 20
1.338466666666667
 30
  0
 40
0.05905000000000001
 50
 90
  0
SEQEND
  8
0
  0
INSERT
  8
COMPONENTS_TOP
  66
1
  2
footprint_SW_SW4
 10
-1.8896
 20
1.338466666666667
 30
  0
 50
 90
 41
  1
 42
  1
 43
  1
  0
ATTRIB
  8
ASYTOP
 70
0
 72
0
  1
SW_SW4
  2
SYM_NAME
 10
-1.8896
 20
1.338466666666667
 30
  0
 40
0.05905000000000001
 50
 90
  0
ATTRIB
  8
SSTOP
 70
0
 72
0
  1
SW4
  2
COMP_NAME
 10
-2.243916666666667
 20
1.338466666666667
 30
  0
 40
0.05905000000000001
 50
 90
  0
SEQEND
  8
0
  0
INSERT
  8
COMPONENTS_TOP
  66
1
  2
footprint_SW_SW5
 10
-2.204533333333334
 20
1.338466666666667
 30
  0
 50
 90
 41
  1
 42
  1
 43
  1
  0
ATTRIB
  8
ASYTOP
 70
0
 72
0
  1
SW_SW5
  2
SYM_NAME
 10
-2.204533333333334
 20
1.338466666666667
 30
  0
 40
0.05905000000000001
 50
 90
  0
ATTRIB
  8
SSTOP
 70
0
 72
0
  1
SW5
  2
COMP_NAME
 10
-2.558850000000001
 20
1.338466666666667
 30
  0
 40
0.05905000000000001
 50
 90
  0
SEQEND
  8
0
  0
POLYLINE
  8
BOTTOM
 66
1
 70
0
 40
0.03936666666666668
 41
0.03936666666666668
  0
VERTEX
  8
BOTTOM
 10
-1.145583333333334
 20
1.519566666666667
  0
VERTEX
  8
BOTTOM
 10
-1.220366666666667
 20
1.519566666666667
  0
VERTEX
  8
BOTTOM
 10
-1.24005
 20
1.499883333333334
  0
VERTEX
  8
BOTTOM
 10
-1.24005
 20
1.436883333333334
  0
VERTEX
  8
BOTTOM
 10
-1.279416666666667
 20
1.397516666666667
  0
VERTEX
  8
BOTTOM
 10
-1.338466666666667
 20
1.397516666666667
  0
VERTEX
  8
BOTTOM
 10
-1.338466666666667
 20
1.302266666666667
 42
0.1906629313903269
  0
SEQEND
  8
BOTTOM
  0
POLYLINE
  8
BOTTOM
 66
1
 70
0
 40
0.03936666666666668
 41
0.03936666666666668
  0
VERTEX
  8
BOTTOM
 10
-1.438466666666667
 20
1.202266666666667
  0
VERTEX
  8
BOTTOM
 10
-1.438466666666667
 20
1.2991
  0
VERTEX
  8
BOTTOM
 10
-1.417200000000001
 20
1.2991
  0
VERTEX
  8
BOTTOM
 10
-1.417200000000001
 20
1.302266666666667
  0
VERTEX
  8
BOTTOM
 10
-1.338466666666667
 20
1.302266666666667
  0
SEQEND
  8
BOTTOM
  0
POLYLINE
  8
BOTTOM
 66
1
 70
0
 40
0.03936666666666668
 41
0.03936666666666668
  0
VERTEX
  8
BOTTOM
 10
-1.464450000000001
 20
1.732166666666667
  0
VERTEX
  8
BOTTOM
 10
-1.149516666666667
 20
1.732166666666667
  0
SEQEND
  8
BOTTOM
  0
POLYLINE
  8
BOTTOM
 66
1
 70
0
 40
0.03936666666666668
 41
0.03936666666666668
  0
VERTEX
  8
BOTTOM
 10
-0.8660666666666669
 20
1.495933333333334
  0
VERTEX
  8
BOTTOM
 10
-0.8660666666666669
 20
1.692800000000001
  0
VERTEX
  8
BOTTOM
 10
-0.9054333333333335
 20
1.732166666666667
  0
VERTEX
  8
BOTTOM
 10
-1.149516666666667
 20
1.732166666666667
  0
SEQEND
  8
BOTTOM
  0
POLYLINE
  8
BOTTOM
 66
1
 70
0
 40
0.03936666666666668
 41
0.03936666666666668
  0
VERTEX
  8
BOTTOM
 10
-2.094316666666667
 20
1.732166666666667
  0
VERTEX
  8
BOTTOM
 10
-2.409250000000001
 20
1.732166666666667
  0
SEQEND
  8
BOTTOM
  0
POLYLINE
  8
BOTTOM
 66
1
 70
0
 40
0.03936666666666668
 41
0.03936666666666668
  0
VERTEX
  8
BOTTOM
 10
-1.460516666666667
 20
1.519566666666667
  0
VERTEX
  8
BOTTOM
 10
-1.5353
 20
1.519566666666667
  0
VERTEX
  8
BOTTOM
 10
-1.554983333333334
 20
1.499883333333334
  0
VERTEX
  8
BOTTOM
 10
-1.554983333333334
 20
1.436883333333334
  0
VERTEX
  8
BOTTOM
 10
-1.59435
 20
1.397516666666667
  0
VERTEX
  8
BOTTOM
 10
-1.6534
 20
1.397516666666667
  0
VERTEX
  8
BOTTOM
 10
-1.6534
 20
1.302266666666667
 42
0.1891606353863205
  0
SEQEND
  8
BOTTOM
  0
POLYLINE
  8
BOTTOM
 66
1
 70
0
 40
0.03936666666666668
 41
0.03936666666666668
  0
VERTEX
  8
BOTTOM
 10
-1.753400000000001
 20
1.202266666666667
  0
VERTEX
  8
BOTTOM
 10
-1.753400000000001
 20
1.2991
  0
VERTEX
  8
BOTTOM
 10
-1.732133333333334
 20
1.2991
  0
VERTEX
  8
BOTTOM
 10
-1.732133333333334
 20
1.302266666666667
  0
VERTEX
  8
BOTTOM
 10
-1.6534
 20
1.302266666666667
  0
SEQEND
  8
BOTTOM
  0
POLYLINE
  8
BOTTOM
 66
1
 70
0
 40
0.03936666666666668
 41
0.03936666666666668
  0
VERTEX
  8
BOTTOM
 10
-1.77545
 20
1.519566666666667
  0
VERTEX
  8
BOTTOM
 10
-1.850233333333334
 20
1.519566666666667
  0
VERTEX
  8
BOTTOM
 10
-1.869916666666667
 20
1.499883333333334
  0
VERTEX
  8
BOTTOM
 10
-1.869916666666667
 20
1.436883333333334
  0
VERTEX
  8
BOTTOM
 10
-1.909283333333334
 20
1.397516666666667
  0
VERTEX
  8
BOTTOM
 10
-1.968333333333334
 20
1.397516666666667
  0
VERTEX
  8
BOTTOM
 10
-1.968333333333334
 20
1.302266666666667
 42
0.1876428377826747
  0
SEQEND
  8
BOTTOM
  0
POLYLINE
  8
BOTTOM
 66
1
 70
0
 40
0.03936666666666668
 41
0.03936666666666668
  0
VERTEX
  8
BOTTOM
 10
-2.068333333333334
 20
1.202266666666667
  0
VERTEX
  8
BOTTOM
 10
-2.068333333333334
 20
1.2991
  0
VERTEX
  8
BOTTOM
 10
-2.047066666666667
 20
1.2991
  0
VERTEX
  8
BOTTOM
 10
-2.047066666666667
 20
1.302266666666667
  0
VERTEX
  8
BOTTOM
 10
-1.968333333333334
 20
1.302266666666667
  0
SEQEND
  8
BOTTOM
  0
POLYLINE
  8
BOTTOM
 66
1
 70
0
 40
0.03936666666666668
 41
0.03936666666666668
  0
VERTEX
  8
BOTTOM
 10
-2.090383333333334
 20
1.519566666666667
  0
VERTEX
  8
BOTTOM
 10
-2.165166666666667
 20
1.519566666666667
  0
VERTEX
  8
BOTTOM
 10
-2.18485
 20
1.499883333333334
  0
VERTEX
  8
BOTTOM
 10
-2.18485
 20
1.436883333333334
  0
VERTEX
  8
BOTTOM
 10
-2.224216666666667
 20
1.397516666666667
  0
VERTEX
  8
BOTTOM
 10
-2.283266666666667
 20
1.397516666666667
  0
VERTEX
  8
BOTTOM
 10
-2.283266666666667
 20
1.302266666666667
 42
0.186109396758102
  0
SEQEND
  8
BOTTOM
  0
POLYLINE
  8
BOTTOM
 66
1
 70
0
 40
0.03936666666666668
 41
0.03936666666666668
  0
VERTEX
  8
BOTTOM
 10
-2.383266666666667
 20
1.202266666666667
  0
VERTEX
  8
BOTTOM
 10
-2.383266666666667
 20
1.2991
  0
VERTEX
  8
BOTTOM
 10
-2.362000000000001
 20
1.2991
  0
VERTEX
  8
BOTTOM
 10
-2.362000000000001
 20
1.302266666666667
  0
VERTEX
  8
BOTTOM
 10
-2.283266666666667
 20
1.302266666666667
  0
SEQEND
  8
BOTTOM
  0
POLYLINE
  8
BOTTOM
 66
1
 70
0
 40
0.03936666666666668
 41
0.03936666666666668
  0
VERTEX
  8
BOTTOM
 10
-2.405316666666667
 20
1.519566666666667
  0
VERTEX
  8
BOTTOM
 10
-2.480100000000001
 20
1.519566666666667
  0
VERTEX
  8
BOTTOM
 10
-2.499783333333334
 20
1.499883333333334
  0
VERTEX
  8
BOTTOM
 10
-2.499783333333334
 20
1.436883333333334
  0
VERTEX
  8
BOTTOM
 10
-2.519466666666667
 20
1.417200000000001
  0
VERTEX
  8
BOTTOM
 10
-2.519466666666667
 20
1.398533333333334
  0
SEQEND
  8
BOTTOM
  0
POLYLINE
  8
BOTTOM
 66
1
 70
0
 40
0.03936666666666668
 41
0.03936666666666668
  0
VERTEX
  8
BOTTOM
 10
-0.8660666666666669
 20
1.395933333333334
  0
VERTEX
  8
BOTTOM
 10
-0.9448000000000002
 20
1.395933333333334
  0
VERTEX
  8
BOTTOM
 10
-0.9448000000000002
 20
1.302266666666667
  0
VERTEX
  8
BOTTOM
 10
-1.023533333333334
 20
1.302266666666667
  0
SEQEND
  8
BOTTOM
  0
POLYLINE
  8
BOTTOM
 66
1
 70
0
 40
0.03936666666666668
 41
0.03936666666666668
  0
VERTEX
  8
BOTTOM
 10
-1.123533333333334
 20
1.202266666666667
  0
VERTEX
  8
BOTTOM
 10
-1.123533333333334
 20
1.2991
  0
VERTEX
  8
BOTTOM
 10
-1.102266666666667
 20
1.2991
  0
VERTEX
  8
BOTTOM
 10
-1.102266666666667
 20
1.302266666666667
  0
VERTEX
  8
BOTTOM
 10
-1.023533333333334
 20
1.302266666666667
  0
SEQEND
  8
BOTTOM
  0
POLYLINE
  8
BOTTOM
 66
1
 70
0
 40
0.03936666666666668
 41
0.03936666666666668
  0
VERTEX
  8
BOTTOM
 10
-1.779383333333334
 20
1.732166666666667
  0
VERTEX
  8
BOTTOM
 10
-1.464450000000001
 20
1.732166666666667
  0
SEQEND
  8
BOTTOM
  0
POLYLINE
  8
BOTTOM
 66
1
 70
0
 40
0.03936666666666668
 41
0.03936666666666668
  0
VERTEX
  8
BOTTOM
 10
-1.779383333333334
 20
1.732166666666667
  0
VERTEX
  8
BOTTOM
 10
-2.094316666666667
 20
1.732166666666667
  0
SEQEND
  8
BOTTOM
  0
POLYLINE
  8
BOTTOM
 66
1
 70
0
 40
0.03936666666666668
 41
0.03936666666666668
  0
VERTEX
  8
BOTTOM
 10
-2.519466666666667
 20
1.023533333333334
  0
VERTEX
  8
BOTTOM
 10
-2.283266666666667
 20
1.023533333333334
  0
VERTEX
  8
BOTTOM
 10
-2.283266666666667
 20
1.082583333333334
  0
VERTEX
  8
BOTTOM
 10
-2.263583333333334
 20
1.102266666666667
  0
VERTEX
  8
BOTTOM
 10
-2.283266666666667
 20
1.102266666666667
  0
SEQEND
  8
BOTTOM
  0
POLYLINE
  8
BOTTOM
 66
1
 70
0
 40
0.03936666666666668
 41
0.03936666666666668
  0
VERTEX
  8
BOTTOM
 10
-1.023533333333334
 20
1.102266666666667
  0
VERTEX
  8
BOTTOM
 10
-1.338466666666667
 20
1.102266666666667
  0
SEQEND
  8
BOTTOM
  0
POLYLINE
  8
BOTTOM
 66
1
 70
0
 40
0.03936666666666668
 41
0.03936666666666668
  0
VERTEX
  8
BOTTOM
 10
-1.968333333333334
 20
1.102266666666667
  0
VERTEX
  8
BOTTOM
 10
-2.283266666666667
 20
1.102266666666667
  0
SEQEND
  8
BOTTOM
  0
POLYLINE
  8
BOTTOM
 66
1
 70
0
 40
0.03936666666666668
 41
0.03936666666666668
  0
VERTEX
  8
BOTTOM
 10
-1.6534
 20
1.102266666666667
  0
VERTEX
  8
BOTTOM
 10
-1.338466666666667
 20
1.102266666666667
  0
SEQEND
  8
BOTTOM
  0
POLYLINE
  8
BOTTOM
 66
1
 70
0
 40
0.03936666666666668
 41
0.03936666666666668
  0
VERTEX
  8
BOTTOM
 10
-1.6534
 20
1.102266666666667
  0
VERTEX
  8
BOTTOM
 10
-1.968333333333334
 20
1.102266666666667
  0
SEQEND
  8
BOTTOM
  0
TEXT
  8
DRLDWG
 72
0
 10
1.347925
 20
-0.175
 30
  0
 40
0.1125
 50
  0
  1
DRILL CHART
  0
TEXT
  8
DRLDWG
 72
0
 10
0.05000000000000001
 20
-0.3750000000000001
 30
  0
 40
0.1125
 50
  0
  1
SYM
  0
TEXT
  8
DRLDWG
 72
0
 10
0.6154166666666668
 20
-0.3750000000000001
 30
  0
 40
0.1125
 50
  0
  1
DIAM
  0
TEXT
  8
DRLDWG
 72
0
 10
1.484166666666667
 20
-0.3750000000000001
 30
  0
 40
0.1125
 50
  0
  1
TOL
  0
TEXT
  8
DRLDWG
 72
0
 10
2.160833333333334
 20
-0.3750000000000001
 30
  0
 40
0.1125
 50
  0
  1
QTY
  0
TEXT
  8
DRLDWG
 72
0
 10
2.967908333333334
 20
-0.3750000000000001
 30
  0
 40
0.1125
 50
  0
  1
NOTE
  0
TEXT
  8
DRLDWG
 72
0
 10
0.5663916666666669
 20
-0.5250000000000001
 30
  0
 40
0.07500000000000003
 50
  0
  1
0.787 mm
  0
TEXT
  8
DRLDWG
 72
0
 10
2.420833333333334
 20
-0.5250000000000001
 30
  0
 40
0.07500000000000003
 50
  0
  1
2
  0
TEXT
  8
DRLDWG
 72
0
 10
0.5663916666666669
 20
-0.6750000000000002
 30
  0
 40
0.07500000000000003
 50
  0
  1
0.965 mm
  0
TEXT
  8
DRLDWG
 72
0
 10
2.361950000000001
 20
-0.6750000000000002
 30
  0
 40
0.07500000000000003
 50
  0
  1
10
  0
TEXT
  8
DRLDWG
 72
0
 10
0.5775083333333335
 20
-0.8250000000000002
 30
  0
 40
0.07500000000000003
 50
  0
  1
1.067 mm
  0
TEXT
  8
DRLDWG
 72
0
 10
2.420833333333334
 20
-0.8250000000000002
 30
  0
 40
0.07500000000000003
 50
  0
  1
2
  0
TEXT
  8
DRLDWG
 72
0
 10
0.5775083333333335
 20
-0.9750000000000002
 30
  0
 40
0.07500000000000003
 50
  0
  1
1.549 mm
  0
TEXT
  8
DRLDWG
 72
0
 10
2.420833333333334
 20
-0.9750000000000002
 30
  0
 40
0.07500000000000003
 50
  0
  1
5
  0
TEXT
  8
DRLDWG
 72
0
 10
0.5775083333333335
 20
-1.125
 30
  0
 40
0.07500000000000003
 50
  0
  1
1.676 mm
  0
TEXT
  8
DRLDWG
 72
0
 10
2.361950000000001
 20
-1.125
 30
  0
 40
0.07500000000000003
 50
  0
  1
10
  0
TEXT
  8
DRLDWG
 72
0
 10
0.7845833333333335
 20
-1.325
 30
  0
 40
0.1125
 50
  0
  1
TOTAL
  0
TEXT
  8
DRLDWG
 72
0
 10
2.300833333333334
 20
-1.325
 30
  0
 40
0.1125
 50
  0
  1
29
  0
TEXT
  8
TOP
 72
0
 10
-1.816100000000001
 20
0.7570166666666669
 30
  0
 40
0.05625000000000002
 50
  0
  1
49.00
  0
POLYLINE
  8
OBS_ASYTOP
 66
1
 70
0
 40
0.008000000000000002
 41
0.008000000000000002
  0
VERTEX
  8
OBS_ASYTOP
 10
-0.9735333333333336
 20
1.064766666666667
  0
VERTEX
  8
OBS_ASYTOP
 10
-0.9735333333333336
 20
1.339766666666667
  0
SEQEND
  8
OBS_ASYTOP
  0
POLYLINE
  8
OBS_SSTOP
 66
1
 70
0
 40
0.008000000000000002
 41
0.008000000000000002
  0
VERTEX
  8
OBS_SSTOP
 10
-1.061033333333334
 20
1.339766666666667
  0
VERTEX
  8
OBS_SSTOP
 10
-1.173533333333334
 20
1.339766666666667
  0
VERTEX
  8
OBS_SSTOP
 10
-1.173533333333334
 20
1.064766666666667
  0
VERTEX
  8
OBS_SSTOP
 10
-1.073533333333334
 20
1.064766666666667
  0
SEQEND
  8
OBS_SSTOP
  0
POLYLINE
  8
OBS_ASYTOP
 66
1
 70
0
 40
0.008000000000000002
 41
0.008000000000000002
  0
VERTEX
  8
OBS_ASYTOP
 10
-1.061033333333334
 20
1.339766666666667
  0
VERTEX
  8
OBS_ASYTOP
 10
-1.173533333333334
 20
1.339766666666667
  0
VERTEX
  8
OBS_ASYTOP
 10
-1.173533333333334
 20
1.064766666666667
  0
VERTEX
  8
OBS_ASYTOP
 10
-1.073533333333334
 20
1.064766666666667
  0
SEQEND
  8
OBS_ASYTOP
  0
POLYLINE
  8
OBS_GLOBAL_LAYER
 66
1
 39
0.001
 70
1
 40
8.333333333333335e-006
 41
8.333333333333335e-006
  0
VERTEX
  8
OBS_GLOBAL_LAYER
 10
-2.465466666666667
 20
0.9825333333333336
  0
VERTEX
  8
OBS_GLOBAL_LAYER
 10
-2.465466666666667
 20
1.439533333333334
  0
VERTEX
  8
OBS_GLOBAL_LAYER
 10
-2.573466666666668
 20
1.439533333333334
  0
VERTEX
  8
OBS_GLOBAL_LAYER
 10
-2.573466666666668
 20
0.9825333333333336
  0
VERTEX
  8
OBS_GLOBAL_LAYER
 10
-2.465466666666667
 20
0.9825333333333336
  0
SEQEND
  8
OBS_GLOBAL_LAYER
  0
POLYLINE
  8
OBS_SSTOP
 66
1
 70
0
 40
0.008000000000000002
 41
0.008000000000000002
  0
VERTEX
  8
OBS_SSTOP
 10
-2.519466666666667
 20
1.323533333333334
  0
VERTEX
  8
OBS_SSTOP
 10
-2.519466666666667
 20
1.348533333333334
  0
SEQEND
  8
OBS_SSTOP
  0
POLYLINE
  8
OBS_ASYTOP
 66
1
 70
0
 40
0.008000000000000002
 41
0.008000000000000002
  0
VERTEX
  8
OBS_ASYTOP
 10
-2.519466666666667
 20
1.323533333333334
  0
VERTEX
  8
OBS_ASYTOP
 10
-2.519466666666667
 20
1.348533333333334
  0
SEQEND
  8
OBS_ASYTOP
  0
POLYLINE
  8
OBS_SSTOP
 66
1
 70
0
 40
0.008000000000000002
 41
0.008000000000000002
  0
VERTEX
  8
OBS_SSTOP
 10
-2.519466666666667
 20
1.098533333333334
  0
VERTEX
  8
OBS_SSTOP
 10
-2.519466666666667
 20
1.073533333333334
  0
SEQEND
  8
OBS_SSTOP
  0
POLYLINE
  8
OBS_ASYTOP
 66
1
 70
0
 40
0.008000000000000002
 41
0.008000000000000002
  0
VERTEX
  8
OBS_ASYTOP
 10
-2.519466666666667
 20
1.098533333333334
  0
VERTEX
  8
OBS_ASYTOP
 10
-2.519466666666667
 20
1.073533333333334
  0
SEQEND
  8
OBS_ASYTOP
  0
POLYLINE
  8
OBS_SSTOP
 66
1
 70
0
 40
0.008000000000000002
 41
0.008000000000000002
  0
VERTEX
  8
OBS_SSTOP
 10
-2.469466666666667
 20
1.098533333333334
  0
VERTEX
  8
OBS_SSTOP
 10
-2.519466666666667
 20
1.098533333333334
  0
VERTEX
  8
OBS_SSTOP
 10
-2.569466666666668
 20
1.098533333333334
  0
VERTEX
  8
OBS_SSTOP
 10
-2.569466666666668
 20
1.098533333333334
  0
VERTEX
  8
OBS_SSTOP
 10
-2.569466666666668
 20
1.323533333333334
  0
VERTEX
  8
OBS_SSTOP
 10
-2.519466666666667
 20
1.323533333333334
  0
VERTEX
  8
OBS_SSTOP
 10
-2.469466666666667
 20
1.323533333333334
  0
VERTEX
  8
OBS_SSTOP
 10
-2.469466666666667
 20
1.098533333333334
  0
SEQEND
  8
OBS_SSTOP
  0
POLYLINE
  8
OBS_ASYTOP
 66
1
 70
0
 40
0.008000000000000002
 41
0.008000000000000002
  0
VERTEX
  8
OBS_ASYTOP
 10
-2.469466666666667
 20
1.098533333333334
  0
VERTEX
  8
OBS_ASYTOP
 10
-2.519466666666667
 20
1.098533333333334
  0
VERTEX
  8
OBS_ASYTOP
 10
-2.569466666666668
 20
1.098533333333334
  0
VERTEX
  8
OBS_ASYTOP
 10
-2.569466666666668
 20
1.098533333333334
  0
VERTEX
  8
OBS_ASYTOP
 10
-2.569466666666668
 20
1.323533333333334
  0
VERTEX
  8
OBS_ASYTOP
 10
-2.519466666666667
 20
1.323533333333334
  0
VERTEX
  8
OBS_ASYTOP
 10
-2.469466666666667
 20
1.323533333333334
  0
VERTEX
  8
OBS_ASYTOP
 10
-2.469466666666667
 20
1.098533333333334
  0
SEQEND
  8
OBS_ASYTOP
  0
POLYLINE
  8
OBS_SSTOP
 66
1
 70
0
 40
0.008000000000000002
 41
0.008000000000000002
  0
VERTEX
  8
OBS_SSTOP
 10
-2.539166666666668
 20
1.495933333333334
  0
VERTEX
  8
OBS_SSTOP
 10
-2.539166666666668
 20
1.75185
  0
VERTEX
  8
OBS_SSTOP
 10
-2.283266666666667
 20
1.75185
  0
VERTEX
  8
OBS_SSTOP
 10
-2.283266666666667
 20
1.495933333333334
  0
VERTEX
  8
OBS_SSTOP
 10
-2.539166666666668
 20
1.495933333333334
  0
SEQEND
  8
OBS_SSTOP
  0
POLYLINE
  8
OBS_SSTOP
 66
1
 70
1
 40
0.008000000000000002
 41
0.008000000000000002
  0
VERTEX
  8
OBS_SSTOP
 10
-2.350200000000001
 20
1.5668
 42
  1
  0
VERTEX
  8
OBS_SSTOP
 10
-2.468300000000001
 20
1.684933333333334
 42
  1
  0
SEQEND
  8
OBS_SSTOP
  0
POLYLINE
  8
OBS_DRILL
 66
1
 39
0.001
 70
1
 40
8.333333333333335e-006
 41
8.333333333333335e-006
  0
VERTEX
  8
OBS_DRILL
 10
-1.008533333333334
 20
1.469566666666667
  0
VERTEX
  8
OBS_DRILL
 10
-1.294433333333334
 20
1.469566666666667
  0
VERTEX
  8
OBS_DRILL
 10
-1.294433333333334
 20
1.782166666666667
  0
VERTEX
  8
OBS_DRILL
 10
-1.008533333333334
 20
1.782166666666667
  0
VERTEX
  8
OBS_DRILL
 10
-1.008533333333334
 20
1.469566666666667
  0
SEQEND
  8
OBS_DRILL
  0
POLYLINE
  8
OBS_DRILL
 66
1
 39
0.001
 70
1
 40
8.333333333333335e-006
 41
8.333333333333335e-006
  0
VERTEX
  8
OBS_DRILL
 10
-1.323466666666667
 20
1.469566666666667
  0
VERTEX
  8
OBS_DRILL
 10
-1.609366666666667
 20
1.469566666666667
  0
VERTEX
  8
OBS_DRILL
 10
-1.609366666666667
 20
1.782166666666667
  0
VERTEX
  8
OBS_DRILL
 10
-1.323466666666667
 20
1.782166666666667
  0
VERTEX
  8
OBS_DRILL
 10
-1.323466666666667
 20
1.469566666666667
  0
SEQEND
  8
OBS_DRILL
  0
POLYLINE
  8
OBS_DRILL
 66
1
 39
0.001
 70
1
 40
8.333333333333335e-006
 41
8.333333333333335e-006
  0
VERTEX
  8
OBS_DRILL
 10
-1.6384
 20
1.469566666666667
  0
VERTEX
  8
OBS_DRILL
 10
-1.924300000000001
 20
1.469566666666667
  0
VERTEX
  8
OBS_DRILL
 10
-1.924300000000001
 20
1.782166666666667
  0
VERTEX
  8
OBS_DRILL
 10
-1.6384
 20
1.782166666666667
  0
VERTEX
  8
OBS_DRILL
 10
-1.6384
 20
1.469566666666667
  0
SEQEND
  8
OBS_DRILL
  0
POLYLINE
  8
OBS_DRILL
 66
1
 39
0.001
 70
1
 40
8.333333333333335e-006
 41
8.333333333333335e-006
  0
VERTEX
  8
OBS_DRILL
 10
-1.953333333333334
 20
1.469566666666667
  0
VERTEX
  8
OBS_DRILL
 10
-2.239233333333334
 20
1.469566666666667
  0
VERTEX
  8
OBS_DRILL
 10
-2.239233333333334
 20
1.782166666666667
  0
VERTEX
  8
OBS_DRILL
 10
-1.953333333333334
 20
1.782166666666667
  0
VERTEX
  8
OBS_DRILL
 10
-1.953333333333334
 20
1.469566666666667
  0
SEQEND
  8
OBS_DRILL
  0
POLYLINE
  8
OBS_DRILL
 66
1
 39
0.001
 70
1
 40
8.333333333333335e-006
 41
8.333333333333335e-006
  0
VERTEX
  8
OBS_DRILL
 10
-2.268266666666667
 20
1.469566666666667
  0
VERTEX
  8
OBS_DRILL
 10
-2.554166666666667
 20
1.469566666666667
  0
VERTEX
  8
OBS_DRILL
 10
-2.554166666666667
 20
1.782166666666667
  0
VERTEX
  8
OBS_DRILL
 10
-2.268266666666667
 20
1.782166666666667
  0
VERTEX
  8
OBS_DRILL
 10
-2.268266666666667
 20
1.469566666666667
  0
SEQEND
  8
OBS_DRILL
  0
POLYLINE
  8
OBS_GLOBAL_LAYER
 66
1
 39
0.001
 70
1
 40
8.333333333333335e-006
 41
8.333333333333335e-006
  0
VERTEX
  8
OBS_GLOBAL_LAYER
 10
-0.9200666666666669
 20
1.554933333333334
  0
VERTEX
  8
OBS_GLOBAL_LAYER
 10
-0.9200666666666669
 20
1.336933333333334
  0
VERTEX
  8
OBS_GLOBAL_LAYER
 10
-0.8120666666666668
 20
1.336933333333334
  0
VERTEX
  8
OBS_GLOBAL_LAYER
 10
-0.8120666666666668
 20
1.554933333333334
  0
VERTEX
  8
OBS_GLOBAL_LAYER
 10
-0.9200666666666669
 20
1.554933333333334
  0
SEQEND
  8
OBS_GLOBAL_LAYER
  0
POLYLINE
  8
OBS_SSTOP
 66
1
 70
0
 40
0.008000000000000002
 41
0.008000000000000002
  0
VERTEX
  8
OBS_SSTOP
 10
-0.9160666666666669
 20
1.340933333333334
  0
VERTEX
  8
OBS_SSTOP
 10
-0.9160666666666669
 20
1.395933333333334
  0
VERTEX
  8
OBS_SSTOP
 10
-0.9160666666666669
 20
1.495933333333334
  0
VERTEX
  8
OBS_SSTOP
 10
-0.9160666666666669
 20
1.550933333333334
  0
VERTEX
  8
OBS_SSTOP
 10
-0.8160666666666668
 20
1.550933333333334
  0
VERTEX
  8
OBS_SSTOP
 10
-0.8160666666666668
 20
1.340933333333334
  0
VERTEX
  8
OBS_SSTOP
 10
-0.9160666666666669
 20
1.340933333333334
  0
SEQEND
  8
OBS_SSTOP
  0
POLYLINE
  8
OBS_ASYTOP
 66
1
 70
0
 40
0.008000000000000002
 41
0.008000000000000002
  0
VERTEX
  8
OBS_ASYTOP
 10
-0.9160666666666669
 20
1.340933333333334
  0
VERTEX
  8
OBS_ASYTOP
 10
-0.9160666666666669
 20
1.395933333333334
  0
VERTEX
  8
OBS_ASYTOP
 10
-0.9160666666666669
 20
1.495933333333334
  0
VERTEX
  8
OBS_ASYTOP
 10
-0.9160666666666669
 20
1.550933333333334
  0
VERTEX
  8
OBS_ASYTOP
 10
-0.8160666666666668
 20
1.550933333333334
  0
VERTEX
  8
OBS_ASYTOP
 10
-0.8160666666666668
 20
1.340933333333334
  0
VERTEX
  8
OBS_ASYTOP
 10
-0.9160666666666669
 20
1.340933333333334
  0
SEQEND
  8
OBS_ASYTOP
  0
POLYLINE
  8
OBS_GLOBAL_LAYER
 66
1
 39
0.001
 70
1
 40
8.333333333333335e-006
 41
8.333333333333335e-006
  0
VERTEX
  8
OBS_GLOBAL_LAYER
 10
-1.284466666666667
 20
1.060766666666667
  0
VERTEX
  8
OBS_GLOBAL_LAYER
 10
-1.284466666666667
 20
1.343766666666667
  0
VERTEX
  8
OBS_GLOBAL_LAYER
 10
-1.492466666666667
 20
1.343766666666667
  0
VERTEX
  8
OBS_GLOBAL_LAYER
 10
-1.492466666666667
 20
1.060766666666667
  0
VERTEX
  8
OBS_GLOBAL_LAYER
 10
-1.284466666666667
 20
1.060766666666667
  0
SEQEND
  8
OBS_GLOBAL_LAYER
  0
POLYLINE
  8
OBS_SSTOP
 66
1
 70
0
 40
0.008000000000000002
 41
0.008000000000000002
  0
VERTEX
  8
OBS_SSTOP
 10
-1.438466666666667
 20
1.127266666666667
  0
VERTEX
  8
OBS_SSTOP
 10
-1.438466666666667
 20
1.077266666666667
  0
SEQEND
  8
OBS_SSTOP
  0
POLYLINE
  8
OBS_ASYTOP
 66
1
 70
0
 40
0.008000000000000002
 41
0.008000000000000002
  0
VERTEX
  8
OBS_ASYTOP
 10
-1.438466666666667
 20
1.127266666666667
  0
VERTEX
  8
OBS_ASYTOP
 10
-1.438466666666667
 20
1.077266666666667
  0
SEQEND
  8
OBS_ASYTOP
  0
POLYLINE
  8
OBS_SSTOP
 66
1
 70
0
 40
0.008000000000000002
 41
0.008000000000000002
  0
VERTEX
  8
OBS_SSTOP
 10
-1.288466666666667
 20
1.064766666666667
  0
VERTEX
  8
OBS_SSTOP
 10
-1.288466666666667
 20
1.339766666666667
  0
SEQEND
  8
OBS_SSTOP
  0
POLYLINE
  8
OBS_ASYTOP
 66
1
 70
0
 40
0.008000000000000002
 41
0.008000000000000002
  0
VERTEX
  8
OBS_ASYTOP
 10
-1.288466666666667
 20
1.064766666666667
  0
VERTEX
  8
OBS_ASYTOP
 10
-1.288466666666667
 20
1.339766666666667
  0
SEQEND
  8
OBS_ASYTOP
  0
POLYLINE
  8
OBS_SSTOP
 66
1
 70
0
 40
0.008000000000000002
 41
0.008000000000000002
  0
VERTEX
  8
OBS_SSTOP
 10
-1.375966666666667
 20
1.339766666666667
  0
VERTEX
  8
OBS_SSTOP
 10
-1.488466666666667
 20
1.339766666666667
  0
VERTEX
  8
OBS_SSTOP
 10
-1.488466666666667
 20
1.064766666666667
  0
VERTEX
  8
OBS_SSTOP
 10
-1.388466666666667
 20
1.064766666666667
  0
SEQEND
  8
OBS_SSTOP
  0
POLYLINE
  8
OBS_ASYTOP
 66
1
 70
0
 40
0.008000000000000002
 41
0.008000000000000002
  0
VERTEX
  8
OBS_ASYTOP
 10
-1.375966666666667
 20
1.339766666666667
  0
VERTEX
  8
OBS_ASYTOP
 10
-1.488466666666667
 20
1.339766666666667
  0
VERTEX
  8
OBS_ASYTOP
 10
-1.488466666666667
 20
1.064766666666667
  0
VERTEX
  8
OBS_ASYTOP
 10
-1.388466666666667
 20
1.064766666666667
  0
SEQEND
  8
OBS_ASYTOP
  0
POLYLINE
  8
OBS_GLOBAL_LAYER
 66
1
 39
0.001
 70
1
 40
8.333333333333335e-006
 41
8.333333333333335e-006
  0
VERTEX
  8
OBS_GLOBAL_LAYER
 10
-1.5994
 20
1.060766666666667
  0
VERTEX
  8
OBS_GLOBAL_LAYER
 10
-1.5994
 20
1.343766666666667
  0
VERTEX
  8
OBS_GLOBAL_LAYER
 10
-1.807400000000001
 20
1.343766666666667
  0
VERTEX
  8
OBS_GLOBAL_LAYER
 10
-1.807400000000001
 20
1.060766666666667
  0
VERTEX
  8
OBS_GLOBAL_LAYER
 10
-1.5994
 20
1.060766666666667
  0
SEQEND
  8
OBS_GLOBAL_LAYER
  0
POLYLINE
  8
OBS_SSTOP
 66
1
 70
0
 40
0.008000000000000002
 41
0.008000000000000002
  0
VERTEX
  8
OBS_SSTOP
 10
-1.753400000000001
 20
1.127266666666667
  0
VERTEX
  8
OBS_SSTOP
 10
-1.753400000000001
 20
1.077266666666667
  0
SEQEND
  8
OBS_SSTOP
  0
POLYLINE
  8
OBS_ASYTOP
 66
1
 70
0
 40
0.008000000000000002
 41
0.008000000000000002
  0
VERTEX
  8
OBS_ASYTOP
 10
-1.753400000000001
 20
1.127266666666667
  0
VERTEX
  8
OBS_ASYTOP
 10
-1.753400000000001
 20
1.077266666666667
  0
SEQEND
  8
OBS_ASYTOP
  0
POLYLINE
  8
OBS_SSTOP
 66
1
 70
0
 40
0.008000000000000002
 41
0.008000000000000002
  0
VERTEX
  8
OBS_SSTOP
 10
-1.6034
 20
1.064766666666667
  0
VERTEX
  8
OBS_SSTOP
 10
-1.6034
 20
1.339766666666667
  0
SEQEND
  8
OBS_SSTOP
  0
POLYLINE
  8
OBS_ASYTOP
 66
1
 70
0
 40
0.008000000000000002
 41
0.008000000000000002
  0
VERTEX
  8
OBS_ASYTOP
 10
-1.6034
 20
1.064766666666667
  0
VERTEX
  8
OBS_ASYTOP
 10
-1.6034
 20
1.339766666666667
  0
SEQEND
  8
OBS_ASYTOP
  0
POLYLINE
  8
OBS_SSTOP
 66
1
 70
0
 40
0.008000000000000002
 41
0.008000000000000002
  0
VERTEX
  8
OBS_SSTOP
 10
-1.690900000000001
 20
1.339766666666667
  0
VERTEX
  8
OBS_SSTOP
 10
-1.803400000000001
 20
1.339766666666667
  0
VERTEX
  8
OBS_SSTOP
 10
-1.803400000000001
 20
1.064766666666667
  0
VERTEX
  8
OBS_SSTOP
 10
-1.703400000000001
 20
1.064766666666667
  0
SEQEND
  8
OBS_SSTOP
  0
POLYLINE
  8
OBS_ASYTOP
 66
1
 70
0
 40
0.008000000000000002
 41
0.008000000000000002
  0
VERTEX
  8
OBS_ASYTOP
 10
-1.690900000000001
 20
1.339766666666667
  0
VERTEX
  8
OBS_ASYTOP
 10
-1.803400000000001
 20
1.339766666666667
  0
VERTEX
  8
OBS_ASYTOP
 10
-1.803400000000001
 20
1.064766666666667
  0
VERTEX
  8
OBS_ASYTOP
 10
-1.703400000000001
 20
1.064766666666667
  0
SEQEND
  8
OBS_ASYTOP
  0
POLYLINE
  8
OBS_GLOBAL_LAYER
 66
1
 39
0.001
 70
1
 40
8.333333333333335e-006
 41
8.333333333333335e-006
  0
VERTEX
  8
OBS_GLOBAL_LAYER
 10
-1.914333333333334
 20
1.060766666666667
  0
VERTEX
  8
OBS_GLOBAL_LAYER
 10
-1.914333333333334
 20
1.343766666666667
  0
VERTEX
  8
OBS_GLOBAL_LAYER
 10
-2.122333333333334
 20
1.343766666666667
  0
VERTEX
  8
OBS_GLOBAL_LAYER
 10
-2.122333333333334
 20
1.060766666666667
  0
VERTEX
  8
OBS_GLOBAL_LAYER
 10
-1.914333333333334
 20
1.060766666666667
  0
SEQEND
  8
OBS_GLOBAL_LAYER
  0
POLYLINE
  8
OBS_SSTOP
 66
1
 70
0
 40
0.008000000000000002
 41
0.008000000000000002
  0
VERTEX
  8
OBS_SSTOP
 10
-2.068333333333334
 20
1.127266666666667
  0
VERTEX
  8
OBS_SSTOP
 10
-2.068333333333334
 20
1.077266666666667
  0
SEQEND
  8
OBS_SSTOP
  0
POLYLINE
  8
OBS_ASYTOP
 66
1
 70
0
 40
0.008000000000000002
 41
0.008000000000000002
  0
VERTEX
  8
OBS_ASYTOP
 10
-2.068333333333334
 20
1.127266666666667
  0
VERTEX
  8
OBS_ASYTOP
 10
-2.068333333333334
 20
1.077266666666667
  0
SEQEND
  8
OBS_ASYTOP
  0
POLYLINE
  8
OBS_SSTOP
 66
1
 70
0
 40
0.008000000000000002
 41
0.008000000000000002
  0
VERTEX
  8
OBS_SSTOP
 10
-1.918333333333334
 20
1.064766666666667
  0
VERTEX
  8
OBS_SSTOP
 10
-1.918333333333334
 20
1.339766666666667
  0
SEQEND
  8
OBS_SSTOP
  0
POLYLINE
  8
OBS_ASYTOP
 66
1
 70
0
 40
0.008000000000000002
 41
0.008000000000000002
  0
VERTEX
  8
OBS_ASYTOP
 10
-1.918333333333334
 20
1.064766666666667
  0
VERTEX
  8
OBS_ASYTOP
 10
-1.918333333333334
 20
1.339766666666667
  0
SEQEND
  8
OBS_ASYTOP
  0
POLYLINE
  8
OBS_SSTOP
 66
1
 70
0
 40
0.008000000000000002
 41
0.008000000000000002
  0
VERTEX
  8
OBS_SSTOP
 10
-2.005833333333334
 20
1.339766666666667
  0
VERTEX
  8
OBS_SSTOP
 10
-2.118333333333334
 20
1.339766666666667
  0
VERTEX
  8
OBS_SSTOP
 10
-2.118333333333334
 20
1.064766666666667
  0
VERTEX
  8
OBS_SSTOP
 10
-2.018333333333334
 20
1.064766666666667
  0
SEQEND
  8
OBS_SSTOP
  0
POLYLINE
  8
OBS_ASYTOP
 66
1
 70
0
 40
0.008000000000000002
 41
0.008000000000000002
  0
VERTEX
  8
OBS_ASYTOP
 10
-2.005833333333334
 20
1.339766666666667
  0
VERTEX
  8
OBS_ASYTOP
 10
-2.118333333333334
 20
1.339766666666667
  0
VERTEX
  8
OBS_ASYTOP
 10
-2.118333333333334
 20
1.064766666666667
  0
VERTEX
  8
OBS_ASYTOP
 10
-2.018333333333334
 20
1.064766666666667
  0
SEQEND
  8
OBS_ASYTOP
  0
POLYLINE
  8
OBS_GLOBAL_LAYER
 66
1
 39
0.001
 70
1
 40
8.333333333333335e-006
 41
8.333333333333335e-006
  0
VERTEX
  8
OBS_GLOBAL_LAYER
 10
-2.229266666666667
 20
1.060766666666667
  0
VERTEX
  8
OBS_GLOBAL_LAYER
 10
-2.229266666666667
 20
1.343766666666667
  0
VERTEX
  8
OBS_GLOBAL_LAYER
 10
-2.437266666666667
 20
1.343766666666667
  0
VERTEX
  8
OBS_GLOBAL_LAYER
 10
-2.437266666666667
 20
1.060766666666667
  0
VERTEX
  8
OBS_GLOBAL_LAYER
 10
-2.229266666666667
 20
1.060766666666667
  0
SEQEND
  8
OBS_GLOBAL_LAYER
  0
POLYLINE
  8
OBS_SSTOP
 66
1
 70
0
 40
0.008000000000000002
 41
0.008000000000000002
  0
VERTEX
  8
OBS_SSTOP
 10
-2.383266666666667
 20
1.127266666666667
  0
VERTEX
  8
OBS_SSTOP
 10
-2.383266666666667
 20
1.077266666666667
  0
SEQEND
  8
OBS_SSTOP
  0
POLYLINE
  8
OBS_ASYTOP
 66
1
 70
0
 40
0.008000000000000002
 41
0.008000000000000002
  0
VERTEX
  8
OBS_ASYTOP
 10
-2.383266666666667
 20
1.127266666666667
  0
VERTEX
  8
OBS_ASYTOP
 10
-2.383266666666667
 20
1.077266666666667
  0
SEQEND
  8
OBS_ASYTOP
  0
POLYLINE
  8
OBS_SSTOP
 66
1
 70
0
 40
0.008000000000000002
 41
0.008000000000000002
  0
VERTEX
  8
OBS_SSTOP
 10
-2.233266666666667
 20
1.064766666666667
  0
VERTEX
  8
OBS_SSTOP
 10
-2.233266666666667
 20
1.339766666666667
  0
SEQEND
  8
OBS_SSTOP
  0
POLYLINE
  8
OBS_ASYTOP
 66
1
 70
0
 40
0.008000000000000002
 41
0.008000000000000002
  0
VERTEX
  8
OBS_ASYTOP
 10
-2.233266666666667
 20
1.064766666666667
  0
VERTEX
  8
OBS_ASYTOP
 10
-2.233266666666667
 20
1.339766666666667
  0
SEQEND
  8
OBS_ASYTOP
  0
POLYLINE
  8
OBS_SSTOP
 66
1
 70
0
 40
0.008000000000000002
 41
0.008000000000000002
  0
VERTEX
  8
OBS_SSTOP
 10
-2.320766666666667
 20
1.339766666666667
  0
VERTEX
  8
OBS_SSTOP
 10
-2.433266666666667
 20
1.339766666666667
  0
VERTEX
  8
OBS_SSTOP
 10
-2.433266666666667
 20
1.064766666666667
  0
VERTEX
  8
OBS_SSTOP
 10
-2.333266666666667
 20
1.064766666666667
  0
SEQEND
  8
OBS_SSTOP
  0
POLYLINE
  8
OBS_ASYTOP
 66
1
 70
0
 40
0.008000000000000002
 41
0.008000000000000002
  0
VERTEX
  8
OBS_ASYTOP
 10
-2.320766666666667
 20
1.339766666666667
  0
VERTEX
  8
OBS_ASYTOP
 10
-2.433266666666667
 20
1.339766666666667
  0
VERTEX
  8
OBS_ASYTOP
 10
-2.433266666666667
 20
1.064766666666667
  0
VERTEX
  8
OBS_ASYTOP
 10
-2.333266666666667
 20
1.064766666666667
  0
SEQEND
  8
OBS_ASYTOP
  0
POLYLINE
  8
OBS_SSTOP
 66
1
 70
0
 40
0.008000000000000002
 41
0.008000000000000002
  0
VERTEX
  8
OBS_SSTOP
 10
-1.279433333333334
 20
1.495933333333334
  0
VERTEX
  8
OBS_SSTOP
 10
-1.279433333333334
 20
1.75185
  0
VERTEX
  8
OBS_SSTOP
 10
-1.023533333333334
 20
1.75185
  0
VERTEX
  8
OBS_SSTOP
 10
-1.023533333333334
 20
1.495933333333334
  0
VERTEX
  8
OBS_SSTOP
 10
-1.279433333333334
 20
1.495933333333334
  0
SEQEND
  8
OBS_SSTOP
  0
POLYLINE
  8
OBS_SSTOP
 66
1
 70
1
 40
0.008000000000000002
 41
0.008000000000000002
  0
VERTEX
  8
OBS_SSTOP
 10
-1.090466666666667
 20
1.5668
 42
  1
  0
VERTEX
  8
OBS_SSTOP
 10
-1.208566666666667
 20
1.684933333333334
 42
  1
  0
SEQEND
  8
OBS_SSTOP
  0
POLYLINE
  8
OBS_SSTOP
 66
1
 70
0
 40
0.008000000000000002
 41
0.008000000000000002
  0
VERTEX
  8
OBS_SSTOP
 10
-1.594366666666667
 20
1.495933333333334
  0
VERTEX
  8
OBS_SSTOP
 10
-1.594366666666667
 20
1.75185
  0
VERTEX
  8
OBS_SSTOP
 10
-1.338466666666667
 20
1.75185
  0
VERTEX
  8
OBS_SSTOP
 10
-1.338466666666667
 20
1.495933333333334
  0
VERTEX
  8
OBS_SSTOP
 10
-1.594366666666667
 20
1.495933333333334
  0
SEQEND
  8
OBS_SSTOP
  0
POLYLINE
  8
OBS_SSTOP
 66
1
 70
1
 40
0.008000000000000002
 41
0.008000000000000002
  0
VERTEX
  8
OBS_SSTOP
 10
-1.4054
 20
1.5668
 42
  1
  0
VERTEX
  8
OBS_SSTOP
 10
-1.5235
 20
1.684933333333334
 42
  1
  0
SEQEND
  8
OBS_SSTOP
  0
POLYLINE
  8
OBS_SSTOP
 66
1
 70
0
 40
0.008000000000000002
 41
0.008000000000000002
  0
VERTEX
  8
OBS_SSTOP
 10
-1.9093
 20
1.495933333333334
  0
VERTEX
  8
OBS_SSTOP
 10
-1.9093
 20
1.75185
  0
VERTEX
  8
OBS_SSTOP
 10
-1.6534
 20
1.75185
  0
VERTEX
  8
OBS_SSTOP
 10
-1.6534
 20
1.495933333333334
  0
VERTEX
  8
OBS_SSTOP
 10
-1.9093
 20
1.495933333333334
  0
SEQEND
  8
OBS_SSTOP
  0
POLYLINE
  8
OBS_SSTOP
 66
1
 70
1
 40
0.008000000000000002
 41
0.008000000000000002
  0
VERTEX
  8
OBS_SSTOP
 10
-1.720333333333334
 20
1.5668
 42
  1
  0
VERTEX
  8
OBS_SSTOP
 10
-1.838433333333334
 20
1.684933333333334
 42
  1
  0
SEQEND
  8
OBS_SSTOP
  0
POLYLINE
  8
OBS_SSTOP
 66
1
 70
0
 40
0.008000000000000002
 41
0.008000000000000002
  0
VERTEX
  8
OBS_SSTOP
 10
-2.224233333333334
 20
1.495933333333334
  0
VERTEX
  8
OBS_SSTOP
 10
-2.224233333333334
 20
1.75185
  0
VERTEX
  8
OBS_SSTOP
 10
-1.968333333333334
 20
1.75185
  0
VERTEX
  8
OBS_SSTOP
 10
-1.968333333333334
 20
1.495933333333334
  0
VERTEX
  8
OBS_SSTOP
 10
-2.224233333333334
 20
1.495933333333334
  0
SEQEND
  8
OBS_SSTOP
  0
POLYLINE
  8
OBS_SSTOP
 66
1
 70
1
 40
0.008000000000000002
 41
0.008000000000000002
  0
VERTEX
  8
OBS_SSTOP
 10
-2.035266666666667
 20
1.5668
 42
  1
  0
VERTEX
  8
OBS_SSTOP
 10
-2.153366666666667
 20
1.684933333333334
 42
  1
  0
SEQEND
  8
OBS_SSTOP
  0
POLYLINE
  8
OBS_GLOBAL_LAYER
 66
1
 39
0.001
 70
1
 40
8.333333333333335e-006
 41
8.333333333333335e-006
  0
VERTEX
  8
OBS_GLOBAL_LAYER
 10
-0.9695333333333336
 20
1.060766666666667
  0
VERTEX
  8
OBS_GLOBAL_LAYER
 10
-0.9695333333333336
 20
1.343766666666667
  0
VERTEX
  8
OBS_GLOBAL_LAYER
 10
-1.177533333333334
 20
1.343766666666667
  0
VERTEX
  8
OBS_GLOBAL_LAYER
 10
-1.177533333333334
 20
1.060766666666667
  0
VERTEX
  8
OBS_GLOBAL_LAYER
 10
-0.9695333333333336
 20
1.060766666666667
  0
SEQEND
  8
OBS_GLOBAL_LAYER
  0
POLYLINE
  8
OBS_SSTOP
 66
1
 70
0
 40
0.008000000000000002
 41
0.008000000000000002
  0
VERTEX
  8
OBS_SSTOP
 10
-1.123533333333334
 20
1.127266666666667
  0
VERTEX
  8
OBS_SSTOP
 10
-1.123533333333334
 20
1.077266666666667
  0
SEQEND
  8
OBS_SSTOP
  0
POLYLINE
  8
OBS_ASYTOP
 66
1
 70
0
 40
0.008000000000000002
 41
0.008000000000000002
  0
VERTEX
  8
OBS_ASYTOP
 10
-1.123533333333334
 20
1.127266666666667
  0
VERTEX
  8
OBS_ASYTOP
 10
-1.123533333333334
 20
1.077266666666667
  0
SEQEND
  8
OBS_ASYTOP
  0
POLYLINE
  8
OBS_SSTOP
 66
1
 70
0
 40
0.008000000000000002
 41
0.008000000000000002
  0
VERTEX
  8
OBS_SSTOP
 10
-0.9735333333333336
 20
1.064766666666667
  0
VERTEX
  8
OBS_SSTOP
 10
-0.9735333333333336
 20
1.339766666666667
  0
SEQEND
  8
OBS_SSTOP
  0
POLYLINE
  8
BOARD_OUTLINE
 66
1
 70
0
 40
0.05000000000000001
 41
0.05000000000000001
  0
VERTEX
  8
BOARD_OUTLINE
 10
-2.657250000000001
 20
1.850233333333334
  0
VERTEX
  8
BOARD_OUTLINE
 10
-0.7282833333333335
 20
1.850233333333334
  0
VERTEX
  8
BOARD_OUTLINE
 10
-0.7282833333333335
 20
0.9054333333333335
  0
VERTEX
  8
BOARD_OUTLINE
 10
-2.657250000000001
 20
0.9054333333333335
  0
VERTEX
  8
BOARD_OUTLINE
 10
-2.657250000000001
 20
1.850233333333334
  0
SEQEND
  8
BOARD_OUTLINE
  0
POLYLINE
  8
OBS_DRLDWG
 66
1
 70
0
 40
0.01
 41
0.01
  0
VERTEX
  8
OBS_DRLDWG
 10
  0
 20
  0
  0
VERTEX
  8
OBS_DRLDWG
 10
  0
 20
-1.35
  0
SEQEND
  8
OBS_DRLDWG
  0
POLYLINE
  8
OBS_DRLDWG
 66
1
 70
0
 40
0.01
 41
0.01
  0
VERTEX
  8
OBS_DRLDWG
 10
-0.005000000000000001
 20
  0
  0
VERTEX
  8
OBS_DRLDWG
 10
-0.005000000000000001
 20
-1.35
  0
SEQEND
  8
OBS_DRLDWG
  0
POLYLINE
  8
OBS_DRLDWG
 66
1
 70
0
 40
0.01
 41
0.01
  0
VERTEX
  8
OBS_DRLDWG
 10
0.3650000000000001
 20
-0.2
  0
VERTEX
  8
OBS_DRLDWG
 10
0.3650000000000001
 20
-1.15
  0
SEQEND
  8
OBS_DRLDWG
  0
POLYLINE
  8
OBS_DRLDWG
 66
1
 70
0
 40
0.01
 41
0.01
  0
VERTEX
  8
OBS_DRLDWG
 10
0.3700000000000001
 20
-0.2
  0
VERTEX
  8
OBS_DRLDWG
 10
0.3700000000000001
 20
-1.15
  0
SEQEND
  8
OBS_DRLDWG
  0
POLYLINE
  8
OBS_DRLDWG
 66
1
 70
0
 40
0.01
 41
0.01
  0
VERTEX
  8
OBS_DRLDWG
 10
1.209166666666667
 20
-0.2
  0
VERTEX
  8
OBS_DRLDWG
 10
1.209166666666667
 20
-1.15
  0
SEQEND
  8
OBS_DRLDWG
  0
POLYLINE
  8
OBS_DRLDWG
 66
1
 70
0
 40
0.01
 41
0.01
  0
VERTEX
  8
OBS_DRLDWG
 10
2.015833333333334
 20
-0.2
  0
VERTEX
  8
OBS_DRLDWG
 10
2.015833333333334
 20
-1.35
  0
SEQEND
  8
OBS_DRLDWG
  0
POLYLINE
  8
OBS_DRLDWG
 66
1
 70
0
 40
0.01
 41
0.01
  0
VERTEX
  8
OBS_DRLDWG
 10
2.570833333333334
 20
-0.2
  0
VERTEX
  8
OBS_DRLDWG
 10
2.570833333333334
 20
-1.35
  0
SEQEND
  8
OBS_DRLDWG
  0
POLYLINE
  8
OBS_DRLDWG
 66
1
 70
0
 40
0.01
 41
0.01
  0
VERTEX
  8
OBS_DRLDWG
 10
3.724991666666668
 20
  0
  0
VERTEX
  8
OBS_DRLDWG
 10
3.724991666666668
 20
-1.35
  0
SEQEND
  8
OBS_DRLDWG
  0
POLYLINE
  8
OBS_DRLDWG
 66
1
 70
0
 40
0.01
 41
0.01
  0
VERTEX
  8
OBS_DRLDWG
 10
3.729991666666668
 20
  0
  0
VERTEX
  8
OBS_DRLDWG
 10
3.729991666666668
 20
-1.35
  0
SEQEND
  8
OBS_DRLDWG
  0
POLYLINE
  8
OBS_DRLDWG
 66
1
 70
0
 40
0.01
 41
0.01
  0
VERTEX
  8
OBS_DRLDWG
 10
-0.005000000000000001
 20
0.005000000000000001
  0
VERTEX
  8
OBS_DRLDWG
 10
3.729991666666668
 20
0.005000000000000001
  0
SEQEND
  8
OBS_DRLDWG
  0
POLYLINE
  8
OBS_DRLDWG
 66
1
 70
0
 40
0.01
 41
0.01
  0
VERTEX
  8
OBS_DRLDWG
 10
  0
 20
  0
  0
VERTEX
  8
OBS_DRLDWG
 10
3.724991666666668
 20
  0
  0
SEQEND
  8
OBS_DRLDWG
  0
POLYLINE
  8
OBS_DRLDWG
 66
1
 70
0
 40
0.01
 41
0.01
  0
VERTEX
  8
OBS_DRLDWG
 10
  0
 20
-0.1950000000000001
  0
VERTEX
  8
OBS_DRLDWG
 10
3.724991666666668
 20
-0.1950000000000001
  0
SEQEND
  8
OBS_DRLDWG
  0
POLYLINE
  8
OBS_DRLDWG
 66
1
 70
0
 40
0.01
 41
0.01
  0
VERTEX
  8
OBS_DRLDWG
 10
  0
 20
-0.2
  0
VERTEX
  8
OBS_DRLDWG
 10
3.724991666666668
 20
-0.2
  0
SEQEND
  8
OBS_DRLDWG
  0
POLYLINE
  8
OBS_DRLDWG
 66
1
 70
0
 40
0.01
 41
0.01
  0
VERTEX
  8
OBS_DRLDWG
 10
  0
 20
-0.3950000000000001
  0
VERTEX
  8
OBS_DRLDWG
 10
3.724991666666668
 20
-0.3950000000000001
  0
SEQEND
  8
OBS_DRLDWG
  0
POLYLINE
  8
OBS_DRLDWG
 66
1
 70
0
 40
0.01
 41
0.01
  0
VERTEX
  8
OBS_DRLDWG
 10
  0
 20
-0.4000000000000001
  0
VERTEX
  8
OBS_DRLDWG
 10
3.724991666666668
 20
-0.4000000000000001
  0
SEQEND
  8
OBS_DRLDWG
  0
POLYLINE
  8
OBS_DRLDWG
 66
1
 70
0
 40
0.01
 41
0.01
  0
VERTEX
  8
OBS_DRLDWG
 10
  0
 20
-0.5500000000000002
  0
VERTEX
  8
OBS_DRLDWG
 10
3.724991666666668
 20
-0.5500000000000002
  0
SEQEND
  8
OBS_DRLDWG
  0
POLYLINE
  8
OBS_DRLDWG
 66
1
 70
0
 40
0.01
 41
0.01
  0
VERTEX
  8
OBS_DRLDWG
 10
  0
 20
-0.7000000000000002
  0
VERTEX
  8
OBS_DRLDWG
 10
3.724991666666668
 20
-0.7000000000000002
  0
SEQEND
  8
OBS_DRLDWG
  0
POLYLINE
  8
OBS_DRLDWG
 66
1
 70
0
 40
0.01
 41
0.01
  0
VERTEX
  8
OBS_DRLDWG
 10
  0
 20
-0.8500000000000002
  0
VERTEX
  8
OBS_DRLDWG
 10
3.724991666666668
 20
-0.8500000000000002
  0
SEQEND
  8
OBS_DRLDWG
  0
POLYLINE
  8
OBS_DRLDWG
 66
1
 70
0
 40
0.01
 41
0.01
  0
VERTEX
  8
OBS_DRLDWG
 10
  0
 20
 -1
  0
VERTEX
  8
OBS_DRLDWG
 10
3.724991666666668
 20
 -1
  0
SEQEND
  8
OBS_DRLDWG
  0
POLYLINE
  8
OBS_DRLDWG
 66
1
 70
0
 40
0.01
 41
0.01
  0
VERTEX
  8
OBS_DRLDWG
 10
  0
 20
-1.15
  0
VERTEX
  8
OBS_DRLDWG
 10
3.724991666666668
 20
-1.15
  0
SEQEND
  8
OBS_DRLDWG
  0
POLYLINE
  8
OBS_DRLDWG
 66
1
 70
0
 40
0.01
 41
0.01
  0
VERTEX
  8
OBS_DRLDWG
 10
  0
 20
-1.35
  0
VERTEX
  8
OBS_DRLDWG
 10
3.724991666666668
 20
-1.35
  0
SEQEND
  8
OBS_DRLDWG
  0
POLYLINE
  8
OBS_DRLDWG
 66
1
 70
0
 40
0.01
 41
0.01
  0
VERTEX
  8
OBS_DRLDWG
 10
-0.005000000000000001
 20
-1.355
  0
VERTEX
  8
OBS_DRLDWG
 10
3.729991666666668
 20
-1.355
  0
SEQEND
  8
OBS_DRLDWG
  0
POLYLINE
  8
OBS_DRLDWG
 66
1
 70
0
 40
0.01
 41
0.01
  0
VERTEX
  8
OBS_DRLDWG
 10
0.1575
 20
-0.4500000000000001
  0
VERTEX
  8
OBS_DRLDWG
 10
0.2075000000000001
 20
-0.5000000000000001
  0
SEQEND
  8
OBS_DRLDWG
  0
POLYLINE
  8
OBS_DRLDWG
 66
1
 70
0
 40
0.01
 41
0.01
  0
VERTEX
  8
OBS_DRLDWG
 10
0.1575
 20
-0.5000000000000001
  0
VERTEX
  8
OBS_DRLDWG
 10
0.2075000000000001
 20
-0.4500000000000001
  0
SEQEND
  8
OBS_DRLDWG
  0
POLYLINE
  8
OBS_DRLDWG
 66
1
 70
0
 40
0.01
 41
0.01
  0
VERTEX
  8
OBS_DRLDWG
 10
0.1825000000000001
 20
-0.6500000000000001
  0
VERTEX
  8
OBS_DRLDWG
 10
0.1825000000000001
 20
-0.6000000000000002
  0
SEQEND
  8
OBS_DRLDWG
  0
POLYLINE
  8
OBS_DRLDWG
 66
1
 70
0
 40
0.01
 41
0.01
  0
VERTEX
  8
OBS_DRLDWG
 10
0.1575
 20
-0.6250000000000001
  0
VERTEX
  8
OBS_DRLDWG
 10
0.2075000000000001
 20
-0.6250000000000001
  0
SEQEND
  8
OBS_DRLDWG
  0
POLYLINE
  8
OBS_DRLDWG
 66
1
 70
0
 40
0.01
 41
0.01
  0
VERTEX
  8
OBS_DRLDWG
 10
0.1825000000000001
 20
-0.8000000000000002
  0
VERTEX
  8
OBS_DRLDWG
 10
0.1575
 20
-0.7750000000000002
  0
SEQEND
  8
OBS_DRLDWG
  0
POLYLINE
  8
OBS_DRLDWG
 66
1
 70
0
 40
0.01
 41
0.01
  0
VERTEX
  8
OBS_DRLDWG
 10
0.2075000000000001
 20
-0.7750000000000002
  0
VERTEX
  8
OBS_DRLDWG
 10
0.1825000000000001
 20
-0.8000000000000002
  0
SEQEND
  8
OBS_DRLDWG
  0
POLYLINE
  8
OBS_DRLDWG
 66
1
 70
0
 40
0.01
 41
0.01
  0
VERTEX
  8
OBS_DRLDWG
 10
0.1825000000000001
 20
-0.7500000000000002
  0
VERTEX
  8
OBS_DRLDWG
 10
0.2075000000000001
 20
-0.7750000000000002
  0
SEQEND
  8
OBS_DRLDWG
  0
POLYLINE
  8
OBS_DRLDWG
 66
1
 70
0
 40
0.01
 41
0.01
  0
VERTEX
  8
OBS_DRLDWG
 10
0.1575
 20
-0.7750000000000002
  0
VERTEX
  8
OBS_DRLDWG
 10
0.1825000000000001
 20
-0.7500000000000002
  0
SEQEND
  8
OBS_DRLDWG
  0
POLYLINE
  8
OBS_DRLDWG
 66
1
 70
0
 40
0.01
 41
0.01
  0
VERTEX
  8
OBS_DRLDWG
 10
0.1575
 20
-0.9000000000000002
  0
VERTEX
  8
OBS_DRLDWG
 10
0.2075000000000001
 20
-0.9500000000000003
  0
SEQEND
  8
OBS_DRLDWG
  0
POLYLINE
  8
OBS_DRLDWG
 66
1
 70
0
 40
0.01
 41
0.01
  0
VERTEX
  8
OBS_DRLDWG
 10
0.1575
 20
-0.9500000000000003
  0
VERTEX
  8
OBS_DRLDWG
 10
0.2075000000000001
 20
-0.9000000000000002
  0
SEQEND
  8
OBS_DRLDWG
  0
POLYLINE
  8
OBS_DRLDWG
 66
1
 70
0
 40
0.01
 41
0.01
  0
VERTEX
  8
OBS_DRLDWG
 10
0.2075000000000001
 20
-0.9500000000000003
  0
VERTEX
  8
OBS_DRLDWG
 10
0.1575
 20
-0.9500000000000003
  0
SEQEND
  8
OBS_DRLDWG
  0
POLYLINE
  8
OBS_DRLDWG
 66
1
 70
0
 40
0.01
 41
0.01
  0
VERTEX
  8
OBS_DRLDWG
 10
0.2075000000000001
 20
-0.9000000000000002
  0
VERTEX
  8
OBS_DRLDWG
 10
0.2075000000000001
 20
-0.9500000000000003
  0
SEQEND
  8
OBS_DRLDWG
  0
POLYLINE
  8
OBS_DRLDWG
 66
1
 70
0
 40
0.01
 41
0.01
  0
VERTEX
  8
OBS_DRLDWG
 10
0.1575
 20
-0.9000000000000002
  0
VERTEX
  8
OBS_DRLDWG
 10
0.2075000000000001
 20
-0.9000000000000002
  0
SEQEND
  8
OBS_DRLDWG
  0
POLYLINE
  8
OBS_DRLDWG
 66
1
 70
0
 40
0.01
 41
0.01
  0
VERTEX
  8
OBS_DRLDWG
 10
0.1575
 20
-0.9500000000000003
  0
VERTEX
  8
OBS_DRLDWG
 10
0.1575
 20
-0.9000000000000002
  0
SEQEND
  8
OBS_DRLDWG
  0
POLYLINE
  8
OBS_DRLDWG
 66
1
 70
0
 40
0.01
 41
0.01
  0
VERTEX
  8
OBS_DRLDWG
 10
0.1825000000000001
 20
-1.1
  0
VERTEX
  8
OBS_DRLDWG
 10
0.1825000000000001
 20
-1.05
  0
SEQEND
  8
OBS_DRLDWG
  0
POLYLINE
  8
OBS_DRLDWG
 66
1
 70
0
 40
0.01
 41
0.01
  0
VERTEX
  8
OBS_DRLDWG
 10
0.1575
 20
-1.075
  0
VERTEX
  8
OBS_DRLDWG
 10
0.2075000000000001
 20
-1.075
  0
SEQEND
  8
OBS_DRLDWG
  0
POLYLINE
  8
OBS_DRLDWG
 66
1
 70
0
 40
0.01
 41
0.01
  0
VERTEX
  8
OBS_DRLDWG
 10
0.2075000000000001
 20
-1.1
  0
VERTEX
  8
OBS_DRLDWG
 10
0.1575
 20
-1.1
  0
SEQEND
  8
OBS_DRLDWG
  0
POLYLINE
  8
OBS_DRLDWG
 66
1
 70
0
 40
0.01
 41
0.01
  0
VERTEX
  8
OBS_DRLDWG
 10
0.2075000000000001
 20
-1.05
  0
VERTEX
  8
OBS_DRLDWG
 10
0.2075000000000001
 20
-1.1
  0
SEQEND
  8
OBS_DRLDWG
  0
POLYLINE
  8
OBS_DRLDWG
 66
1
 70
0
 40
0.01
 41
0.01
  0
VERTEX
  8
OBS_DRLDWG
 10
0.1575
 20
-1.05
  0
VERTEX
  8
OBS_DRLDWG
 10
0.2075000000000001
 20
-1.05
  0
SEQEND
  8
OBS_DRLDWG
  0
POLYLINE
  8
OBS_DRLDWG
 66
1
 70
0
 40
0.01
 41
0.01
  0
VERTEX
  8
OBS_DRLDWG
 10
0.1575
 20
-1.1
  0
VERTEX
  8
OBS_DRLDWG
 10
0.1575
 20
-1.05
  0
SEQEND
  8
OBS_DRLDWG
  0
POLYLINE
  8
OBS_TOP
 66
1
 70
0
 40
0.01
 41
0.01
  0
VERTEX
  8
OBS_TOP
 10
-2.601000000000001
 20
0.8257666666666669
  0
VERTEX
  8
OBS_TOP
 10
-2.657250000000001
 20
0.8070166666666668
  0
VERTEX
  8
OBS_TOP
 10
-2.601000000000001
 20
0.7882666666666669
  0
SEQEND
  8
OBS_TOP
  0
POLYLINE
  8
OBS_TOP
 66
1
 70
0
 40
0.01
 41
0.01
  0
VERTEX
  8
OBS_TOP
 10
-2.657250000000001
 20
0.8070166666666668
  0
VERTEX
  8
OBS_TOP
 10
-1.87235
 20
0.8070166666666668
  0
SEQEND
  8
OBS_TOP
  0
POLYLINE
  8
OBS_TOP
 66
1
 70
0
 40
0.01
 41
0.01
  0
VERTEX
  8
OBS_TOP
 10
-2.657250000000001
 20
0.9195166666666669
  0
VERTEX
  8
OBS_TOP
 10
-2.657250000000001
 20
0.6945166666666669
  0
SEQEND
  8
OBS_TOP
  0
POLYLINE
  8
OBS_TOP
 66
1
 70
0
 40
0.01
 41
0.01
  0
VERTEX
  8
OBS_TOP
 10
-0.7845333333333335
 20
0.7882666666666669
  0
VERTEX
  8
OBS_TOP
 10
-0.7282833333333335
 20
0.8070166666666668
  0
VERTEX
  8
OBS_TOP
 10
-0.7845333333333335
 20
0.8257666666666669
  0
SEQEND
  8
OBS_TOP
  0
POLYLINE
  8
OBS_TOP
 66
1
 70
0
 40
0.01
 41
0.01
  0
VERTEX
  8
OBS_TOP
 10
-0.7282833333333335
 20
0.8070166666666668
  0
VERTEX
  8
OBS_TOP
 10
-1.513183333333334
 20
0.8070166666666668
  0
SEQEND
  8
OBS_TOP
  0
POLYLINE
  8
OBS_TOP
 66
1
 70
0
 40
0.01
 41
0.01
  0
VERTEX
  8
OBS_TOP
 10
-0.7282833333333335
 20
0.9195166666666669
  0
VERTEX
  8
OBS_TOP
 10
-0.7282833333333335
 20
0.6945166666666669
  0
SEQEND
  8
OBS_TOP
  0
ENDSEC
  0
EOF
